NotoSansOldHungUI-Regular.ufo
<glyph name="u10C80" format="2">
  <advance width="1053"/>
  <unicode hex="10C80"/>
  <outline>
    <contour>
      <point x="797" y="1465" type="line"/>
      <point x="797" y="4" type="line"/>
      <point x="618" y="4" type="line"/>
      <point x="618" y="760" type="line"/>
      <point x="20" y="760" type="line"/>
      <point x="20" y="958" type="line"/>
      <point x="604" y="1465" type="line"/>
    </contour>
    <contour>
      <point x="618" y="1285" type="line"/>
      <point x="184" y="916" type="line"/>
      <point x="618" y="916" type="line"/>
    </contour>
  </outline>
</glyph>
<glyph name="u10C81" format="2">
  <advance width="529"/>
  <unicode hex="10C81"/>
  <outline>
    <contour>
      <point x="400" y="-2" type="line"/>
      <point x="310" y="-2" type="line"/>
      <point x="310" y="235" type="line"/>
      <point x="23" y="466" type="line"/>
      <point x="23" y="537" type="line"/>
      <point x="307" y="797" type="line"/>
      <point x="400" y="797" type="line"/>
    </contour>
    <contour>
      <point x="107" y="502" type="line"/>
      <point x="310" y="343" type="line"/>
      <point x="310" y="698" type="line"/>
    </contour>
  </outline>
</glyph>
<glyph name="u10C82" format="2">
  <advance width="1377"/>
  <unicode hex="10C82"/>
  <outline>
    <contour>
      <point x="685" y="639" type="line"/>
      <point x="217" y="1" type="line"/>
      <point x="9" y="1" type="line"/>
      <point x="571" y="756" type="line"/>
      <point x="45" y="1461" type="line"/>
      <point x="264" y="1461" type="line"/>
      <point x="691" y="869" type="line"/>
      <point x="1124" y="1461" type="line"/>
      <point x="1331" y="1461" type="line"/>
      <point x="806" y="759" type="line"/>
      <point x="1371" y="-1" type="line"/>
      <point x="1148" y="-1" type="line"/>
    </contour>
  </outline>
</glyph>
<glyph name="u10C83" format="2">
  <advance width="1018"/>
  <unicode hex="10C83"/>
  <outline>
    <contour>
      <point x="557" y="-4" type="qcurve"/>
      <point x="464" y="-4" type="line"/>
      <point x="429" y="22"/>
      <point x="367" y="75"/>
      <point x="341" y="102" type="qcurve"/>
      <point x="251" y="-3" type="line"/>
      <point x="55" y="80" type="line"/>
      <point x="85" y="151" type="line"/>
      <point x="226" y="87" type="line"/>
      <point x="288" y="165" type="line"/>
      <point x="251" y="216"/>
      <point x="211" y="330"/>
      <point x="211" y="396" type="qcurve" smooth="yes"/>
      <point x="211" y="463"/>
      <point x="251" y="577"/>
      <point x="288" y="629" type="qcurve"/>
      <point x="226" y="706" type="line"/>
      <point x="85" y="642" type="line"/>
      <point x="55" y="714" type="line"/>
      <point x="251" y="796" type="line"/>
      <point x="341" y="691" type="line"/>
      <point x="367" y="719"/>
      <point x="429" y="772"/>
      <point x="463" y="797" type="qcurve"/>
      <point x="557" y="797" type="line"/>
      <point x="592" y="772"/>
      <point x="652" y="721"/>
      <point x="678" y="693" type="qcurve"/>
      <point x="765" y="796" type="line"/>
      <point x="963" y="714" type="line"/>
      <point x="931" y="642" type="line"/>
      <point x="791" y="706" type="line"/>
      <point x="731" y="631" type="line"/>
      <point x="769" y="579"/>
      <point x="809" y="463"/>
      <point x="809" y="396" type="qcurve" smooth="yes"/>
      <point x="809" y="329"/>
      <point x="769" y="214"/>
      <point x="731" y="162" type="qcurve"/>
      <point x="791" y="87" type="line"/>
      <point x="931" y="151" type="line"/>
      <point x="963" y="80" type="line"/>
      <point x="765" y="-3" type="line"/>
      <point x="678" y="100" type="line"/>
      <point x="652" y="73"/>
      <point x="592" y="21"/>
    </contour>
    <contour>
      <point x="508" y="64" type="qcurve"/>
      <point x="512" y="64" type="line"/>
      <point x="581" y="121"/>
      <point x="671" y="221"/>
      <point x="716" y="330"/>
      <point x="716" y="396" type="qcurve" smooth="yes"/>
      <point x="716" y="463"/>
      <point x="671" y="572"/>
      <point x="581" y="673"/>
      <point x="512" y="730" type="qcurve"/>
      <point x="508" y="730" type="line"/>
      <point x="440" y="673"/>
      <point x="349" y="572"/>
      <point x="304" y="463"/>
      <point x="304" y="396" type="qcurve" smooth="yes"/>
      <point x="304" y="330"/>
      <point x="349" y="221"/>
      <point x="440" y="121"/>
    </contour>
  </outline>
</glyph>
<glyph name="u10C84" format="2">
  <advance width="1235"/>
  <unicode hex="10C84"/>
  <outline>
    <contour>
      <point x="708" y="1230" type="line"/>
      <point x="708" y="1" type="line"/>
      <point x="528" y="1" type="line"/>
      <point x="528" y="1230" type="line"/>
      <point x="166" y="921" type="line"/>
      <point x="48" y="1043" type="line"/>
      <point x="544" y="1464" type="line"/>
      <point x="692" y="1464" type="line"/>
      <point x="1189" y="1043" type="line"/>
      <point x="1071" y="921" type="line"/>
    </contour>
  </outline>
</glyph>
<glyph name="u10C85" format="2">
  <advance width="620"/>
  <unicode hex="10C85"/>
  <outline>
    <contour>
      <point x="350" y="0" type="line"/>
      <point x="276" y="0" type="line"/>
      <point x="27" y="211" type="line"/>
      <point x="86" y="271" type="line"/>
      <point x="268" y="117" type="line"/>
      <point x="268" y="685" type="line"/>
      <point x="86" y="531" type="line"/>
      <point x="34" y="591" type="line"/>
      <point x="276" y="802" type="line"/>
      <point x="350" y="802" type="line"/>
      <point x="592" y="591" type="line"/>
      <point x="540" y="531" type="line"/>
      <point x="358" y="685" type="line"/>
      <point x="358" y="117" type="line"/>
      <point x="540" y="271" type="line"/>
      <point x="599" y="211" type="line"/>
    </contour>
  </outline>
</glyph>
<glyph name="u10C86" format="2">
  <advance width="832"/>
  <unicode hex="10C86"/>
  <outline>
    <contour>
      <point x="211" y="-5" type="line"/>
      <point x="124" y="-5" type="line"/>
      <point x="124" y="799" type="line"/>
      <point x="214" y="799" type="line"/>
      <point x="214" y="555" type="line"/>
      <point x="621" y="799" type="line"/>
      <point x="708" y="799" type="line"/>
      <point x="708" y="-5" type="line"/>
      <point x="618" y="-5" type="line"/>
      <point x="618" y="240" type="line"/>
    </contour>
    <contour>
      <point x="214" y="461" type="line"/>
      <point x="214" y="94" type="line"/>
      <point x="618" y="332" type="line"/>
      <point x="618" y="704" type="line"/>
    </contour>
  </outline>
</glyph>
<glyph name="u10C87" format="2">
  <advance width="627"/>
  <unicode hex="10C87"/>
  <outline>
    <contour>
      <point x="361" y="-5" type="line"/>
      <point x="265" y="-5" type="line"/>
      <point x="265" y="348" type="line"/>
      <point x="96" y="260" type="line"/>
      <point x="57" y="329" type="line"/>
      <point x="265" y="434" type="line"/>
      <point x="265" y="802" type="line"/>
      <point x="361" y="802" type="line"/>
      <point x="361" y="482" type="line"/>
      <point x="530" y="572" type="line"/>
      <point x="569" y="502" type="line"/>
      <point x="361" y="394" type="line"/>
    </contour>
  </outline>
</glyph>
<glyph name="u10C88" format="2">
  <advance width="1377"/>
  <unicode hex="10C88"/>
  <outline>
    <contour>
      <point x="684" y="645" type="line"/>
      <point x="216" y="4" type="line"/>
      <point x="8" y="4" type="line"/>
      <point x="489" y="652" type="line"/>
      <point x="108" y="552" type="line"/>
      <point x="60" y="668" type="line"/>
      <point x="546" y="793" type="line"/>
      <point x="44" y="1461" type="line"/>
      <point x="263" y="1461" type="line"/>
      <point x="690" y="875" type="line"/>
      <point x="1123" y="1461" type="line"/>
      <point x="1330" y="1461" type="line"/>
      <point x="893" y="882" type="line"/>
      <point x="1269" y="981" type="line"/>
      <point x="1300" y="859" type="line"/>
      <point x="825" y="737" type="line"/>
      <point x="1370" y="4" type="line"/>
      <point x="1147" y="4" type="line"/>
    </contour>
  </outline>
</glyph>
<glyph name="u10C89" format="2">
  <advance width="1121"/>
  <unicode hex="10C89"/>
  <outline>
    <contour>
      <point x="273" y="1" type="qcurve"/>
      <point x="273" y="1"/>
      <point x="172" y="117" type="qcurve"/>
      <point x="258" y="161"/>
      <point x="328" y="202" type="qcurve" smooth="yes"/>
      <point x="408" y="249"/>
      <point x="455" y="280" type="qcurve"/>
      <point x="196" y="465" type="line"/>
      <point x="305" y="560" type="line"/>
      <point x="572" y="371" type="line"/>
      <point x="666" y="454"/>
      <point x="746" y="628"/>
      <point x="746" y="731" type="qcurve" smooth="yes"/>
      <point x="746" y="834"/>
      <point x="664" y="1007"/>
      <point x="564" y="1093" type="qcurve"/>
      <point x="305" y="908" type="line"/>
      <point x="196" y="1007" type="line"/>
      <point x="447" y="1183" type="line"/>
      <point x="389" y="1222"/>
      <point x="248" y="1306"/>
      <point x="162" y="1352" type="qcurve"/>
      <point x="283" y="1462" type="line"/>
      <point x="373" y="1414"/>
      <point x="522" y="1324"/>
      <point x="584" y="1280" type="qcurve"/>
      <point x="833" y="1457" type="line"/>
      <point x="931" y="1354" type="line"/>
      <point x="702" y="1190" type="line"/>
      <point x="828" y="1081"/>
      <point x="933" y="862"/>
      <point x="933" y="731" type="qcurve" smooth="yes"/>
      <point x="933" y="600"/>
      <point x="829" y="383"/>
      <point x="706" y="276" type="qcurve"/>
      <point x="931" y="117" type="line"/>
      <point x="833" y="14" type="line"/>
      <point x="588" y="187" type="line"/>
      <point x="524" y="143"/>
      <point x="367" y="51"/>
    </contour>
  </outline>
</glyph>
<glyph name="u10C8A" format="2">
  <advance width="586"/>
  <unicode hex="10C8A"/>
  <outline>
    <contour>
      <point x="150" y="-8" type="qcurve"/>
      <point x="98" y="56" type="line"/>
      <point x="136" y="78"/>
      <point x="200" y="117"/>
      <point x="227" y="136" type="qcurve"/>
      <point x="160" y="197"/>
      <point x="102" y="321"/>
      <point x="102" y="395" type="qcurve" smooth="yes"/>
      <point x="102" y="469"/>
      <point x="159" y="593"/>
      <point x="226" y="653" type="qcurve"/>
      <point x="198" y="674"/>
      <point x="132" y="716"/>
      <point x="93" y="739" type="qcurve"/>
      <point x="154" y="799" type="line"/>
      <point x="236" y="751"/>
      <point x="293" y="709" type="qcurve"/>
      <point x="350" y="751"/>
      <point x="432" y="799" type="qcurve"/>
      <point x="493" y="739" type="line"/>
      <point x="454" y="717"/>
      <point x="388" y="674"/>
      <point x="361" y="654" type="qcurve"/>
      <point x="427" y="593"/>
      <point x="484" y="470"/>
      <point x="484" y="395" type="qcurve" smooth="yes"/>
      <point x="484" y="321"/>
      <point x="427" y="197"/>
      <point x="359" y="136" type="qcurve"/>
      <point x="386" y="117"/>
      <point x="451" y="77"/>
      <point x="488" y="56" type="qcurve"/>
      <point x="436" y="-8" type="line"/>
      <point x="395" y="16"/>
      <point x="323" y="61"/>
      <point x="293" y="83" type="qcurve"/>
      <point x="263" y="61"/>
      <point x="191" y="16"/>
    </contour>
    <contour>
      <point x="293" y="189" type="qcurve"/>
      <point x="345" y="237"/>
      <point x="390" y="336"/>
      <point x="390" y="395" type="qcurve" smooth="yes"/>
      <point x="390" y="454"/>
      <point x="346" y="551"/>
      <point x="293" y="599" type="qcurve"/>
      <point x="240" y="550"/>
      <point x="196" y="454"/>
      <point x="196" y="395" type="qcurve" smooth="yes"/>
      <point x="196" y="336"/>
      <point x="241" y="237"/>
    </contour>
  </outline>
</glyph>
<glyph name="u10C8B" format="2">
  <advance width="1021"/>
  <unicode hex="10C8B"/>
  <outline>
    <contour>
      <point x="461" y="167" type="qcurve"/>
      <point x="674" y="1" type="line"/>
      <point x="558" y="-127" type="line"/>
      <point x="176" y="183" type="line"/>
      <point x="348" y="277"/>
      <point x="564" y="449"/>
      <point x="670" y="625"/>
      <point x="670" y="730" type="qcurve" smooth="yes"/>
      <point x="670" y="837"/>
      <point x="566" y="1014"/>
      <point x="347" y="1186"/>
      <point x="176" y="1282" type="qcurve"/>
      <point x="176" y="1282"/>
      <point x="558" y="1590" type="qcurve"/>
      <point x="674" y="1465" type="line"/>
      <point x="461" y="1297" type="line"/>
      <point x="673" y="1161"/>
      <point x="857" y="897"/>
      <point x="857" y="730" type="qcurve" smooth="yes"/>
      <point x="857" y="568"/>
      <point x="672" y="303"/>
    </contour>
  </outline>
</glyph>
<glyph name="u10C8C" format="2">
  <advance width="1533"/>
  <unicode hex="10C8C"/>
  <outline>
    <contour>
      <point x="859" y="1" type="curve"/>
      <point x="674" y="1" type="offcurve"/>
      <point x="514" y="108" type="offcurve"/>
      <point x="285" y="326" type="curve"/>
      <point x="162" y="576" type="offcurve"/>
      <point x="162" y="731" type="curve" smooth="yes"/>
      <point x="162" y="886" type="offcurve"/>
      <point x="285" y="1137" type="curve"/>
      <point x="514" y="1356" type="offcurve"/>
      <point x="672" y="1462" type="curve"/>
      <point x="859" y="1462" type="line"/>
      <point x="1019" y="1356" type="curve" smooth="yes"/>
      <point x="1247" y="1137" type="offcurve"/>
      <point x="1370" y="886" type="offcurve"/>
      <point x="1370" y="731" type="curve" smooth="yes"/>
      <point x="1370" y="575" type="offcurve"/>
      <point x="1247" y="326" type="curve"/>
      <point x="1019" y="108" type="offcurve"/>
    </contour>
    <contour>
      <point x="493" y="1106" type="curve"/>
      <point x="493" y="1106" type="offcurve"/>
      <point x="769" y="821" type="curve"/>
      <point x="1041" y="1104" type="line"/>
      <point x="991" y="1162" type="curve" smooth="yes"/>
      <point x="867" y="1276" type="offcurve"/>
      <point x="779" y="1340" type="curve"/>
      <point x="752" y="1341" type="line"/>
      <point x="610" y="1239" type="curve" smooth="yes"/>
    </contour>
    <contour>
      <point x="419" y="459" type="curve"/>
      <point x="676" y="727" type="line"/>
      <point x="417" y="1001" type="line"/>
      <point x="347" y="881" type="curve" smooth="yes"/>
      <point x="347" y="731" type="curve" smooth="yes"/>
      <point x="347" y="652" type="offcurve"/>
      <point x="383" y="521" type="offcurve"/>
    </contour>
    <contour>
      <point x="1117" y="995" type="curve"/>
      <point x="861" y="727" type="line"/>
      <point x="1117" y="464" type="line"/>
      <point x="1185" y="582" type="curve" smooth="yes"/>
      <point x="1185" y="879" type="offcurve"/>
    </contour>
    <contour>
      <point x="750" y="127" type="curve"/>
      <point x="776" y="128" type="line"/>
      <point x="836" y="171" type="curve" smooth="yes"/>
      <point x="919" y="241" type="curve" smooth="yes"/>
      <point x="985" y="297" type="offcurve"/>
      <point x="1035" y="355" type="curve"/>
      <point x="769" y="632" type="line"/>
      <point x="501" y="350" type="line"/>
      <point x="551" y="295" type="curve" smooth="yes"/>
      <point x="668" y="187" type="offcurve"/>
    </contour>
  </outline>
</glyph>
<glyph name="u10C8D" format="2">
  <advance width="801"/>
  <unicode hex="10C8D"/>
  <outline>
    <contour>
      <point x="121" y="-5" type="line"/>
      <point x="21" y="-5" type="line"/>
      <point x="360" y="802" type="line"/>
      <point x="447" y="802" type="line"/>
      <point x="780" y="-5" type="line"/>
      <point x="681" y="-5" type="line"/>
      <point x="524" y="379" type="line"/>
      <point x="380" y="-5" type="line"/>
      <point x="286" y="-5" type="line"/>
      <point x="480" y="487" type="line"/>
      <point x="468" y="516" type="line" smooth="yes"/>
      <point x="447" y="567"/>
      <point x="414" y="656"/>
      <point x="403" y="696" type="qcurve"/>
      <point x="399" y="696" type="line"/>
      <point x="389" y="656"/>
      <point x="354" y="565"/>
      <point x="333" y="514" type="qcurve" smooth="yes"/>
    </contour>
  </outline>
</glyph>
<glyph name="u10C8E" format="2">
  <advance width="624"/>
  <unicode hex="10C8E"/>
  <outline>
    <contour>
      <point x="361" y="-5" type="line"/>
      <point x="265" y="-5" type="line"/>
      <point x="265" y="199" type="line"/>
      <point x="96" y="112" type="line"/>
      <point x="57" y="181" type="line"/>
      <point x="265" y="288" type="line"/>
      <point x="265" y="442" type="line"/>
      <point x="96" y="356" type="line"/>
      <point x="57" y="424" type="line"/>
      <point x="265" y="531" type="line"/>
      <point x="265" y="799" type="line"/>
      <point x="361" y="799" type="line"/>
      <point x="361" y="580" type="line"/>
      <point x="530" y="666" type="line"/>
      <point x="569" y="596" type="line"/>
      <point x="361" y="490" type="line"/>
      <point x="361" y="337" type="line"/>
      <point x="530" y="423" type="line"/>
      <point x="569" y="353" type="line"/>
      <point x="361" y="247" type="line"/>
    </contour>
  </outline>
</glyph>
<glyph name="u10C8F" format="2">
  <advance width="1415"/>
  <unicode hex="10C8F"/>
  <outline>
    <contour>
      <point x="706" y="277" type="line"/>
      <point x="371" y="3" type="line"/>
      <point x="128" y="3" type="line"/>
      <point x="588" y="370" type="line"/>
      <point x="102" y="759" type="line"/>
      <point x="588" y="1123" type="line"/>
      <point x="128" y="1464" type="line"/>
      <point x="367" y="1464" type="line"/>
      <point x="706" y="1209" type="line"/>
      <point x="1043" y="1464" type="line"/>
      <point x="1286" y="1464" type="line"/>
      <point x="825" y="1123" type="line"/>
      <point x="1314" y="759" type="line"/>
      <point x="825" y="370" type="line"/>
      <point x="1286" y="3" type="line"/>
      <point x="1043" y="3" type="line"/>
    </contour>
    <contour>
      <point x="706" y="1030" type="line"/>
      <point x="347" y="761" type="line"/>
      <point x="706" y="470" type="line"/>
      <point x="1065" y="761" type="line"/>
    </contour>
  </outline>
</glyph>
<glyph name="u10C90" format="2">
  <advance width="1249"/>
  <unicode hex="10C90"/>
  <outline>
    <contour>
      <point x="720" y="989" type="line"/>
      <point x="720" y="4" type="line"/>
      <point x="528" y="4" type="line"/>
      <point x="528" y="893" type="line"/>
      <point x="192" y="722" type="line"/>
      <point x="114" y="857" type="line"/>
      <point x="528" y="1071" type="line"/>
      <point x="528" y="1465" type="line"/>
      <point x="720" y="1465" type="line"/>
      <point x="720" y="1169" type="line"/>
      <point x="1057" y="1340" type="line"/>
      <point x="1135" y="1201" type="line"/>
    </contour>
  </outline>
</glyph>
<glyph name="u10C91" format="2">
  <advance width="627"/>
  <unicode hex="10C91"/>
  <outline>
    <contour>
      <point x="374" y="-4" type="line"/>
      <point x="278" y="-4" type="line"/>
      <point x="278" y="654" type="line"/>
      <point x="96" y="569" type="line"/>
      <point x="57" y="632" type="line"/>
      <point x="530" y="854" type="line"/>
      <point x="569" y="790" type="line"/>
      <point x="374" y="699" type="line"/>
    </contour>
  </outline>
</glyph>
<glyph name="u10C92" format="2">
  <advance width="1089"/>
  <unicode hex="10C92"/>
  <outline>
    <contour>
      <point x="823" y="1463" type="line"/>
      <point x="823" y="0" type="line"/>
      <point x="646" y="0" type="line"/>
      <point x="646" y="1225" type="line"/>
      <point x="172" y="782" type="line"/>
      <point x="62" y="896" type="line"/>
      <point x="672" y="1463" type="line"/>
    </contour>
  </outline>
</glyph>
<glyph name="u10C93" format="2">
  <advance width="684"/>
  <unicode hex="10C93"/>
  <outline>
    <contour>
      <point x="389" y="0" type="line"/>
      <point x="297" y="0" type="line"/>
      <point x="56" y="405" type="line"/>
      <point x="297" y="799" type="line"/>
      <point x="389" y="799" type="line"/>
      <point x="629" y="405" type="line"/>
    </contour>
    <contour>
      <point x="156" y="405" type="line"/>
      <point x="343" y="81" type="line"/>
      <point x="528" y="405" type="line"/>
      <point x="343" y="719" type="line"/>
    </contour>
  </outline>
</glyph>
<glyph name="u10C94" format="2">
  <advance width="1221"/>
  <unicode hex="10C94"/>
  <outline>
    <contour>
      <point x="1189" y="425" type="line"/>
      <point x="692" y="4" type="line"/>
      <point x="528" y="4" type="line"/>
      <point x="528" y="1233" type="line"/>
      <point x="166" y="924" type="line"/>
      <point x="48" y="1046" type="line"/>
      <point x="544" y="1467" type="line"/>
      <point x="708" y="1467" type="line"/>
      <point x="708" y="236" type="line"/>
      <point x="1071" y="546" type="line"/>
    </contour>
  </outline>
</glyph>
<glyph name="u10C95" format="2">
  <advance width="907"/>
  <unicode hex="10C95"/>
  <outline>
    <contour>
      <point x="453" y="333" type="line"/>
      <point x="240" y="-2" type="line"/>
      <point x="32" y="87" type="line"/>
      <point x="66" y="150" type="line"/>
      <point x="199" y="89" type="line"/>
      <point x="408" y="407" type="line"/>
      <point x="205" y="715" type="line"/>
      <point x="72" y="655" type="line"/>
      <point x="38" y="717" type="line"/>
      <point x="246" y="808" type="line"/>
      <point x="453" y="482" type="line"/>
      <point x="661" y="808" type="line"/>
      <point x="868" y="717" type="line"/>
      <point x="835" y="655" type="line"/>
      <point x="701" y="715" type="line"/>
      <point x="499" y="407" type="line"/>
      <point x="707" y="89" type="line"/>
      <point x="841" y="150" type="line"/>
      <point x="874" y="87" type="line"/>
      <point x="667" y="-2" type="line"/>
    </contour>
  </outline>
</glyph>
<glyph name="u10C96" format="2">
  <advance width="1596"/>
  <unicode hex="10C96"/>
  <outline>
    <contour>
      <point x="662" y="943" type="qcurve" smooth="yes"/>
      <point x="236" y="3" type="line"/>
      <point x="36" y="3" type="line"/>
      <point x="718" y="1463" type="line"/>
      <point x="889" y="1463" type="line"/>
      <point x="1563" y="-1" type="line"/>
      <point x="1366" y="-1" type="line"/>
      <point x="1223" y="317" type="line"/>
      <point x="1079" y="2" type="line"/>
      <point x="903" y="2" type="line"/>
      <point x="1135" y="508" type="line"/>
      <point x="1015" y="772" type="line"/>
      <point x="666" y="-1" type="line"/>
      <point x="487" y="-1" type="line"/>
      <point x="923" y="972" type="line"/>
      <point x="887" y="1058"/>
      <point x="827" y="1202"/>
      <point x="805" y="1270" type="qcurve"/>
      <point x="797" y="1270" type="line"/>
      <point x="780" y="1222"/>
      <point x="739" y="1119" type="qcurve" smooth="yes"/>
      <point x="711" y="1050"/>
    </contour>
  </outline>
</glyph>
<glyph name="u10C97" format="2">
  <advance width="768"/>
  <unicode hex="10C97"/>
  <outline>
    <contour>
      <point x="431" y="0" type="qcurve"/>
      <point x="338" y="0" type="line"/>
      <point x="260" y="59"/>
      <point x="147" y="179"/>
      <point x="85" y="317"/>
      <point x="85" y="401" type="qcurve" smooth="yes"/>
      <point x="85" y="485"/>
      <point x="146" y="623"/>
      <point x="260" y="744"/>
      <point x="337" y="802" type="qcurve"/>
      <point x="431" y="802" type="line"/>
      <point x="509" y="744"/>
      <point x="622" y="623"/>
      <point x="683" y="485"/>
      <point x="683" y="401" type="qcurve" smooth="yes"/>
      <point x="683" y="317"/>
      <point x="622" y="179"/>
      <point x="509" y="59"/>
    </contour>
    <contour>
      <point x="208" y="263" type="qcurve"/>
      <point x="519" y="606" type="line"/>
      <point x="494" y="637"/>
      <point x="428" y="700"/>
      <point x="386" y="735" type="qcurve"/>
      <point x="382" y="735" type="line"/>
      <point x="314" y="678"/>
      <point x="223" y="576"/>
      <point x="178" y="468"/>
      <point x="178" y="401" type="qcurve" smooth="yes"/>
      <point x="178" y="325"/>
    </contour>
    <contour>
      <point x="382" y="68" type="qcurve"/>
      <point x="386" y="68" type="line"/>
      <point x="455" y="125"/>
      <point x="545" y="226"/>
      <point x="590" y="334"/>
      <point x="590" y="401" type="qcurve" smooth="yes"/>
      <point x="590" y="481"/>
      <point x="558" y="542" type="qcurve"/>
      <point x="250" y="197" type="line"/>
      <point x="275" y="165"/>
      <point x="341" y="103"/>
    </contour>
  </outline>
</glyph>
<glyph name="u10C98" format="2">
  <advance width="1210"/>
  <unicode hex="10C98"/>
  <outline>
    <contour>
      <point x="951" y="1465" type="line"/>
      <point x="951" y="4" type="line"/>
      <point x="761" y="4" type="line"/>
      <point x="204" y="378" type="line"/>
      <point x="204" y="541" type="line"/>
      <point x="574" y="715" type="line"/>
      <point x="204" y="942" type="line"/>
      <point x="204" y="1108" type="line"/>
      <point x="761" y="1465" type="line"/>
    </contour>
    <contour>
      <point x="771" y="1291" type="line"/>
      <point x="371" y="1022" type="line"/>
      <point x="771" y="782" type="line"/>
    </contour>
    <contour>
      <point x="771" y="640" type="line"/>
      <point x="371" y="448" type="line"/>
      <point x="771" y="172" type="line"/>
    </contour>
  </outline>
</glyph>
<glyph name="u10C99" format="2">
  <advance width="538"/>
  <unicode hex="10C99"/>
  <outline>
    <contour>
      <point x="118" y="-19" type="qcurve"/>
      <point x="67" y="47" type="line"/>
      <point x="174" y="110"/>
      <point x="302" y="218"/>
      <point x="358" y="329"/>
      <point x="358" y="397" type="qcurve" smooth="yes"/>
      <point x="358" y="447"/>
      <point x="328" y="533"/>
      <point x="260" y="613"/>
      <point x="146" y="701"/>
      <point x="62" y="752" type="qcurve"/>
      <point x="123" y="814" type="line"/>
      <point x="245" y="741"/>
      <point x="389" y="611"/>
      <point x="452" y="477"/>
      <point x="452" y="397" type="qcurve" smooth="yes"/>
      <point x="452" y="317"/>
      <point x="388" y="183"/>
      <point x="242" y="55"/>
    </contour>
  </outline>
</glyph>
<glyph name="u10C9A" format="2">
  <advance width="1261"/>
  <unicode hex="10C9A"/>
  <outline>
    <contour>
      <point x="423" y="1" type="qcurve"/>
      <point x="423" y="1"/>
      <point x="244" y="1" type="qcurve"/>
      <point x="244" y="1462" type="line"/>
      <point x="423" y="1462" type="line"/>
      <point x="674" y="1344"/>
      <point x="821" y="1233" type="qcurve" smooth="yes"/>
      <point x="971" y="1119"/>
      <point x="1111" y="873"/>
      <point x="1111" y="729" type="qcurve" smooth="yes"/>
      <point x="1111" y="584"/>
      <point x="973" y="337"/>
      <point x="671" y="117"/>
    </contour>
    <contour>
      <point x="423" y="1297" type="qcurve"/>
      <point x="423" y="175" type="line"/>
      <point x="603" y="263"/>
      <point x="821" y="426"/>
      <point x="872" y="521" type="qcurve" smooth="yes"/>
      <point x="923" y="617"/>
      <point x="923" y="729" type="qcurve" smooth="yes"/>
      <point x="923" y="843"/>
      <point x="825" y="1031"/>
      <point x="716" y="1117" type="qcurve" smooth="yes"/>
      <point x="606" y="1203"/>
    </contour>
  </outline>
</glyph>
<glyph name="u10C9B" format="2">
  <advance width="634"/>
  <unicode hex="10C9B"/>
  <outline>
    <contour>
      <point x="291" y="-17" type="qcurve"/>
      <point x="55" y="187" type="line"/>
      <point x="117" y="244" type="line"/>
      <point x="299" y="86" type="line"/>
      <point x="359" y="134"/>
      <point x="432" y="226"/>
      <point x="465" y="330"/>
      <point x="465" y="393" type="qcurve" smooth="yes"/>
      <point x="465" y="455"/>
      <point x="432" y="554"/>
      <point x="355" y="649"/>
      <point x="289" y="702" type="qcurve"/>
      <point x="117" y="553" type="line"/>
      <point x="55" y="610" type="line"/>
      <point x="291" y="814" type="line"/>
      <point x="389" y="739"/>
      <point x="507" y="607"/>
      <point x="559" y="474"/>
      <point x="559" y="393" type="qcurve" smooth="yes"/>
      <point x="559" y="306"/>
      <point x="500" y="169"/>
      <point x="381" y="47"/>
    </contour>
  </outline>
</glyph>
<glyph name="u10C9C" format="2">
  <advance width="658"/>
  <unicode hex="10C9C"/>
  <outline>
    <contour>
      <point x="311" y="-19" type="qcurve"/>
      <point x="37" y="232" type="line"/>
      <point x="241" y="443" type="line"/>
      <point x="301" y="384" type="line"/>
      <point x="159" y="239" type="line"/>
      <point x="319" y="89" type="line"/>
      <point x="407" y="164"/>
      <point x="482" y="304"/>
      <point x="482" y="390" type="qcurve" smooth="yes"/>
      <point x="482" y="457"/>
      <point x="439" y="566"/>
      <point x="339" y="678"/>
      <point x="251" y="747" type="qcurve"/>
      <point x="311" y="817" type="line"/>
      <point x="409" y="739"/>
      <point x="527" y="604"/>
      <point x="579" y="469"/>
      <point x="579" y="390" type="qcurve" smooth="yes"/>
      <point x="579" y="309"/>
      <point x="520" y="173"/>
      <point x="401" y="48"/>
    </contour>
  </outline>
</glyph>
<glyph name="u10C9D" format="2">
  <advance width="482"/>
  <unicode hex="10C9D"/>
  <outline>
    <contour>
      <point x="399" y="47" type="line"/>
      <point x="336" y="-17" type="line"/>
      <point x="71" y="274" type="line"/>
      <point x="293" y="522" type="line"/>
      <point x="76" y="750" type="line"/>
      <point x="140" y="814" type="line"/>
      <point x="411" y="527" type="line"/>
      <point x="190" y="278" type="line"/>
    </contour>
  </outline>
</glyph>
<glyph name="u10C9E" format="2">
  <advance width="1243"/>
  <unicode hex="10C9E"/>
  <outline>
    <contour>
      <point x="425" y="744" type="line"/>
      <point x="425" y="2" type="line"/>
      <point x="246" y="2" type="line"/>
      <point x="246" y="1463" type="line"/>
      <point x="425" y="1463" type="line"/>
      <point x="425" y="748" type="line"/>
      <point x="973" y="1464" type="line"/>
      <point x="1191" y="1464" type="line"/>
      <point x="632" y="754" type="line"/>
      <point x="1209" y="3" type="line"/>
      <point x="981" y="3" type="line"/>
    </contour>
  </outline>
</glyph>
<glyph name="u10C9F" format="2">
  <advance width="724"/>
  <unicode hex="10C9F"/>
  <outline>
    <contour>
      <point x="311" y="-19" type="qcurve"/>
      <point x="39" y="227" type="line"/>
      <point x="42" y="228" type="line"/>
      <point x="37" y="231" type="line"/>
      <point x="241" y="439" type="line"/>
      <point x="305" y="379" type="line"/>
      <point x="163" y="235" type="line"/>
      <point x="320" y="88" type="line"/>
      <point x="352" y="116"/>
      <point x="402" y="167"/>
      <point x="421" y="193" type="qcurve"/>
      <point x="364" y="241" type="line"/>
      <point x="412" y="293" type="line"/>
      <point x="458" y="255" type="line"/>
      <point x="485" y="317"/>
      <point x="485" y="388" type="qcurve" smooth="yes"/>
      <point x="485" y="461"/>
      <point x="456" y="524" type="qcurve"/>
      <point x="412" y="488" type="line"/>
      <point x="364" y="540" type="line"/>
      <point x="418" y="585" type="line"/>
      <point x="390" y="620"/>
      <point x="308" y="698"/>
      <point x="251" y="743" type="qcurve"/>
      <point x="311" y="812" type="line"/>
      <point x="369" y="766"/>
      <point x="457" y="684"/>
      <point x="488" y="644" type="qcurve"/>
      <point x="576" y="718" type="line"/>
      <point x="624" y="664" type="line"/>
      <point x="528" y="584" type="line"/>
      <point x="555" y="538"/>
      <point x="579" y="442"/>
      <point x="579" y="388" type="qcurve" smooth="yes"/>
      <point x="579" y="282"/>
      <point x="527" y="196" type="qcurve"/>
      <point x="627" y="113" type="line"/>
      <point x="579" y="61" type="line"/>
      <point x="486" y="139" type="line"/>
      <point x="454" y="100"/>
      <point x="367" y="22"/>
    </contour>
  </outline>
</glyph>
<glyph name="u10CA0" format="2">
  <advance width="1092"/>
  <unicode hex="10CA0"/>
  <outline>
    <contour>
      <point x="660" y="4" type="line"/>
      <point x="660" y="274" type="line"/>
      <point x="232" y="-36" type="line"/>
      <point x="122" y="68" type="line"/>
      <point x="660" y="472" type="line"/>
      <point x="660" y="760" type="line"/>
      <point x="232" y="449" type="line"/>
      <point x="122" y="552" type="line"/>
      <point x="660" y="960" type="line"/>
      <point x="660" y="1251" type="line"/>
      <point x="232" y="937" type="line"/>
      <point x="122" y="1041" type="line"/>
      <point x="678" y="1465" type="line"/>
      <point x="839" y="1465" type="line"/>
      <point x="839" y="4" type="line"/>
    </contour>
  </outline>
</glyph>
<glyph name="u10CA1" format="2">
  <advance width="2048"/>
  <unicode hex="10CA1"/>
  <outline>
    <contour>
      <point x="706" y="181" type="qcurve"/>
      <point x="706" y="181"/>
      <point x="469" y="-48" type="qcurve"/>
      <point x="339" y="56" type="line"/>
      <point x="598" y="288" type="line"/>
      <point x="536" y="361"/>
      <point x="451" y="514"/>
      <point x="429" y="600" type="qcurve"/>
      <point x="160" y="459" type="line"/>
      <point x="78" y="593" type="line"/>
      <point x="415" y="750" type="line"/>
      <point x="417" y="856"/>
      <point x="455" y="962" type="qcurve" smooth="yes"/>
      <point x="493" y="1069"/>
      <point x="584" y="1170" type="qcurve"/>
      <point x="580" y="1176" type="line"/>
      <point x="319" y="1059" type="line"/>
      <point x="242" y="1195" type="line"/>
      <point x="925" y="1471" type="line"/>
      <point x="1123" y="1471" type="line"/>
      <point x="1806" y="1195" type="line"/>
      <point x="1729" y="1059" type="line"/>
      <point x="1466" y="1176" type="line"/>
      <point x="1460" y="1170" type="line"/>
      <point x="1554" y="1070"/>
      <point x="1617" y="856"/>
      <point x="1619" y="750" type="qcurve"/>
      <point x="1956" y="593" type="line"/>
      <point x="1872" y="459" type="line"/>
      <point x="1603" y="600" type="line"/>
      <point x="1565" y="436"/>
      <point x="1436" y="288" type="qcurve"/>
      <point x="1707" y="56" type="line"/>
      <point x="1579" y="-48" type="line"/>
      <point x="1330" y="181" type="line"/>
      <point x="1281" y="138"/>
      <point x="1231" y="95" type="qcurve" smooth="yes"/>
      <point x="1180" y="51"/>
      <point x="1123" y="10" type="qcurve"/>
      <point x="927" y="10" type="line"/>
      <point x="894" y="31"/>
      <point x="811" y="95" type="qcurve"/>
      <point x="773" y="123"/>
    </contour>
    <contour>
      <point x="1023" y="137" type="qcurve"/>
      <point x="1031" y="137" type="line"/>
      <point x="1229" y="270"/>
      <point x="1446" y="559"/>
      <point x="1446" y="751" type="qcurve" smooth="yes"/>
      <point x="1446" y="936"/>
      <point x="1245" y="1230"/>
      <point x="1031" y="1339" type="qcurve"/>
      <point x="1023" y="1339" type="line"/>
      <point x="811" y="1230"/>
      <point x="608" y="937"/>
      <point x="608" y="751" type="qcurve" smooth="yes"/>
      <point x="608" y="558"/>
      <point x="827" y="270"/>
    </contour>
  </outline>
</glyph>
<glyph name="u10CA2" format="2">
  <advance width="832"/>
  <unicode hex="10CA2"/>
  <outline>
    <contour>
      <point x="220" y="2" type="line"/>
      <point x="130" y="2" type="line"/>
      <point x="130" y="802" type="line"/>
      <point x="220" y="802" type="line"/>
      <point x="220" y="325" type="line"/>
      <point x="613" y="573" type="line"/>
      <point x="613" y="802" type="line"/>
      <point x="703" y="802" type="line"/>
      <point x="703" y="2" type="line"/>
      <point x="613" y="2" type="line"/>
      <point x="613" y="480" type="line"/>
      <point x="220" y="237" type="line"/>
    </contour>
  </outline>
</glyph>
<glyph name="u10CA3" format="2">
  <advance width="1221"/>
  <unicode hex="10CA3"/>
  <outline>
    <contour>
      <point x="1025" y="1065" type="line"/>
      <point x="1109" y="917" type="line"/>
      <point x="186" y="373" type="line"/>
      <point x="104" y="520" type="line"/>
    </contour>
  </outline>
</glyph>
<glyph name="u10CA4" format="2">
  <advance width="724"/>
  <unicode hex="10CA4"/>
  <outline>
    <contour>
      <point x="108" y="0" type="line"/>
      <point x="13" y="0" type="line"/>
      <point x="320" y="802" type="line"/>
      <point x="411" y="802" type="line"/>
      <point x="712" y="0" type="line"/>
      <point x="617" y="0" type="line"/>
      <point x="424" y="518" type="line" smooth="yes"/>
      <point x="406" y="566"/>
      <point x="374" y="657"/>
      <point x="364" y="695" type="qcurve"/>
      <point x="360" y="695" type="line"/>
      <point x="350" y="657"/>
      <point x="318" y="566"/>
      <point x="299" y="516" type="qcurve" smooth="yes"/>
    </contour>
  </outline>
</glyph>
<glyph name="u10CA5" format="2">
  <advance width="679"/>
  <unicode hex="10CA5"/>
  <outline>
    <contour>
      <point x="427" y="1465" type="line"/>
      <point x="427" y="4" type="line"/>
      <point x="248" y="4" type="line"/>
      <point x="248" y="1465" type="line"/>
    </contour>
  </outline>
</glyph>
<glyph name="u10CA6" format="2">
  <advance width="567"/>
  <unicode hex="10CA6"/>
  <outline>
    <contour>
      <point x="446" y="-4" type="line"/>
      <point x="356" y="-4" type="line"/>
      <point x="356" y="320" type="line"/>
      <point x="10" y="759" type="line"/>
      <point x="82" y="804" type="line"/>
      <point x="356" y="449" type="line"/>
      <point x="356" y="780" type="line"/>
      <point x="446" y="780" type="line"/>
    </contour>
  </outline>
</glyph>
<glyph name="u10CA7" format="2">
  <advance width="1726"/>
  <unicode hex="10CA7"/>
  <outline>
    <contour>
      <point x="953" y="840" type="line"/>
      <point x="953" y="2" type="line"/>
      <point x="773" y="2" type="line"/>
      <point x="773" y="842" type="line"/>
      <point x="369" y="1243" type="line"/>
      <point x="152" y="1032" type="line"/>
      <point x="40" y="1141" type="line"/>
      <point x="375" y="1461" type="line"/>
      <point x="773" y="1060" type="line"/>
      <point x="773" y="1463" type="line"/>
      <point x="953" y="1463" type="line"/>
      <point x="953" y="1058" type="line"/>
      <point x="1354" y="1461" type="line"/>
      <point x="1689" y="1141" type="line"/>
      <point x="1575" y="1032" type="line"/>
      <point x="1358" y="1243" type="line"/>
    </contour>
  </outline>
</glyph>
<glyph name="u10CA8" format="2">
  <advance width="1377"/>
  <unicode hex="10CA8"/>
  <outline>
    <contour>
      <point x="933" y="297" type="line"/>
      <point x="726" y="0" type="line"/>
      <point x="534" y="0" type="line"/>
      <point x="830" y="428" type="line"/>
      <point x="674" y="643" type="line"/>
      <point x="216" y="2" type="line"/>
      <point x="8" y="2" type="line"/>
      <point x="581" y="755" type="line"/>
      <point x="44" y="1461" type="line"/>
      <point x="263" y="1461" type="line"/>
      <point x="453" y="1204" type="line"/>
      <point x="632" y="1461" type="line"/>
      <point x="823" y="1461" type="line"/>
      <point x="558" y="1074" type="line"/>
      <point x="690" y="891" type="line"/>
      <point x="1123" y="1461" type="line"/>
      <point x="1330" y="1461" type="line"/>
      <point x="796" y="766" type="line"/>
      <point x="1370" y="2" type="line"/>
      <point x="1147" y="2" type="line"/>
    </contour>
  </outline>
</glyph>
<glyph name="u10CA9" format="2">
  <advance width="1433"/>
  <unicode hex="10CA9"/>
  <outline>
    <contour>
      <point x="808" y="767" type="line"/>
      <point x="1330" y="124" type="line"/>
      <point x="1213" y="2" type="line"/>
      <point x="640" y="135" type="line"/>
      <point x="690" y="261" type="line"/>
      <point x="1091" y="160" type="line"/>
      <point x="704" y="641" type="line"/>
      <point x="210" y="3" type="line"/>
      <point x="10" y="3" type="line"/>
      <point x="605" y="751" type="line"/>
      <point x="40" y="1461" type="line"/>
      <point x="253" y="1461" type="line"/>
      <point x="712" y="881" type="line"/>
      <point x="1053" y="1300" type="line"/>
      <point x="648" y="1198" type="line"/>
      <point x="606" y="1322" type="line"/>
      <point x="1177" y="1460" type="line"/>
      <point x="1288" y="1377" type="line"/>
    </contour>
  </outline>
</glyph>
<glyph name="u10CAA" format="2">
  <advance width="885"/>
  <unicode hex="10CAA"/>
  <outline>
    <contour>
      <point x="212" y="-2" type="line"/>
      <point x="124" y="-2" type="line"/>
      <point x="124" y="799" type="line"/>
      <point x="212" y="799" type="line"/>
      <point x="437" y="635" type="line"/>
      <point x="662" y="799" type="line"/>
      <point x="750" y="799" type="line"/>
      <point x="750" y="-2" type="line"/>
      <point x="662" y="-2" type="line"/>
      <point x="437" y="163" type="line"/>
    </contour>
    <contour>
      <point x="214" y="698" type="line"/>
      <point x="214" y="99" type="line"/>
      <point x="437" y="257" type="line"/>
      <point x="660" y="99" type="line"/>
      <point x="660" y="698" type="line"/>
      <point x="437" y="540" type="line"/>
    </contour>
  </outline>
</glyph>
<glyph name="u10CAB" format="2">
  <advance width="1900"/>
  <unicode hex="10CAB"/>
  <outline>
    <contour>
      <point x="953" y="634" type="line"/>
      <point x="407" y="0" type="line"/>
      <point x="244" y="0" type="line"/>
      <point x="244" y="1461" type="line"/>
      <point x="407" y="1461" type="line"/>
      <point x="953" y="840" type="line"/>
      <point x="1506" y="1461" type="line"/>
      <point x="1669" y="1461" type="line"/>
      <point x="1669" y="0" type="line"/>
      <point x="1506" y="0" type="line"/>
    </contour>
    <contour>
      <point x="1495" y="235" type="line"/>
      <point x="1498" y="1246" type="line"/>
      <point x="1051" y="736" type="line"/>
    </contour>
    <contour>
      <point x="399" y="230" type="line"/>
      <point x="857" y="739" type="line"/>
      <point x="407" y="1221" type="line"/>
    </contour>
  </outline>
</glyph>
<glyph name="u10CAC" format="2">
  <advance width="769"/>
  <unicode hex="10CAC"/>
  <outline>
    <contour>
      <point x="218" y="102" type="qcurve"/>
      <point x="106" y="-17" type="line"/>
      <point x="41" y="40" type="line"/>
      <point x="165" y="163" type="line"/>
      <point x="127" y="215"/>
      <point x="85" y="332"/>
      <point x="85" y="401" type="qcurve" smooth="yes"/>
      <point x="85" y="470"/>
      <point x="127" y="587"/>
      <point x="165" y="640" type="qcurve"/>
      <point x="41" y="761" type="line"/>
      <point x="106" y="819" type="line"/>
      <point x="218" y="700" type="line"/>
      <point x="244" y="728"/>
      <point x="303" y="779"/>
      <point x="337" y="804" type="qcurve"/>
      <point x="431" y="804" type="line"/>
      <point x="465" y="778"/>
      <point x="526" y="727"/>
      <point x="551" y="700" type="qcurve"/>
      <point x="663" y="819" type="line"/>
      <point x="727" y="761" type="line"/>
      <point x="603" y="639" type="line"/>
      <point x="641" y="587"/>
      <point x="683" y="469"/>
      <point x="683" y="401" type="qcurve" smooth="yes"/>
      <point x="683" y="332"/>
      <point x="641" y="216"/>
      <point x="603" y="163" type="qcurve"/>
      <point x="728" y="40" type="line"/>
      <point x="663" y="-17" type="line"/>
      <point x="551" y="102" type="line"/>
      <point x="525" y="75"/>
      <point x="465" y="24"/>
      <point x="431" y="-2" type="qcurve"/>
      <point x="338" y="-2" type="line"/>
      <point x="304" y="24"/>
      <point x="244" y="75"/>
    </contour>
    <contour>
      <point x="382" y="67" type="qcurve"/>
      <point x="386" y="67" type="line"/>
      <point x="455" y="123"/>
      <point x="545" y="225"/>
      <point x="590" y="334"/>
      <point x="590" y="401" type="qcurve" smooth="yes"/>
      <point x="590" y="468"/>
      <point x="545" y="577"/>
      <point x="455" y="680"/>
      <point x="386" y="736" type="qcurve"/>
      <point x="382" y="736" type="line"/>
      <point x="314" y="680"/>
      <point x="223" y="577"/>
      <point x="178" y="468"/>
      <point x="178" y="401" type="qcurve" smooth="yes"/>
      <point x="178" y="334"/>
      <point x="223" y="225"/>
      <point x="314" y="123"/>
    </contour>
  </outline>
</glyph>
<glyph name="u10CAD" format="2">
  <advance width="1570"/>
  <unicode hex="10CAD"/>
  <outline>
    <contour>
      <point x="1310" y="1077" type="line"/>
      <point x="1310" y="2" type="line"/>
      <point x="1131" y="2" type="line"/>
      <point x="1131" y="873" type="line"/>
      <point x="439" y="363" type="line"/>
      <point x="259" y="363" type="line"/>
      <point x="259" y="1461" type="line"/>
      <point x="439" y="1461" type="line"/>
      <point x="439" y="558" type="line"/>
      <point x="1131" y="1077" type="line"/>
    </contour>
  </outline>
</glyph>
<glyph name="u10CAE" format="2">
  <advance width="1770"/>
  <unicode hex="10CAE"/>
  <outline>
    <contour>
      <point x="427" y="1263" type="line"/>
      <point x="427" y="4" type="line"/>
      <point x="248" y="4" type="line"/>
      <point x="248" y="1465" type="line"/>
      <point x="423" y="1465" type="line"/>
      <point x="871" y="1138" type="line"/>
      <point x="1320" y="1465" type="line"/>
      <point x="1496" y="1465" type="line"/>
      <point x="1496" y="4" type="line"/>
      <point x="1316" y="4" type="line"/>
      <point x="1316" y="1263" type="line"/>
      <point x="871" y="946" type="line"/>
    </contour>
  </outline>
</glyph>
<glyph name="u10CAF" format="2">
  <advance width="820"/>
  <unicode hex="10CAF"/>
  <outline>
    <contour>
      <point x="208" y="0" type="line"/>
      <point x="121" y="0" type="line"/>
      <point x="121" y="802" type="line"/>
      <point x="211" y="802" type="line"/>
      <point x="211" y="560" type="line"/>
      <point x="618" y="802" type="line"/>
      <point x="705" y="802" type="line"/>
      <point x="705" y="0" type="line"/>
      <point x="615" y="0" type="line"/>
      <point x="615" y="244" type="line"/>
    </contour>
    <contour>
      <point x="211" y="476" type="line"/>
      <point x="211" y="324" type="line"/>
      <point x="615" y="564" type="line"/>
      <point x="615" y="716" type="line"/>
    </contour>
    <contour>
      <point x="211" y="240" type="line"/>
      <point x="211" y="89" type="line"/>
      <point x="615" y="329" type="line"/>
      <point x="615" y="480" type="line"/>
    </contour>
  </outline>
</glyph>
<glyph name="u10CB0" format="2">
  <advance width="796"/>
  <unicode hex="10CB0"/>
  <outline>
    <contour>
      <point x="440" y="2" type="line"/>
      <point x="350" y="2" type="line"/>
      <point x="350" y="345" type="line"/>
      <point x="10" y="782" type="line"/>
      <point x="84" y="830" type="line"/>
      <point x="350" y="479" type="line"/>
      <point x="350" y="804" type="line"/>
      <point x="440" y="804" type="line"/>
      <point x="440" y="479" type="line"/>
      <point x="706" y="830" type="line"/>
      <point x="780" y="782" type="line"/>
      <point x="440" y="345" type="line"/>
    </contour>
  </outline>
</glyph>
<glyph name="u10CB1" format="2">
  <advance width="866"/>
  <unicode hex="10CB1"/>
  <outline>
    <contour>
      <point x="477" y="0" type="line"/>
      <point x="387" y="0" type="line"/>
      <point x="185" y="201" type="line"/>
      <point x="76" y="93" type="line"/>
      <point x="20" y="150" type="line"/>
      <point x="188" y="309" type="line"/>
      <point x="387" y="106" type="line"/>
      <point x="387" y="252" type="line"/>
      <point x="185" y="453" type="line"/>
      <point x="76" y="345" type="line"/>
      <point x="20" y="401" type="line"/>
      <point x="188" y="561" type="line"/>
      <point x="387" y="359" type="line"/>
      <point x="387" y="504" type="line"/>
      <point x="185" y="705" type="line"/>
      <point x="76" y="598" type="line"/>
      <point x="20" y="654" type="line"/>
      <point x="188" y="814" type="line"/>
      <point x="387" y="611" type="line"/>
      <point x="387" y="805" type="line"/>
      <point x="477" y="805" type="line"/>
      <point x="477" y="611" type="line"/>
      <point x="677" y="814" type="line"/>
      <point x="845" y="654" type="line"/>
      <point x="788" y="598" type="line"/>
      <point x="679" y="705" type="line"/>
      <point x="477" y="504" type="line"/>
      <point x="477" y="359" type="line"/>
      <point x="677" y="561" type="line"/>
      <point x="845" y="401" type="line"/>
      <point x="788" y="345" type="line"/>
      <point x="679" y="453" type="line"/>
      <point x="477" y="252" type="line"/>
      <point x="477" y="106" type="line"/>
      <point x="677" y="309" type="line"/>
      <point x="845" y="150" type="line"/>
      <point x="788" y="93" type="line"/>
      <point x="679" y="201" type="line"/>
    </contour>
  </outline>
</glyph>
<glyph name="u10CB2" format="2">
  <advance width="1533"/>
  <unicode hex="10CB2"/>
  <outline>
    <contour>
      <point x="865" y="4" type="qcurve"/>
      <point x="865" y="4"/>
      <point x="668" y="4" type="qcurve"/>
      <point x="514" y="112"/>
      <point x="399" y="221" type="qcurve" smooth="yes"/>
      <point x="283" y="331"/>
      <point x="156" y="581"/>
      <point x="156" y="734" type="qcurve" smooth="yes"/>
      <point x="156" y="888"/>
      <point x="283" y="1139"/>
      <point x="515" y="1359"/>
      <point x="668" y="1465" type="qcurve"/>
      <point x="865" y="1465" type="line"/>
      <point x="1021" y="1359"/>
      <point x="1136" y="1249" type="qcurve" smooth="yes"/>
      <point x="1251" y="1138"/>
      <point x="1378" y="888"/>
      <point x="1378" y="734" type="qcurve" smooth="yes"/>
      <point x="1378" y="580"/>
      <point x="1251" y="331"/>
      <point x="1136" y="221" type="qcurve" smooth="yes"/>
      <point x="1021" y="112"/>
    </contour>
    <contour>
      <point x="682" y="177" type="qcurve"/>
      <point x="682" y="1293" type="line"/>
      <point x="568" y="1202"/>
      <point x="494" y="1116" type="qcurve" smooth="yes"/>
      <point x="419" y="1030"/>
      <point x="345" y="846"/>
      <point x="345" y="734" type="qcurve" smooth="yes"/>
      <point x="345" y="622"/>
      <point x="419" y="440"/>
      <point x="568" y="270"/>
    </contour>
    <contour>
      <point x="851" y="1293" type="qcurve"/>
      <point x="851" y="178" type="line"/>
      <point x="968" y="274"/>
      <point x="1040" y="355" type="qcurve" smooth="yes"/>
      <point x="1115" y="440"/>
      <point x="1187" y="623"/>
      <point x="1187" y="734" type="qcurve" smooth="yes"/>
      <point x="1187" y="846"/>
      <point x="1115" y="1030"/>
      <point x="965" y="1202"/>
    </contour>
  </outline>
</glyph>
<glyph name="u10CC0" format="2">
  <advance width="885"/>
  <unicode hex="10CC0"/>
  <outline>
    <contour>
      <point x="696" y="1100" type="line"/>
      <point x="696" y="2" type="line"/>
      <point x="522" y="2" type="line"/>
      <point x="522" y="558" type="line"/>
      <point x="64" y="558" type="line"/>
      <point x="64" y="749" type="line"/>
      <point x="459" y="1100" type="line"/>
    </contour>
    <contour>
      <point x="522" y="964" type="line"/>
      <point x="216" y="699" type="line"/>
      <point x="522" y="696" type="line"/>
    </contour>
  </outline>
</glyph>
<glyph name="u10CC1" format="2">
  <advance width="433"/>
  <unicode hex="10CC1"/>
  <outline>
    <contour>
      <point x="338" y="0" type="line"/>
      <point x="251" y="0" type="line"/>
      <point x="251" y="164" type="line"/>
      <point x="42" y="334" type="line"/>
      <point x="42" y="414" type="line"/>
      <point x="253" y="600" type="line"/>
      <point x="338" y="600" type="line"/>
    </contour>
    <contour>
      <point x="118" y="375" type="line"/>
      <point x="251" y="268" type="line"/>
      <point x="251" y="495" type="line"/>
    </contour>
  </outline>
</glyph>
<glyph name="u10CC2" format="2">
  <advance width="1071"/>
  <unicode hex="10CC2"/>
  <outline>
    <contour>
      <point x="532" y="466" type="line"/>
      <point x="208" y="2" type="line"/>
      <point x="20" y="2" type="line"/>
      <point x="433" y="572" type="line"/>
      <point x="44" y="1100" type="line"/>
      <point x="242" y="1100" type="line"/>
      <point x="538" y="683" type="line"/>
      <point x="835" y="1100" type="line"/>
      <point x="1023" y="1100" type="line"/>
      <point x="640" y="576" type="line"/>
      <point x="1053" y="2" type="line"/>
      <point x="851" y="2" type="line"/>
    </contour>
  </outline>
</glyph>
<glyph name="u10CC3" format="2">
  <advance width="1497"/>
  <unicode hex="10CC3"/>
  <outline>
    <contour>
      <point x="512" y="141" type="qcurve"/>
      <point x="512" y="141"/>
      <point x="385" y="3" type="qcurve"/>
      <point x="80" y="124" type="line"/>
      <point x="140" y="245" type="line"/>
      <point x="339" y="158" type="line"/>
      <point x="415" y="247" type="line"/>
      <point x="365" y="315"/>
      <point x="309" y="468"/>
      <point x="309" y="555" type="qcurve" smooth="yes"/>
      <point x="309" y="641"/>
      <point x="365" y="793"/>
      <point x="415" y="861" type="qcurve"/>
      <point x="339" y="950" type="line"/>
      <point x="140" y="861" type="line"/>
      <point x="80" y="986" type="line"/>
      <point x="385" y="1106" type="line"/>
      <point x="511" y="968" type="line"/>
      <point x="551" y="1005"/>
      <point x="636" y="1067"/>
      <point x="684" y="1102" type="qcurve"/>
      <point x="821" y="1102" type="line"/>
      <point x="867" y="1069"/>
      <point x="953" y="1007"/>
      <point x="991" y="972" type="qcurve"/>
      <point x="1115" y="1106" type="line"/>
      <point x="1418" y="986" type="line"/>
      <point x="1362" y="861" type="line"/>
      <point x="1159" y="950" type="line"/>
      <point x="1087" y="867" type="line"/>
      <point x="1141" y="799"/>
      <point x="1199" y="645"/>
      <point x="1199" y="555" type="qcurve" smooth="yes"/>
      <point x="1199" y="465"/>
      <point x="1141" y="313"/>
      <point x="1087" y="243" type="qcurve"/>
      <point x="1159" y="158" type="line"/>
      <point x="1362" y="245" type="line"/>
      <point x="1418" y="124" type="line"/>
      <point x="1115" y="3" type="line"/>
      <point x="991" y="139" type="line"/>
      <point x="953" y="104"/>
      <point x="867" y="38"/>
      <point x="821" y="5" type="qcurve"/>
      <point x="684" y="5" type="line"/>
      <point x="588" y="71"/>
    </contour>
    <contour>
      <point x="752" y="123" type="qcurve"/>
      <point x="756" y="123" type="line"/>
      <point x="900" y="235"/>
      <point x="1033" y="427"/>
      <point x="1033" y="555" type="qcurve" smooth="yes"/>
      <point x="1033" y="684"/>
      <point x="897" y="876"/>
      <point x="756" y="988" type="qcurve"/>
      <point x="752" y="988" type="line"/>
      <point x="656" y="913"/>
      <point x="532" y="780"/>
      <point x="475" y="641"/>
      <point x="475" y="555" type="qcurve" smooth="yes"/>
      <point x="475" y="467"/>
      <point x="534" y="328"/>
      <point x="656" y="198"/>
    </contour>
  </outline>
</glyph>
<glyph name="u10CC4" format="2">
  <advance width="447"/>
  <unicode hex="10CC4"/>
  <outline>
    <contour>
      <point x="267" y="0" type="line"/>
      <point x="180" y="0" type="line"/>
      <point x="180" y="488" type="line"/>
      <point x="53" y="376" type="line"/>
      <point x="4" y="434" type="line"/>
      <point x="195" y="600" type="line"/>
      <point x="252" y="600" type="line"/>
      <point x="443" y="434" type="line"/>
      <point x="394" y="376" type="line"/>
      <point x="267" y="488" type="line"/>
    </contour>
  </outline>
</glyph>
<glyph name="u10CC5" format="2">
  <advance width="891"/>
  <unicode hex="10CC5"/>
  <outline>
    <contour>
      <point x="883" y="306" type="line"/>
      <point x="503" y="2" type="line"/>
      <point x="389" y="2" type="line"/>
      <point x="8" y="306" type="line"/>
      <point x="106" y="413" type="line"/>
      <point x="359" y="208" type="line"/>
      <point x="359" y="897" type="line"/>
      <point x="106" y="692" type="line"/>
      <point x="8" y="795" type="line"/>
      <point x="389" y="1100" type="line"/>
      <point x="503" y="1100" type="line"/>
      <point x="883" y="795" type="line"/>
      <point x="785" y="692" type="line"/>
      <point x="532" y="897" type="line"/>
      <point x="532" y="208" type="line"/>
      <point x="785" y="413" type="line"/>
    </contour>
  </outline>
</glyph>
<glyph name="u10CC6" format="2">
  <advance width="615"/>
  <unicode hex="10CC6"/>
  <outline>
    <contour>
      <point x="171" y="0" type="line"/>
      <point x="95" y="0" type="line"/>
      <point x="95" y="600" type="line"/>
      <point x="180" y="600" type="line"/>
      <point x="180" y="428" type="line"/>
      <point x="444" y="600" type="line"/>
      <point x="520" y="600" type="line"/>
      <point x="520" y="0" type="line"/>
      <point x="435" y="0" type="line"/>
      <point x="435" y="170" type="line"/>
    </contour>
    <contour>
      <point x="180" y="343" type="line"/>
      <point x="180" y="91" type="line"/>
      <point x="435" y="255" type="line"/>
      <point x="435" y="510" type="line"/>
    </contour>
  </outline>
</glyph>
<glyph name="u10CC7" format="2">
  <advance width="871"/>
  <unicode hex="10CC7"/>
  <outline>
    <contour>
      <point x="522" y="534" type="line"/>
      <point x="522" y="2" type="line"/>
      <point x="349" y="2" type="line"/>
      <point x="349" y="452" type="line"/>
      <point x="120" y="343" type="line"/>
      <point x="52" y="463" type="line"/>
      <point x="349" y="604" type="line"/>
      <point x="349" y="1100" type="line"/>
      <point x="522" y="1100" type="line"/>
      <point x="522" y="688" type="line"/>
      <point x="754" y="798" type="line"/>
      <point x="819" y="673" type="line"/>
    </contour>
  </outline>
</glyph>
<glyph name="u10CC8" format="2">
  <advance width="538"/>
  <unicode hex="10CC8"/>
  <outline>
    <contour>
      <point x="104" y="0" type="line"/>
      <point x="10" y="0" type="line"/>
      <point x="178" y="252" type="line"/>
      <point x="56" y="217" type="line"/>
      <point x="33" y="278" type="line"/>
      <point x="206" y="328" type="line"/>
      <point x="22" y="600" type="line"/>
      <point x="121" y="600" type="line"/>
      <point x="270" y="371" type="line"/>
      <point x="419" y="600" type="line"/>
      <point x="513" y="600" type="line"/>
      <point x="361" y="372" type="line"/>
      <point x="481" y="407" type="line"/>
      <point x="496" y="343" type="line"/>
      <point x="332" y="296" type="line"/>
      <point x="528" y="0" type="line"/>
      <point x="427" y="0" type="line"/>
      <point x="267" y="253" type="line"/>
    </contour>
  </outline>
</glyph>
<glyph name="u10CC9" format="2">
  <advance width="411"/>
  <unicode hex="10CC9"/>
  <outline>
    <contour>
      <point x="354" y="33" type="line"/>
      <point x="311" y="-27" type="line"/>
      <point x="226" y="51" type="line"/>
      <point x="171" y="16"/>
      <point x="91" y="-20" type="qcurve"/>
      <point x="54" y="47" type="line"/>
      <point x="120" y="76"/>
      <point x="166" y="104" type="qcurve"/>
      <point x="90" y="174" type="line"/>
      <point x="138" y="229" type="line"/>
      <point x="227" y="148" type="line"/>
      <point x="265" y="181"/>
      <point x="294" y="254"/>
      <point x="294" y="300" type="qcurve" smooth="yes"/>
      <point x="294" y="344"/>
      <point x="265" y="414"/>
      <point x="227" y="446" type="qcurve"/>
      <point x="138" y="365" type="line"/>
      <point x="90" y="420" type="line"/>
      <point x="167" y="490" type="line"/>
      <point x="143" y="504"/>
      <point x="85" y="535"/>
      <point x="50" y="551" type="qcurve"/>
      <point x="95" y="618" type="line"/>
      <point x="175" y="581"/>
      <point x="229" y="546" type="qcurve"/>
      <point x="311" y="621" type="line"/>
      <point x="354" y="561" type="line"/>
      <point x="289" y="502" type="line"/>
      <point x="339" y="459"/>
      <point x="383" y="362"/>
      <point x="383" y="300" type="qcurve" smooth="yes"/>
      <point x="383" y="237"/>
      <point x="337" y="139"/>
      <point x="286" y="95" type="qcurve"/>
    </contour>
  </outline>
</glyph>
<glyph name="u10CCA" format="2">
  <advance width="853"/>
  <unicode hex="10CCA"/>
  <outline>
    <contour>
      <point x="182" y="4" type="qcurve"/>
      <point x="182" y="4"/>
      <point x="108" y="120" type="qcurve"/>
      <point x="168" y="144"/>
      <point x="269" y="187"/>
      <point x="313" y="210" type="qcurve"/>
      <point x="215" y="285"/>
      <point x="130" y="451"/>
      <point x="130" y="556" type="qcurve" smooth="yes"/>
      <point x="130" y="658"/>
      <point x="216" y="823"/>
      <point x="307" y="895" type="qcurve"/>
      <point x="263" y="917"/>
      <point x="162" y="964"/>
      <point x="100" y="989" type="qcurve"/>
      <point x="190" y="1102" type="line"/>
      <point x="340" y="1043"/>
      <point x="447" y="983" type="qcurve"/>
      <point x="555" y="1044"/>
      <point x="704" y="1102" type="qcurve"/>
      <point x="793" y="989" type="line"/>
      <point x="731" y="965"/>
      <point x="630" y="918"/>
      <point x="586" y="895" type="qcurve"/>
      <point x="680" y="822"/>
      <point x="764" y="658"/>
      <point x="764" y="556" type="qcurve" smooth="yes"/>
      <point x="764" y="450"/>
      <point x="678" y="284"/>
      <point x="580" y="210" type="qcurve"/>
      <point x="624" y="188"/>
      <point x="726" y="144"/>
      <point x="785" y="120" type="qcurve"/>
      <point x="712" y="4" type="line"/>
      <point x="554" y="67"/>
      <point x="447" y="125" type="qcurve"/>
      <point x="340" y="67"/>
    </contour>
    <contour>
      <point x="447" y="319" type="qcurve"/>
      <point x="525" y="378"/>
      <point x="586" y="505"/>
      <point x="586" y="584" type="qcurve" smooth="yes"/>
      <point x="586" y="662"/>
      <point x="524" y="784"/>
      <point x="447" y="841" type="qcurve"/>
      <point x="369" y="784"/>
      <point x="307" y="663"/>
      <point x="307" y="505"/>
      <point x="369" y="378"/>
    </contour>
  </outline>
</glyph>
<glyph name="u10CCB" format="2">
  <advance width="354"/>
  <unicode hex="10CCB"/>
  <outline>
    <contour>
      <point x="247" y="20" type="line"/>
      <point x="196" y="-41" type="line"/>
      <point x="34" y="97" type="line"/>
      <point x="104" y="137" type="line"/>
      <point x="168" y="178"/>
      <point x="223" y="256"/>
      <point x="223" y="300" type="qcurve" smooth="yes"/>
      <point x="223" y="346"/>
      <point x="161" y="428"/>
      <point x="90" y="471" type="qcurve"/>
      <point x="34" y="502" type="line"/>
      <point x="196" y="639" type="line"/>
      <point x="247" y="580" type="line"/>
      <point x="166" y="514" type="line"/>
      <point x="244" y="462"/>
      <point x="309" y="362"/>
      <point x="309" y="300" type="qcurve" smooth="yes"/>
      <point x="309" y="238"/>
      <point x="244" y="137"/>
      <point x="167" y="86" type="qcurve"/>
    </contour>
  </outline>
</glyph>
<glyph name="u10CCC" format="2">
  <advance width="556"/>
  <unicode hex="10CCC"/>
  <outline>
    <contour>
      <point x="312" y="0" type="qcurve"/>
      <point x="243" y="0" type="line"/>
      <point x="158" y="64"/>
      <point x="55" y="206"/>
      <point x="55" y="300" type="qcurve" smooth="yes"/>
      <point x="55" y="394"/>
      <point x="158" y="536"/>
      <point x="243" y="600" type="qcurve"/>
      <point x="312" y="600" type="line"/>
      <point x="397" y="536"/>
      <point x="501" y="394"/>
      <point x="501" y="300" type="qcurve" smooth="yes"/>
      <point x="501" y="206"/>
      <point x="397" y="64"/>
    </contour>
    <contour>
      <point x="190" y="450" type="qcurve"/>
      <point x="278" y="349" type="line"/>
      <point x="366" y="449" type="line"/>
      <point x="350" y="470"/>
      <point x="306" y="513"/>
      <point x="279" y="536" type="qcurve"/>
      <point x="277" y="536" type="line"/>
      <point x="250" y="513"/>
      <point x="207" y="470"/>
    </contour>
    <contour>
      <point x="154" y="207" type="qcurve"/>
      <point x="234" y="298" type="line"/>
      <point x="154" y="392" type="line"/>
      <point x="136" y="350"/>
      <point x="136" y="300" type="qcurve" smooth="yes"/>
      <point x="136" y="249"/>
    </contour>
    <contour>
      <point x="322" y="298" type="line"/>
      <point x="402" y="208" type="line"/>
      <point x="420" y="250"/>
      <point x="420" y="300" type="qcurve" smooth="yes"/>
      <point x="420" y="349"/>
      <point x="402" y="391" type="qcurve"/>
    </contour>
    <contour>
      <point x="277" y="64" type="qcurve"/>
      <point x="279" y="64" type="line"/>
      <point x="332" y="108"/>
      <point x="364" y="147" type="qcurve"/>
      <point x="278" y="247" type="line"/>
      <point x="192" y="147" type="line"/>
      <point x="224" y="108"/>
    </contour>
  </outline>
</glyph>
<glyph name="u10CCD" format="2">
  <advance width="1125"/>
  <unicode hex="10CCD"/>
  <outline>
    <contour>
      <point x="477" y="681" type="qcurve" smooth="yes"/>
      <point x="184" y="0" type="line"/>
      <point x="10" y="0" type="line"/>
      <point x="493" y="1098" type="line"/>
      <point x="634" y="1098" type="line"/>
      <point x="1119" y="0" type="line"/>
      <point x="941" y="0" type="line"/>
      <point x="764" y="413" type="line"/>
      <point x="598" y="0" type="line"/>
      <point x="425" y="0" type="line"/>
      <point x="680" y="605" type="line"/>
      <point x="648" y="681" type="line" smooth="yes"/>
      <point x="621" y="746"/>
      <point x="600" y="806" type="qcurve" smooth="yes"/>
      <point x="580" y="864"/>
      <point x="568" y="910" type="qcurve"/>
      <point x="560" y="910" type="line"/>
      <point x="548" y="862"/>
      <point x="530" y="812" type="qcurve" smooth="yes"/>
      <point x="514" y="767"/>
    </contour>
  </outline>
</glyph>
<glyph name="u10CCE" format="2">
  <advance width="897"/>
  <unicode hex="10CCE"/>
  <outline>
    <contour>
      <point x="538" y="341" type="line"/>
      <point x="538" y="2" type="line"/>
      <point x="365" y="2" type="line"/>
      <point x="365" y="260" type="line"/>
      <point x="134" y="142" type="line"/>
      <point x="64" y="255" type="line"/>
      <point x="365" y="411" type="line"/>
      <point x="365" y="604" type="line"/>
      <point x="134" y="482" type="line"/>
      <point x="64" y="596" type="line"/>
      <point x="365" y="752" type="line"/>
      <point x="365" y="1100" type="line"/>
      <point x="538" y="1100" type="line"/>
      <point x="538" y="834" type="line"/>
      <point x="781" y="960" type="line"/>
      <point x="839" y="844" type="line"/>
      <point x="538" y="685" type="line"/>
      <point x="538" y="495" type="line"/>
      <point x="781" y="618" type="line"/>
      <point x="839" y="502" type="line"/>
    </contour>
  </outline>
</glyph>
<glyph name="u10CCF" format="2">
  <advance width="1067"/>
  <unicode hex="10CCF"/>
  <outline>
    <contour>
      <point x="534" y="196" type="line"/>
      <point x="303" y="3" type="line"/>
      <point x="88" y="3" type="line"/>
      <point x="425" y="285" type="line"/>
      <point x="80" y="573" type="line"/>
      <point x="425" y="837" type="line"/>
      <point x="84" y="1101" type="line"/>
      <point x="301" y="1101" type="line"/>
      <point x="534" y="922" type="line"/>
      <point x="769" y="1101" type="line"/>
      <point x="985" y="1101" type="line"/>
      <point x="646" y="837" type="line"/>
      <point x="989" y="573" type="line"/>
      <point x="644" y="285" type="line"/>
      <point x="981" y="3" type="line"/>
      <point x="767" y="3" type="line"/>
    </contour>
    <contour>
      <point x="534" y="749" type="line"/>
      <point x="309" y="571" type="line"/>
      <point x="534" y="379" type="line"/>
      <point x="764" y="571" type="line"/>
    </contour>
  </outline>
</glyph>
<glyph name="u10CD0" format="2">
  <advance width="452"/>
  <unicode hex="10CD0"/>
  <outline>
    <contour>
      <point x="270" y="0" type="line"/>
      <point x="183" y="0" type="line"/>
      <point x="183" y="362" type="line"/>
      <point x="67" y="297" type="line"/>
      <point x="32" y="359" type="line"/>
      <point x="183" y="442" type="line"/>
      <point x="183" y="600" type="line"/>
      <point x="270" y="600" type="line"/>
      <point x="270" y="490" type="line"/>
      <point x="392" y="557" type="line"/>
      <point x="421" y="494" type="line"/>
      <point x="270" y="410" type="line"/>
    </contour>
  </outline>
</glyph>
<glyph name="u10CD1" format="2">
  <advance width="839"/>
  <unicode hex="10CD1"/>
  <outline>
    <contour>
      <point x="544" y="970" type="line"/>
      <point x="544" y="4" type="line"/>
      <point x="371" y="4" type="line"/>
      <point x="371" y="885" type="line"/>
      <point x="86" y="749" type="line"/>
      <point x="16" y="856" type="line"/>
      <point x="781" y="1220" type="line"/>
      <point x="839" y="1111" type="line"/>
    </contour>
  </outline>
</glyph>
<glyph name="u10CD2" format="2">
  <advance width="811"/>
  <unicode hex="10CD2"/>
  <outline>
    <contour>
      <point x="622" y="1100" type="line"/>
      <point x="622" y="2" type="line"/>
      <point x="449" y="2" type="line"/>
      <point x="449" y="889" type="line"/>
      <point x="130" y="606" type="line"/>
      <point x="22" y="702" type="line"/>
      <point x="469" y="1100" type="line"/>
    </contour>
  </outline>
</glyph>
<glyph name="u10CD3" format="2">
  <advance width="983"/>
  <unicode hex="10CD3"/>
  <outline>
    <contour>
      <point x="917" y="557" type="line"/>
      <point x="568" y="3" type="line"/>
      <point x="417" y="3" type="line"/>
      <point x="66" y="557" type="line"/>
      <point x="417" y="1101" type="line"/>
      <point x="568" y="1101" type="line"/>
    </contour>
    <contour>
      <point x="493" y="948" type="line"/>
      <point x="246" y="556" type="line"/>
      <point x="493" y="156" type="line"/>
      <point x="738" y="556" type="line"/>
    </contour>
  </outline>
</glyph>
<glyph name="u10CD4" format="2">
  <advance width="935"/>
  <unicode hex="10CD4"/>
  <outline>
    <contour>
      <point x="905" y="304" type="line"/>
      <point x="524" y="0" type="line"/>
      <point x="381" y="0" type="line"/>
      <point x="381" y="892" type="line"/>
      <point x="128" y="687" type="line"/>
      <point x="30" y="793" type="line"/>
      <point x="411" y="1098" type="line"/>
      <point x="554" y="1098" type="line"/>
      <point x="554" y="206" type="line"/>
      <point x="807" y="411" type="line"/>
    </contour>
  </outline>
</glyph>
<glyph name="u10CD5" format="2">
  <advance width="1365"/>
  <unicode hex="10CD5"/>
  <outline>
    <contour>
      <point x="979" y="3" type="line"/>
      <point x="684" y="436" type="line"/>
      <point x="387" y="3" type="line"/>
      <point x="56" y="132" type="line"/>
      <point x="118" y="245" type="line"/>
      <point x="309" y="168" type="line"/>
      <point x="588" y="561" type="line"/>
      <point x="317" y="936" type="line"/>
      <point x="128" y="856" type="line"/>
      <point x="66" y="971" type="line"/>
      <point x="395" y="1102" type="line"/>
      <point x="684" y="683" type="line"/>
      <point x="969" y="1101" type="line"/>
      <point x="1302" y="972" type="line"/>
      <point x="1241" y="857" type="line"/>
      <point x="1049" y="936" type="line"/>
      <point x="779" y="561" type="line"/>
      <point x="1059" y="168" type="line"/>
      <point x="1249" y="245" type="line"/>
      <point x="1310" y="132" type="line"/>
    </contour>
  </outline>
</glyph>
<glyph name="u10CD6" format="2">
  <advance width="612"/>
  <unicode hex="10CD6"/>
  <outline>
    <contour>
      <point x="90" y="0" type="line"/>
      <point x="5" y="0" type="line"/>
      <point x="270" y="600" type="line"/>
      <point x="341" y="600" type="line"/>
      <point x="607" y="0" type="line"/>
      <point x="519" y="0" type="line"/>
      <point x="468" y="117" type="line"/>
      <point x="423" y="0" type="line"/>
      <point x="339" y="0" type="line"/>
      <point x="426" y="212" type="line"/>
      <point x="385" y="305" type="line"/>
      <point x="257" y="0" type="line"/>
      <point x="173" y="0" type="line"/>
      <point x="344" y="399" type="line"/>
      <point x="333" y="428"/>
      <point x="314" y="479"/>
      <point x="308" y="498" type="qcurve"/>
      <point x="304" y="498" type="line"/>
      <point x="297" y="474"/>
      <point x="274" y="414"/>
      <point x="255" y="371" type="qcurve" smooth="yes"/>
    </contour>
  </outline>
</glyph>
<glyph name="u10CD7" format="2">
  <advance width="1107"/>
  <unicode hex="10CD7"/>
  <outline>
    <contour>
      <point x="622" y="2" type="qcurve"/>
      <point x="622" y="2"/>
      <point x="485" y="2" type="qcurve"/>
      <point x="315" y="120"/>
      <point x="110" y="380"/>
      <point x="110" y="552" type="qcurve" smooth="yes"/>
      <point x="110" y="725"/>
      <point x="315" y="982"/>
      <point x="485" y="1100" type="qcurve"/>
      <point x="622" y="1100" type="line"/>
      <point x="792" y="982"/>
      <point x="999" y="724"/>
      <point x="999" y="552" type="qcurve" smooth="yes"/>
      <point x="999" y="379"/>
      <point x="792" y="120"/>
    </contour>
    <contour>
      <point x="309" y="384" type="qcurve"/>
      <point x="730" y="823" type="line"/>
      <point x="675" y="888"/>
      <point x="556" y="982" type="qcurve"/>
      <point x="552" y="982" type="line"/>
      <point x="456" y="907"/>
      <point x="333" y="777"/>
      <point x="275" y="639"/>
      <point x="275" y="552" type="qcurve" smooth="yes"/>
      <point x="275" y="463"/>
    </contour>
    <contour>
      <point x="552" y="120" type="qcurve"/>
      <point x="556" y="120" type="line"/>
      <point x="700" y="232"/>
      <point x="833" y="424"/>
      <point x="833" y="552" type="qcurve" smooth="yes"/>
      <point x="833" y="638"/>
      <point x="799" y="715" type="qcurve"/>
      <point x="385" y="271" type="line"/>
      <point x="417" y="234"/>
      <point x="500" y="160"/>
    </contour>
  </outline>
</glyph>
<glyph name="u10CD8" format="2">
  <advance width="959"/>
  <unicode hex="10CD8"/>
  <outline>
    <contour>
      <point x="769" y="1099" type="line"/>
      <point x="769" y="1" type="line"/>
      <point x="612" y="1" type="line"/>
      <point x="96" y="243" type="line"/>
      <point x="96" y="425" type="line"/>
      <point x="379" y="554" type="line"/>
      <point x="96" y="695" type="line"/>
      <point x="96" y="876" type="line"/>
      <point x="604" y="1099" type="line"/>
    </contour>
    <contour>
      <point x="610" y="941" type="line"/>
      <point x="242" y="779" type="line"/>
      <point x="610" y="585" type="line"/>
    </contour>
    <contour>
      <point x="610" y="522" type="line"/>
      <point x="242" y="340" type="line"/>
      <point x="610" y="172" type="line"/>
    </contour>
  </outline>
</glyph>
<glyph name="u10CD9" format="2">
  <advance width="837"/>
  <unicode hex="10CD9"/>
  <outline>
    <contour>
      <point x="146" y="4" type="qcurve"/>
      <point x="146" y="4"/>
      <point x="72" y="120" type="qcurve"/>
      <point x="260" y="193"/>
      <point x="467" y="321"/>
      <point x="550" y="463"/>
      <point x="550" y="556" type="qcurve" smooth="yes"/>
      <point x="550" y="643"/>
      <point x="467" y="778"/>
      <point x="256" y="908"/>
      <point x="64" y="986" type="qcurve"/>
      <point x="154" y="1102" type="line"/>
      <point x="362" y="1019"/>
      <point x="612" y="858"/>
      <point x="728" y="672"/>
      <point x="728" y="556" type="qcurve" smooth="yes"/>
      <point x="728" y="435"/>
      <point x="612" y="250"/>
      <point x="358" y="87"/>
    </contour>
  </outline>
</glyph>
<glyph name="u10CDA" format="2">
  <advance width="490"/>
  <unicode hex="10CDA"/>
  <outline>
    <contour>
      <point x="180" y="0" type="qcurve"/>
      <point x="95" y="0" type="line"/>
      <point x="95" y="600" type="line"/>
      <point x="180" y="600" type="line"/>
      <point x="271" y="552"/>
      <point x="383" y="459"/>
      <point x="435" y="359"/>
      <point x="435" y="300" type="qcurve" smooth="yes"/>
      <point x="435" y="239"/>
      <point x="384" y="138"/>
      <point x="272" y="48"/>
    </contour>
    <contour>
      <point x="180" y="512" type="qcurve"/>
      <point x="180" y="87" type="line"/>
      <point x="272" y="137"/>
      <point x="348" y="235"/>
      <point x="348" y="300" type="qcurve" smooth="yes"/>
      <point x="348" y="340"/>
      <point x="319" y="407"/>
      <point x="247" y="474"/>
    </contour>
  </outline>
</glyph>
<glyph name="u10CDB" format="2">
  <advance width="943"/>
  <unicode hex="10CDB"/>
  <outline>
    <contour>
      <point x="421" y="3" type="qcurve"/>
      <point x="421" y="3"/>
      <point x="64" y="289" type="qcurve"/>
      <point x="180" y="388" type="line"/>
      <point x="437" y="180" type="line"/>
      <point x="561" y="270"/>
      <point x="610" y="354" type="qcurve" smooth="yes"/>
      <point x="660" y="439"/>
      <point x="660" y="544" type="qcurve" smooth="yes"/>
      <point x="660" y="609"/>
      <point x="638" y="669" type="qcurve" smooth="yes"/>
      <point x="616" y="728"/>
      <point x="512" y="846"/>
      <point x="423" y="912" type="qcurve"/>
      <point x="180" y="713" type="line"/>
      <point x="64" y="812" type="line"/>
      <point x="421" y="1101" type="line"/>
      <point x="573" y="998"/>
      <point x="754" y="819"/>
      <point x="794" y="730" type="qcurve" smooth="yes"/>
      <point x="833" y="641"/>
      <point x="833" y="544" type="qcurve" smooth="yes"/>
      <point x="833" y="381"/>
      <point x="629" y="135"/>
    </contour>
  </outline>
</glyph>
<glyph name="u10CDC" format="2">
  <advance width="1011"/>
  <unicode hex="10CDC"/>
  <outline>
    <contour>
      <point x="481" y="3" type="qcurve"/>
      <point x="481" y="3"/>
      <point x="56" y="353" type="qcurve"/>
      <point x="363" y="640" type="line"/>
      <point x="477" y="539" type="line"/>
      <point x="281" y="362" type="line"/>
      <point x="499" y="178" type="line"/>
      <point x="629" y="270"/>
      <point x="679" y="354" type="qcurve" smooth="yes"/>
      <point x="730" y="440"/>
      <point x="730" y="545" type="qcurve" smooth="yes"/>
      <point x="730" y="621"/>
      <point x="666" y="757"/>
      <point x="510" y="901"/>
      <point x="373" y="990" type="qcurve"/>
      <point x="481" y="1101" type="line"/>
      <point x="637" y="999"/>
      <point x="819" y="820"/>
      <point x="860" y="732" type="qcurve" smooth="yes"/>
      <point x="901" y="643"/>
      <point x="901" y="545" type="qcurve" smooth="yes"/>
      <point x="901" y="383"/>
      <point x="695" y="135"/>
    </contour>
  </outline>
</glyph>
<glyph name="u10CDD" format="2">
  <advance width="370"/>
  <unicode hex="10CDD"/>
  <outline>
    <contour>
      <point x="320" y="41" type="line"/>
      <point x="263" y="-18" type="line"/>
      <point x="33" y="207" type="line"/>
      <point x="231" y="390" type="line"/>
      <point x="47" y="559" type="line"/>
      <point x="104" y="618" type="line"/>
      <point x="337" y="394" type="line"/>
      <point x="140" y="211" type="line"/>
    </contour>
  </outline>
</glyph>
<glyph name="u10CDE" format="2">
  <advance width="492"/>
  <unicode hex="10CDE"/>
  <outline>
    <contour>
      <point x="182" y="0" type="line"/>
      <point x="95" y="0" type="line"/>
      <point x="95" y="600" type="line"/>
      <point x="182" y="600" type="line"/>
      <point x="182" y="308" type="line"/>
      <point x="370" y="600" type="line"/>
      <point x="467" y="600" type="line"/>
      <point x="269" y="307" type="line"/>
      <point x="474" y="0" type="line"/>
      <point x="372" y="0" type="line"/>
      <point x="182" y="300" type="line"/>
    </contour>
  </outline>
</glyph>
<glyph name="u10CDF" format="2">
  <advance width="1077"/>
  <unicode hex="10CDF"/>
  <outline>
    <contour>
      <point x="481" y="4" type="qcurve"/>
      <point x="481" y="4"/>
      <point x="56" y="354" type="qcurve"/>
      <point x="363" y="641" type="line"/>
      <point x="477" y="540" type="line"/>
      <point x="281" y="363" type="line"/>
      <point x="499" y="179" type="line"/>
      <point x="583" y="238"/>
      <point x="632" y="294" type="qcurve"/>
      <point x="536" y="363" type="line"/>
      <point x="628" y="448" type="line"/>
      <point x="700" y="396" type="line"/>
      <point x="730" y="467"/>
      <point x="730" y="546" type="qcurve" smooth="yes"/>
      <point x="730" y="584"/>
      <point x="722" y="623" type="qcurve" smooth="yes"/>
      <point x="714" y="661"/>
      <point x="694" y="699" type="qcurve"/>
      <point x="626" y="649" type="line"/>
      <point x="534" y="735" type="line"/>
      <point x="620" y="798" type="line"/>
      <point x="538" y="884"/>
      <point x="373" y="991" type="qcurve"/>
      <point x="481" y="1102" type="line"/>
      <point x="569" y="1045"/>
      <point x="700" y="941"/>
      <point x="748" y="891" type="qcurve"/>
      <point x="881" y="988" type="line"/>
      <point x="971" y="906" type="line"/>
      <point x="825" y="796" type="line"/>
      <point x="865" y="735"/>
      <point x="901" y="612"/>
      <point x="901" y="546" type="qcurve" smooth="yes"/>
      <point x="901" y="413"/>
      <point x="829" y="301" type="qcurve"/>
      <point x="977" y="192" type="line"/>
      <point x="887" y="106" type="line"/>
      <point x="750" y="206" type="line"/>
      <point x="700" y="155"/>
      <point x="567" y="56"/>
    </contour>
  </outline>
</glyph>
<glyph name="u10CE0" format="2">
  <advance width="903"/>
  <unicode hex="10CE0"/>
  <outline>
    <contour>
      <point x="544" y="2" type="line"/>
      <point x="544" y="263" type="line"/>
      <point x="184" y="-14" type="line"/>
      <point x="84" y="85" type="line"/>
      <point x="544" y="425" type="line"/>
      <point x="544" y="590" type="line"/>
      <point x="184" y="314" type="line"/>
      <point x="84" y="412" type="line"/>
      <point x="544" y="753" type="line"/>
      <point x="544" y="918" type="line"/>
      <point x="184" y="641" type="line"/>
      <point x="84" y="737" type="line"/>
      <point x="564" y="1100" type="line"/>
      <point x="714" y="1100" type="line"/>
      <point x="714" y="2" type="line"/>
    </contour>
  </outline>
</glyph>
<glyph name="u10CE1" format="2">
  <advance width="1487"/>
  <unicode hex="10CE1"/>
  <outline>
    <contour>
      <point x="509" y="129" type="qcurve"/>
      <point x="509" y="129"/>
      <point x="339" y="-33" type="qcurve"/>
      <point x="222" y="65" type="line"/>
      <point x="413" y="232" type="line"/>
      <point x="341" y="324"/>
      <point x="315" y="423" type="qcurve"/>
      <point x="104" y="318" type="line"/>
      <point x="28" y="441" type="line"/>
      <point x="299" y="569" type="line"/>
      <point x="303" y="652"/>
      <point x="359" y="785"/>
      <point x="409" y="848" type="qcurve"/>
      <point x="164" y="743" type="line"/>
      <point x="94" y="867" type="line"/>
      <point x="672" y="1097" type="line"/>
      <point x="815" y="1097" type="line"/>
      <point x="1394" y="867" type="line"/>
      <point x="1324" y="743" type="line"/>
      <point x="1077" y="850" type="line"/>
      <point x="1129" y="787"/>
      <point x="1187" y="652"/>
      <point x="1189" y="569" type="qcurve"/>
      <point x="1460" y="441" type="line"/>
      <point x="1384" y="318" type="line"/>
      <point x="1173" y="423" type="line"/>
      <point x="1159" y="371"/>
      <point x="1109" y="277"/>
      <point x="1075" y="232" type="qcurve"/>
      <point x="1267" y="65" type="line"/>
      <point x="1149" y="-33" type="line"/>
      <point x="979" y="129" type="line"/>
      <point x="941" y="96"/>
      <point x="857" y="30"/>
      <point x="811" y="-1" type="qcurve"/>
      <point x="674" y="-1" type="line"/>
      <point x="628" y="30"/>
      <point x="545" y="94"/>
    </contour>
    <contour>
      <point x="742" y="127" type="qcurve"/>
      <point x="746" y="127" type="line"/>
      <point x="890" y="239"/>
      <point x="1023" y="432"/>
      <point x="1023" y="560" type="qcurve" smooth="yes"/>
      <point x="1023" y="692"/>
      <point x="887" y="889"/>
      <point x="746" y="990" type="qcurve"/>
      <point x="746" y="990"/>
      <point x="742" y="990" type="qcurve"/>
      <point x="596" y="889"/>
      <point x="465" y="692"/>
      <point x="465" y="560" type="qcurve" smooth="yes"/>
      <point x="465" y="472"/>
      <point x="524" y="332"/>
      <point x="646" y="202"/>
    </contour>
  </outline>
</glyph>
<glyph name="u10CE2" format="2">
  <advance width="1249"/>
  <unicode hex="10CE2"/>
  <outline>
    <contour>
      <point x="363" y="322" type="line"/>
      <point x="363" y="1" type="line"/>
      <point x="190" y="1" type="line"/>
      <point x="190" y="1099" type="line"/>
      <point x="363" y="1099" type="line"/>
      <point x="363" y="485" type="line"/>
      <point x="887" y="797" type="line"/>
      <point x="887" y="1099" type="line"/>
      <point x="1061" y="1099" type="line"/>
      <point x="1061" y="1" type="line"/>
      <point x="887" y="1" type="line"/>
      <point x="887" y="634" type="line"/>
    </contour>
  </outline>
</glyph>
<glyph name="u10CE3" format="2">
  <advance width="441"/>
  <unicode hex="10CE3"/>
  <outline>
    <contour>
      <point x="409" y="372" type="line"/>
      <point x="66" y="177" type="line"/>
      <point x="27" y="245" type="line"/>
      <point x="369" y="440" type="line"/>
    </contour>
  </outline>
</glyph>
<glyph name="u10CE4" format="2">
  <advance width="1127"/>
  <unicode hex="10CE4"/>
  <outline>
    <contour>
      <point x="477" y="683" type="qcurve" smooth="yes"/>
      <point x="184" y="2" type="line"/>
      <point x="10" y="2" type="line"/>
      <point x="493" y="1098" type="line"/>
      <point x="634" y="1098" type="line"/>
      <point x="1119" y="2" type="line"/>
      <point x="941" y="2" type="line"/>
      <point x="648" y="683" type="line" smooth="yes"/>
      <point x="625" y="738"/>
      <point x="600" y="809" type="qcurve" smooth="yes"/>
      <point x="580" y="866"/>
      <point x="568" y="912" type="qcurve"/>
      <point x="560" y="912" type="line"/>
      <point x="548" y="864"/>
      <point x="529" y="813" type="qcurve"/>
      <point x="486" y="704"/>
    </contour>
  </outline>
</glyph>
<glyph name="u10CE5" format="2">
  <advance width="277"/>
  <unicode hex="10CE5"/>
  <outline>
    <contour>
      <point x="182" y="0" type="line"/>
      <point x="95" y="0" type="line"/>
      <point x="95" y="600" type="line"/>
      <point x="182" y="600" type="line"/>
    </contour>
  </outline>
</glyph>
<glyph name="u10CE6" format="2">
  <advance width="467"/>
  <unicode hex="10CE6"/>
  <outline>
    <contour>
      <point x="372" y="0" type="line"/>
      <point x="285" y="0" type="line"/>
      <point x="285" y="241" type="line"/>
      <point x="18" y="567" type="line"/>
      <point x="83" y="624" type="line"/>
      <point x="285" y="371" type="line"/>
      <point x="285" y="600" type="line"/>
      <point x="372" y="600" type="line"/>
    </contour>
  </outline>
</glyph>
<glyph name="u10CE7" format="2">
  <advance width="1317"/>
  <unicode hex="10CE7"/>
  <outline>
    <contour>
      <point x="744" y="627" type="line"/>
      <point x="744" y="6" type="line"/>
      <point x="574" y="6" type="line"/>
      <point x="574" y="625" type="line"/>
      <point x="285" y="915" type="line"/>
      <point x="134" y="771" type="line"/>
      <point x="28" y="867" type="line"/>
      <point x="293" y="1104" type="line"/>
      <point x="574" y="817" type="line"/>
      <point x="574" y="1104" type="line"/>
      <point x="744" y="1104" type="line"/>
      <point x="744" y="819" type="line"/>
      <point x="1027" y="1104" type="line"/>
      <point x="1290" y="867" type="line"/>
      <point x="1187" y="771" type="line"/>
      <point x="1033" y="915" type="line"/>
    </contour>
  </outline>
</glyph>
<glyph name="u10CE8" format="2">
  <advance width="538"/>
  <unicode hex="10CE8"/>
  <outline>
    <contour>
      <point x="104" y="0" type="line"/>
      <point x="10" y="0" type="line"/>
      <point x="217" y="311" type="line"/>
      <point x="22" y="600" type="line"/>
      <point x="121" y="600" type="line"/>
      <point x="182" y="507" type="line"/>
      <point x="239" y="600" type="line"/>
      <point x="327" y="600" type="line"/>
      <point x="225" y="440" type="line"/>
      <point x="270" y="371" type="line"/>
      <point x="419" y="600" type="line"/>
      <point x="513" y="600" type="line"/>
      <point x="321" y="313" type="line"/>
      <point x="528" y="0" type="line"/>
      <point x="427" y="0" type="line"/>
      <point x="358" y="109" type="line"/>
      <point x="290" y="0" type="line"/>
      <point x="203" y="0" type="line"/>
      <point x="315" y="177" type="line"/>
      <point x="267" y="253" type="line"/>
    </contour>
  </outline>
</glyph>
<glyph name="u10CE9" format="2">
  <advance width="517"/>
  <unicode hex="10CE9"/>
  <outline>
    <contour>
      <point x="513" y="22" type="line"/>
      <point x="444" y="-24" type="line"/>
      <point x="241" y="34" type="line"/>
      <point x="263" y="102" type="line"/>
      <point x="388" y="63" type="line"/>
      <point x="267" y="253" type="line"/>
      <point x="104" y="0" type="line"/>
      <point x="10" y="0" type="line"/>
      <point x="217" y="311" type="line"/>
      <point x="22" y="600" type="line"/>
      <point x="121" y="600" type="line"/>
      <point x="270" y="371" type="line"/>
      <point x="380" y="535" type="line"/>
      <point x="263" y="499" type="line"/>
      <point x="243" y="567" type="line"/>
      <point x="441" y="625" type="line"/>
      <point x="502" y="584" type="line"/>
      <point x="321" y="313" type="line"/>
    </contour>
  </outline>
</glyph>
<glyph name="u10CEA" format="2">
  <advance width="1319"/>
  <unicode hex="10CEA"/>
  <outline>
    <contour>
      <point x="660" y="211" type="line"/>
      <point x="343" y="1" type="line"/>
      <point x="190" y="1" type="line"/>
      <point x="190" y="1099" type="line"/>
      <point x="343" y="1099" type="line"/>
      <point x="660" y="889" type="line"/>
      <point x="973" y="1099" type="line"/>
      <point x="1131" y="1099" type="line"/>
      <point x="1131" y="1" type="line"/>
      <point x="973" y="1" type="line"/>
    </contour>
    <contour>
      <point x="660" y="720" type="line"/>
      <point x="359" y="913" type="line"/>
      <point x="359" y="185" type="line"/>
      <point x="660" y="379" type="line"/>
      <point x="961" y="185" type="line"/>
      <point x="961" y="913" type="line"/>
    </contour>
  </outline>
</glyph>
<glyph name="u10CEB" format="2">
  <advance width="1415"/>
  <unicode hex="10CEB"/>
  <outline>
    <contour>
      <point x="710" y="445" type="line"/>
      <point x="345" y="-1" type="line"/>
      <point x="190" y="-1" type="line"/>
      <point x="190" y="1097" type="line"/>
      <point x="345" y="1097" type="line"/>
      <point x="710" y="647" type="line"/>
      <point x="1081" y="1097" type="line"/>
      <point x="1227" y="1097" type="line"/>
      <point x="1227" y="-1" type="line"/>
      <point x="1081" y="-1" type="line"/>
    </contour>
    <contour>
      <point x="1071" y="862" type="line"/>
      <point x="803" y="549" type="line"/>
      <point x="1071" y="231" type="line"/>
      <point x="1077" y="231" type="line"/>
      <point x="1077" y="862" type="line"/>
    </contour>
    <contour>
      <point x="355" y="852" type="line"/>
      <point x="349" y="852" type="line"/>
      <point x="349" y="239" type="line"/>
      <point x="355" y="239" type="line"/>
      <point x="616" y="549" type="line"/>
    </contour>
  </outline>
</glyph>
<glyph name="u10CEC" format="2">
  <advance width="1173"/>
  <unicode hex="10CEC"/>
  <outline>
    <contour>
      <point x="351" y="133" type="qcurve"/>
      <point x="351" y="133"/>
      <point x="194" y="-25" type="qcurve"/>
      <point x="76" y="73" type="line"/>
      <point x="254" y="239" type="line"/>
      <point x="200" y="309"/>
      <point x="142" y="464"/>
      <point x="142" y="551" type="qcurve" smooth="yes"/>
      <point x="142" y="640"/>
      <point x="200" y="796"/>
      <point x="254" y="864" type="qcurve"/>
      <point x="76" y="1027" type="line"/>
      <point x="194" y="1125" type="line"/>
      <point x="351" y="968" type="line"/>
      <point x="421" y="1034"/>
      <point x="516" y="1101" type="qcurve"/>
      <point x="654" y="1101" type="line"/>
      <point x="748" y="1035"/>
      <point x="821" y="968" type="qcurve"/>
      <point x="821" y="968"/>
      <point x="981" y="1125" type="qcurve"/>
      <point x="1099" y="1027" type="line"/>
      <point x="919" y="864" type="line"/>
      <point x="971" y="794"/>
      <point x="1031" y="640"/>
      <point x="1031" y="551" type="qcurve" smooth="yes"/>
      <point x="1031" y="463"/>
      <point x="971" y="309"/>
      <point x="919" y="239" type="qcurve"/>
      <point x="1099" y="73" type="line"/>
      <point x="981" y="-25" type="line"/>
      <point x="821" y="133" type="line"/>
      <point x="783" y="100"/>
      <point x="700" y="34"/>
      <point x="654" y="3" type="qcurve"/>
      <point x="516" y="3" type="line"/>
      <point x="425" y="67"/>
    </contour>
    <contour>
      <point x="584" y="120" type="qcurve"/>
      <point x="588" y="120" type="line"/>
      <point x="732" y="232"/>
      <point x="865" y="425"/>
      <point x="865" y="551" type="qcurve" smooth="yes"/>
      <point x="865" y="679"/>
      <point x="730" y="871"/>
      <point x="588" y="983" type="qcurve"/>
      <point x="588" y="983"/>
      <point x="584" y="983" type="qcurve"/>
      <point x="488" y="908"/>
      <point x="365" y="775"/>
      <point x="307" y="636"/>
      <point x="307" y="465"/>
      <point x="367" y="326"/>
      <point x="488" y="195"/>
    </contour>
  </outline>
</glyph>
<glyph name="u10CED" format="2">
  <advance width="577"/>
  <unicode hex="10CED"/>
  <outline>
    <contour>
      <point x="491" y="0" type="line"/>
      <point x="404" y="0" type="line"/>
      <point x="404" y="354" type="line"/>
      <point x="170" y="169" type="line"/>
      <point x="86" y="169" type="line"/>
      <point x="86" y="600" type="line"/>
      <point x="173" y="600" type="line"/>
      <point x="173" y="272" type="line"/>
      <point x="406" y="457" type="line"/>
      <point x="491" y="457" type="line"/>
    </contour>
  </outline>
</glyph>
<glyph name="u10CEE" format="2">
  <advance width="1319"/>
  <unicode hex="10CEE"/>
  <outline>
    <contour>
      <point x="359" y="912" type="line"/>
      <point x="359" y="0" type="line"/>
      <point x="190" y="0" type="line"/>
      <point x="190" y="1098" type="line"/>
      <point x="343" y="1098" type="line"/>
      <point x="660" y="888" type="line"/>
      <point x="973" y="1098" type="line"/>
      <point x="1131" y="1098" type="line"/>
      <point x="1131" y="0" type="line"/>
      <point x="961" y="0" type="line"/>
      <point x="961" y="912" type="line"/>
      <point x="660" y="719" type="line"/>
    </contour>
  </outline>
</glyph>
<glyph name="u10CEF" format="2">
  <advance width="1225"/>
  <unicode hex="10CEF"/>
  <outline>
    <contour>
      <point x="867" y="365" type="line"/>
      <point x="359" y="48" type="line"/>
      <point x="190" y="48" type="line"/>
      <point x="190" y="1149" type="line"/>
      <point x="359" y="1149" type="line"/>
      <point x="359" y="831" type="line"/>
      <point x="867" y="1149" type="line"/>
      <point x="1037" y="1149" type="line"/>
      <point x="1037" y="48" type="line"/>
      <point x="867" y="48" type="line"/>
    </contour>
    <contour>
      <point x="867" y="1000" type="line"/>
      <point x="359" y="683" type="line"/>
      <point x="359" y="514" type="line"/>
      <point x="867" y="831" type="line"/>
    </contour>
    <contour>
      <point x="867" y="683" type="line"/>
      <point x="359" y="365" type="line"/>
      <point x="359" y="197" type="line"/>
      <point x="867" y="514" type="line"/>
    </contour>
  </outline>
</glyph>
<glyph name="u10CF0" format="2">
  <advance width="1239"/>
  <unicode hex="10CF0"/>
  <outline>
    <contour>
      <point x="706" y="477" type="line"/>
      <point x="706" y="2" type="line"/>
      <point x="532" y="2" type="line"/>
      <point x="532" y="477" type="line"/>
      <point x="58" y="1014" type="line"/>
      <point x="196" y="1100" type="line"/>
      <point x="532" y="706" type="line"/>
      <point x="532" y="1100" type="line"/>
      <point x="706" y="1100" type="line"/>
      <point x="706" y="706" type="line"/>
      <point x="1057" y="1100" type="line"/>
      <point x="1193" y="1014" type="line"/>
    </contour>
  </outline>
</glyph>
<glyph name="u10CF1" format="2">
  <advance width="1407"/>
  <unicode hex="10CF1"/>
  <outline>
    <contour>
      <point x="1077" y="280" type="line"/>
      <point x="787" y="4" type="line"/>
      <point x="618" y="4" type="line"/>
      <point x="331" y="280" type="line"/>
      <point x="154" y="157" type="line"/>
      <point x="60" y="258" type="line"/>
      <point x="337" y="453" type="line"/>
      <point x="618" y="181" type="line"/>
      <point x="618" y="356" type="line"/>
      <point x="331" y="617" type="line"/>
      <point x="154" y="492" type="line"/>
      <point x="60" y="595" type="line"/>
      <point x="337" y="785" type="line"/>
      <point x="618" y="523" type="line"/>
      <point x="618" y="692" type="line"/>
      <point x="331" y="953" type="line"/>
      <point x="154" y="830" type="line"/>
      <point x="60" y="931" type="line"/>
      <point x="337" y="1126" type="line"/>
      <point x="618" y="861" type="line"/>
      <point x="618" y="1102" type="line"/>
      <point x="787" y="1102" type="line"/>
      <point x="787" y="861" type="line"/>
      <point x="1071" y="1126" type="line"/>
      <point x="1348" y="931" type="line"/>
      <point x="1255" y="830" type="line"/>
      <point x="1077" y="953" type="line"/>
      <point x="787" y="692" type="line"/>
      <point x="787" y="523" type="line"/>
      <point x="1071" y="785" type="line"/>
      <point x="1348" y="595" type="line"/>
      <point x="1255" y="492" type="line"/>
      <point x="1077" y="617" type="line"/>
      <point x="787" y="356" type="line"/>
      <point x="787" y="181" type="line"/>
      <point x="1071" y="453" type="line"/>
      <point x="1348" y="258" type="line"/>
      <point x="1255" y="157" type="line"/>
    </contour>
  </outline>
</glyph>
<glyph name="u10CF2" format="2">
  <advance width="1107"/>
  <unicode hex="10CF2"/>
  <outline>
    <contour>
      <point x="622" y="2" type="qcurve"/>
      <point x="622" y="2"/>
      <point x="485" y="2" type="qcurve"/>
      <point x="315" y="120"/>
      <point x="110" y="380"/>
      <point x="110" y="549" type="qcurve" smooth="yes"/>
      <point x="110" y="722"/>
      <point x="315" y="982"/>
      <point x="485" y="1100" type="qcurve"/>
      <point x="622" y="1100" type="line"/>
      <point x="792" y="982"/>
      <point x="999" y="721"/>
      <point x="999" y="549" type="qcurve" smooth="yes"/>
      <point x="999" y="379"/>
      <point x="792" y="120"/>
    </contour>
    <contour>
      <point x="479" y="180" type="qcurve"/>
      <point x="479" y="922" type="line"/>
      <point x="373" y="832"/>
      <point x="275" y="659"/>
      <point x="275" y="440"/>
      <point x="375" y="270"/>
    </contour>
    <contour>
      <point x="632" y="920" type="qcurve"/>
      <point x="632" y="182" type="line"/>
      <point x="736" y="272"/>
      <point x="833" y="441"/>
      <point x="833" y="659"/>
      <point x="736" y="830"/>
    </contour>
  </outline>
</glyph>
<glyph name="u10CFA" format="2">
  <advance width="277"/>
  <unicode hex="10CFA"/>
  <outline>
    <contour>
      <point x="182" y="0" type="line"/>
      <point x="95" y="0" type="line"/>
      <point x="95" y="801" type="line"/>
      <point x="182" y="801" type="line"/>
    </contour>
  </outline>
</glyph>
<glyph name="u10CFB" format="2">
  <advance width="566"/>
  <unicode hex="10CFB"/>
  <outline>
    <contour>
      <point x="319" y="0" type="line"/>
      <point x="248" y="0" type="line"/>
      <point x="5" y="800" type="line"/>
      <point x="94" y="800" type="line"/>
      <point x="241" y="298" type="line" smooth="yes"/>
      <point x="253" y="257"/>
      <point x="265" y="209" type="qcurve" smooth="yes"/>
      <point x="275" y="168"/>
      <point x="281" y="135" type="qcurve"/>
      <point x="285" y="135" type="line"/>
      <point x="284" y="140"/>
      <point x="300" y="206" type="qcurve"/>
      <point x="305" y="222"/>
      <point x="327" y="298" type="qcurve" smooth="yes"/>
      <point x="474" y="800" type="line"/>
      <point x="561" y="800" type="line"/>
    </contour>
  </outline>
</glyph>
<glyph name="u10CFC" format="2">
  <advance width="1377"/>
  <unicode hex="10CFC"/>
  <outline>
    <contour>
      <point x="684" y="637" type="line"/>
      <point x="216" y="3" type="line"/>
      <point x="8" y="3" type="line"/>
      <point x="570" y="754" type="line"/>
      <point x="44" y="1460" type="line"/>
      <point x="263" y="1460" type="line"/>
      <point x="690" y="867" type="line"/>
      <point x="1123" y="1460" type="line"/>
      <point x="1330" y="1460" type="line"/>
      <point x="805" y="756" type="line"/>
      <point x="1370" y="3" type="line"/>
      <point x="1147" y="3" type="line"/>
    </contour>
  </outline>
</glyph>
<glyph name="u10CFD" format="2">
  <advance width="1127"/>
  <unicode hex="10CFD"/>
  <outline>
    <contour>
      <point x="1125" y="1461" type="line"/>
      <point x="658" y="4" type="line"/>
      <point x="473" y="4" type="line"/>
      <point x="4" y="1461" type="line"/>
      <point x="188" y="1461" type="line"/>
      <point x="429" y="690" type="line"/>
      <point x="437" y="660"/>
      <point x="459" y="580" type="qcurve" smooth="yes"/>
      <point x="473" y="528"/>
      <point x="485" y="479" type="qcurve"/>
      <point x="479" y="1461" type="line"/>
      <point x="652" y="1461" type="line"/>
      <point x="646" y="477" type="line"/>
      <point x="657" y="523"/>
      <point x="672" y="578" type="qcurve" smooth="yes"/>
      <point x="686" y="630"/>
      <point x="702" y="690" type="qcurve"/>
      <point x="945" y="1461" type="line"/>
    </contour>
  </outline>
</glyph>
<glyph name="u10CFE" format="2">
  <advance width="1377"/>
  <unicode hex="10CFE"/>
  <outline>
    <contour>
      <point x="612" y="1454" type="line"/>
      <point x="785" y="1454" type="line"/>
      <point x="785" y="987" type="line"/>
      <point x="1127" y="1456" type="line"/>
      <point x="1334" y="1456" type="line"/>
      <point x="809" y="762" type="line"/>
      <point x="1374" y="0" type="line"/>
      <point x="1151" y="0" type="line"/>
      <point x="785" y="535" type="line"/>
      <point x="785" y="8" type="line"/>
      <point x="612" y="8" type="line"/>
      <point x="612" y="543" type="line"/>
      <point x="220" y="0" type="line"/>
      <point x="12" y="0" type="line"/>
      <point x="574" y="760" type="line"/>
      <point x="48" y="1456" type="line"/>
      <point x="267" y="1456" type="line"/>
      <point x="612" y="978" type="line"/>
    </contour>
  </outline>
</glyph>
<glyph name="u10CFF" format="2">
  <advance width="691"/>
  <unicode hex="10CFF"/>
  <outline>
    <contour>
      <point x="666" y="369" type="line"/>
      <point x="434" y="369" type="line"/>
      <point x="687" y="-4" type="line"/>
      <point x="575" y="-4" type="line"/>
      <point x="392" y="276" type="line"/>
      <point x="392" y="0" type="line"/>
      <point x="305" y="0" type="line"/>
      <point x="305" y="297" type="line"/>
      <point x="108" y="-4" type="line"/>
      <point x="4" y="-4" type="line"/>
      <point x="250" y="365" type="line"/>
      <point x="26" y="365" type="line"/>
      <point x="23" y="485" type="line"/>
      <point x="241" y="483" type="line"/>
      <point x="22" y="802" type="line"/>
      <point x="132" y="802" type="line"/>
      <point x="305" y="537" type="line"/>
      <point x="305" y="801" type="line"/>
      <point x="392" y="801" type="line"/>
      <point x="392" y="542" type="line"/>
      <point x="563" y="802" type="line"/>
      <point x="667" y="802" type="line"/>
      <point x="444" y="480" type="line"/>
      <point x="663" y="482" type="line"/>
    </contour>
  </outline>
</glyph>
<glyph name=".notdef" format="2">
  <advance width="1195"/>
  <outline>
    <contour>
      <point x="1007" y="1424" type="line"/>
      <point x="1007" y="0" type="line"/>
      <point x="188" y="0" type="line"/>
      <point x="188" y="1424" type="line"/>
    </contour>
    <contour>
      <point x="905" y="1322" type="line"/>
      <point x="289" y="1322" type="line"/>
      <point x="289" y="102" type="line"/>
      <point x="905" y="102" type="line"/>
    </contour>
  </outline>
</glyph>
<glyph name="uni10C80.ltr" format="2">
  <advance width="1053"/>
  <outline>
    <contour>
      <point x="199" y="4" type="line"/>
      <point x="20" y="4" type="line"/>
      <point x="20" y="1465" type="line"/>
      <point x="213" y="1465" type="line"/>
      <point x="797" y="958" type="line"/>
      <point x="797" y="760" type="line"/>
      <point x="199" y="760" type="line"/>
    </contour>
    <contour>
      <point x="199" y="916" type="line"/>
      <point x="633" y="916" type="line"/>
      <point x="199" y="1285" type="line"/>
    </contour>
  </outline>
</glyph>
<glyph name="uni10C81.ltr" format="2">
  <advance width="1053"/>
  <outline>
    <contour>
      <point x="225" y="2" type="line"/>
      <point x="46" y="2" type="line"/>
      <point x="46" y="1463" type="line"/>
      <point x="231" y="1463" type="line"/>
      <point x="797" y="964" type="line"/>
      <point x="797" y="822" type="line"/>
      <point x="225" y="442" type="line"/>
    </contour>
    <contour>
      <point x="225" y="637" type="line"/>
      <point x="629" y="904" type="line"/>
      <point x="225" y="1265" type="line"/>
    </contour>
  </outline>
</glyph>
<glyph name="uni10C82.ltr" format="2">
  <advance width="691"/>
  <outline>
    <contour>
      <point x="116" y="2" type="line"/>
      <point x="4" y="2" type="line"/>
      <point x="287" y="421" type="line"/>
      <point x="24" y="802" type="line"/>
      <point x="128" y="802" type="line"/>
      <point x="345" y="482" type="line"/>
      <point x="559" y="802" type="line"/>
      <point x="669" y="802" type="line"/>
      <point x="405" y="419" type="line"/>
      <point x="687" y="2" type="line"/>
      <point x="583" y="2" type="line"/>
      <point x="348" y="355" type="line"/>
    </contour>
  </outline>
</glyph>
<glyph name="uni10C83.ltr" format="2">
  <advance width="2030"/>
  <outline>
    <contour>
      <point x="1105" y="-2" type="qcurve"/>
      <point x="919" y="-2" type="line"/>
      <point x="849" y="44"/>
      <point x="730" y="140"/>
      <point x="678" y="189" type="qcurve"/>
      <point x="505" y="0" type="line"/>
      <point x="110" y="152" type="line"/>
      <point x="174" y="282" type="line"/>
      <point x="453" y="165" type="line"/>
      <point x="572" y="302" type="line"/>
      <point x="496" y="398"/>
      <point x="417" y="607"/>
      <point x="417" y="728" type="qcurve" smooth="yes"/>
      <point x="417" y="851"/>
      <point x="497" y="1059"/>
      <point x="572" y="1155" type="qcurve"/>
      <point x="453" y="1292" type="line"/>
      <point x="174" y="1175" type="line"/>
      <point x="110" y="1307" type="line"/>
      <point x="505" y="1457" type="line"/>
      <point x="678" y="1268" type="line"/>
      <point x="730" y="1320"/>
      <point x="849" y="1413"/>
      <point x="919" y="1459" type="qcurve"/>
      <point x="1107" y="1459" type="line"/>
      <point x="1175" y="1414"/>
      <point x="1298" y="1316"/>
      <point x="1350" y="1264" type="qcurve"/>
      <point x="1530" y="1457" type="line"/>
      <point x="1920" y="1307" type="line"/>
      <point x="1860" y="1175" type="line"/>
      <point x="1579" y="1292" type="line"/>
      <point x="1456" y="1151" type="line"/>
      <point x="1530" y="1056"/>
      <point x="1609" y="846"/>
      <point x="1609" y="610"/>
      <point x="1530" y="402"/>
      <point x="1456" y="308" type="qcurve"/>
      <point x="1579" y="165" type="line"/>
      <point x="1860" y="282" type="line"/>
      <point x="1920" y="152" type="line"/>
      <point x="1530" y="0" type="line"/>
      <point x="1350" y="193" type="line"/>
      <point x="1298" y="143"/>
      <point x="1175" y="45"/>
    </contour>
    <contour>
      <point x="1009" y="121" type="qcurve"/>
      <point x="1017" y="121" type="line"/>
      <point x="1153" y="226"/>
      <point x="1334" y="411"/>
      <point x="1424" y="609"/>
      <point x="1424" y="728" type="qcurve" smooth="yes"/>
      <point x="1424" y="851"/>
      <point x="1334" y="1044"/>
      <point x="1153" y="1236"/>
      <point x="1017" y="1341" type="qcurve"/>
      <point x="1009" y="1336" type="line"/>
      <point x="871" y="1231"/>
      <point x="692" y="1046"/>
      <point x="602" y="846"/>
      <point x="602" y="610"/>
      <point x="692" y="411"/>
      <point x="871" y="226"/>
    </contour>
  </outline>
</glyph>
<glyph name="uni10C84.ltr" format="2">
  <advance width="1235"/>
  <outline>
    <contour>
      <point x="708" y="1" type="line"/>
      <point x="528" y="1" type="line"/>
      <point x="528" y="1230" type="line"/>
      <point x="166" y="921" type="line"/>
      <point x="48" y="1043" type="line"/>
      <point x="544" y="1464" type="line"/>
      <point x="692" y="1464" type="line"/>
      <point x="1189" y="1043" type="line"/>
      <point x="1071" y="921" type="line"/>
      <point x="708" y="1230" type="line"/>
    </contour>
  </outline>
</glyph>
<glyph name="uni10C85.ltr" format="2">
  <advance width="620"/>
  <outline>
    <contour>
      <point x="347" y="-2" type="line"/>
      <point x="273" y="-2" type="line"/>
      <point x="24" y="209" type="line"/>
      <point x="83" y="270" type="line"/>
      <point x="265" y="115" type="line"/>
      <point x="265" y="685" type="line"/>
      <point x="83" y="530" type="line"/>
      <point x="31" y="591" type="line"/>
      <point x="273" y="802" type="line"/>
      <point x="347" y="802" type="line"/>
      <point x="589" y="591" type="line"/>
      <point x="537" y="530" type="line"/>
      <point x="355" y="685" type="line"/>
      <point x="355" y="115" type="line"/>
      <point x="537" y="270" type="line"/>
      <point x="596" y="209" type="line"/>
    </contour>
  </outline>
</glyph>
<glyph name="uni10C86.ltr" format="2">
  <advance width="832"/>
  <outline>
    <contour>
      <point x="214" y="0" type="line"/>
      <point x="124" y="0" type="line"/>
      <point x="124" y="799" type="line"/>
      <point x="211" y="799" type="line"/>
      <point x="618" y="556" type="line"/>
      <point x="618" y="799" type="line"/>
      <point x="708" y="799" type="line"/>
      <point x="708" y="0" type="line"/>
      <point x="621" y="0" type="line"/>
      <point x="214" y="244" type="line"/>
    </contour>
    <contour>
      <point x="214" y="335" type="line"/>
      <point x="618" y="99" type="line"/>
      <point x="618" y="463" type="line"/>
      <point x="214" y="705" type="line"/>
    </contour>
  </outline>
</glyph>
<glyph name="uni10C87.ltr" format="2">
  <advance width="1249"/>
  <outline>
    <contour>
      <point x="720" y="4" type="line"/>
      <point x="528" y="4" type="line"/>
      <point x="528" y="742" type="line"/>
      <point x="114" y="958" type="line"/>
      <point x="192" y="1098" type="line"/>
      <point x="528" y="918" type="line"/>
      <point x="528" y="1467" type="line"/>
      <point x="720" y="1467" type="line"/>
      <point x="720" y="822" type="line"/>
      <point x="1135" y="613" type="line"/>
      <point x="1057" y="476" type="line"/>
      <point x="720" y="651" type="line"/>
    </contour>
  </outline>
</glyph>
<glyph name="uni10C88.ltr" format="2">
  <advance width="1377"/>
  <outline>
    <contour>
      <point x="1370" y="4" type="line"/>
      <point x="1162" y="4" type="line"/>
      <point x="693" y="645" type="line"/>
      <point x="231" y="4" type="line"/>
      <point x="8" y="4" type="line"/>
      <point x="552" y="737" type="line"/>
      <point x="78" y="859" type="line"/>
      <point x="109" y="981" type="line"/>
      <point x="485" y="882" type="line"/>
      <point x="48" y="1461" type="line"/>
      <point x="255" y="1461" type="line"/>
      <point x="687" y="875" type="line"/>
      <point x="1115" y="1461" type="line"/>
      <point x="1334" y="1461" type="line"/>
      <point x="831" y="793" type="line"/>
      <point x="1318" y="668" type="line"/>
      <point x="1270" y="552" type="line"/>
      <point x="889" y="652" type="line"/>
    </contour>
  </outline>
</glyph>
<glyph name="uni10C89.ltr" format="2">
  <advance width="1121"/>
  <outline>
    <contour>
      <point x="923" y="117" type="qcurve"/>
      <point x="822" y="1" type="line"/>
      <point x="728" y="51"/>
      <point x="570" y="143"/>
      <point x="507" y="187" type="qcurve"/>
      <point x="262" y="14" type="line"/>
      <point x="164" y="117" type="line"/>
      <point x="389" y="276" type="line"/>
      <point x="266" y="383"/>
      <point x="162" y="600"/>
      <point x="162" y="731" type="qcurve" smooth="yes"/>
      <point x="162" y="862"/>
      <point x="267" y="1081"/>
      <point x="393" y="1190" type="qcurve"/>
      <point x="164" y="1354" type="line"/>
      <point x="262" y="1457" type="line"/>
      <point x="511" y="1280" type="line"/>
      <point x="573" y="1324"/>
      <point x="722" y="1414"/>
      <point x="812" y="1462" type="qcurve"/>
      <point x="933" y="1352" type="line"/>
      <point x="847" y="1306"/>
      <point x="706" y="1222"/>
      <point x="648" y="1183" type="qcurve"/>
      <point x="899" y="1007" type="line"/>
      <point x="790" y="908" type="line"/>
      <point x="530" y="1093" type="line"/>
      <point x="430" y="1007"/>
      <point x="349" y="834"/>
      <point x="349" y="731" type="qcurve" smooth="yes"/>
      <point x="349" y="628"/>
      <point x="429" y="454"/>
      <point x="522" y="371" type="qcurve"/>
      <point x="790" y="560" type="line"/>
      <point x="899" y="465" type="line"/>
      <point x="640" y="280" type="line"/>
      <point x="687" y="249"/>
      <point x="767" y="202" type="qcurve" smooth="yes"/>
      <point x="837" y="161"/>
    </contour>
  </outline>
</glyph>
<glyph name="uni10C8A.ltr" format="2">
  <advance width="1167"/>
  <outline>
    <contour>
      <point x="973" y="119" type="qcurve"/>
      <point x="870" y="2" type="line"/>
      <point x="788" y="46"/>
      <point x="644" y="128"/>
      <point x="584" y="168" type="qcurve"/>
      <point x="524" y="128"/>
      <point x="382" y="46"/>
      <point x="300" y="2" type="qcurve"/>
      <point x="196" y="119" type="line"/>
      <point x="270" y="157"/>
      <point x="399" y="229"/>
      <point x="453" y="264" type="qcurve"/>
      <point x="318" y="375"/>
      <point x="204" y="598"/>
      <point x="204" y="865"/>
      <point x="317" y="1088"/>
      <point x="449" y="1199" type="qcurve"/>
      <point x="396" y="1235"/>
      <point x="330" y="1274" type="qcurve" smooth="yes"/>
      <point x="230" y="1334"/>
      <point x="186" y="1356" type="qcurve"/>
      <point x="308" y="1463" type="line"/>
      <point x="471" y="1375"/>
      <point x="584" y="1299" type="qcurve"/>
      <point x="698" y="1376"/>
      <point x="862" y="1463" type="qcurve"/>
      <point x="983" y="1353" type="line"/>
      <point x="906" y="1311"/>
      <point x="774" y="1235"/>
      <point x="718" y="1197" type="qcurve"/>
      <point x="852" y="1088"/>
      <point x="965" y="863"/>
      <point x="965" y="731" type="qcurve" smooth="yes"/>
      <point x="965" y="599"/>
      <point x="850" y="375"/>
      <point x="716" y="264" type="qcurve"/>
      <point x="770" y="230"/>
      <point x="897" y="159"/>
    </contour>
    <contour>
      <point x="584" y="360" type="qcurve"/>
      <point x="688" y="447"/>
      <point x="778" y="626"/>
      <point x="778" y="731" type="qcurve" smooth="yes"/>
      <point x="778" y="836"/>
      <point x="690" y="1010"/>
      <point x="584" y="1099" type="qcurve"/>
      <point x="478" y="1012"/>
      <point x="392" y="835"/>
      <point x="392" y="731" type="qcurve" smooth="yes"/>
      <point x="392" y="627"/>
      <point x="480" y="447"/>
    </contour>
  </outline>
</glyph>
<glyph name="uni10C8B.ltr" format="2">
  <advance width="512"/>
  <outline>
    <contour>
      <point x="424" y="132" type="qcurve"/>
      <point x="232" y="-21" type="line"/>
      <point x="174" y="42" type="line"/>
      <point x="281" y="124" type="line"/>
      <point x="175" y="191"/>
      <point x="82" y="322"/>
      <point x="82" y="403" type="qcurve" smooth="yes"/>
      <point x="82" y="485"/>
      <point x="175" y="616"/>
      <point x="281" y="683" type="qcurve"/>
      <point x="174" y="765" type="line"/>
      <point x="232" y="827" type="line"/>
      <point x="424" y="675" type="line"/>
      <point x="338" y="627"/>
      <point x="228" y="544"/>
      <point x="176" y="457"/>
      <point x="176" y="403" type="qcurve" smooth="yes"/>
      <point x="176" y="350"/>
      <point x="229" y="263"/>
      <point x="339" y="179"/>
    </contour>
  </outline>
</glyph>
<glyph name="uni10C8C.ltr" format="2">
  <advance width="769"/>
  <outline>
    <contour>
      <point x="431" y="-2" type="qcurve"/>
      <point x="338" y="-2" type="line"/>
      <point x="259" y="57"/>
      <point x="144" y="178"/>
      <point x="82" y="316"/>
      <point x="82" y="400" type="qcurve" smooth="yes"/>
      <point x="82" y="484"/>
      <point x="144" y="622"/>
      <point x="259" y="744"/>
      <point x="338" y="802" type="qcurve"/>
      <point x="432" y="802" type="line"/>
      <point x="512" y="744"/>
      <point x="626" y="622"/>
      <point x="688" y="484"/>
      <point x="688" y="400" type="qcurve" smooth="yes"/>
      <point x="688" y="316"/>
      <point x="626" y="178"/>
      <point x="511" y="57"/>
    </contour>
    <contour>
      <point x="247" y="604" type="qcurve"/>
      <point x="383" y="450" type="line"/>
      <point x="522" y="606" type="line"/>
      <point x="473" y="667"/>
      <point x="387" y="735" type="qcurve"/>
      <point x="383" y="735" type="line"/>
      <point x="340" y="700"/>
      <point x="272" y="636"/>
    </contour>
    <contour>
      <point x="430" y="398" type="line"/>
      <point x="559" y="251" type="line"/>
      <point x="577" y="285"/>
      <point x="595" y="358"/>
      <point x="595" y="400" type="qcurve" smooth="yes"/>
      <point x="595" y="481"/>
      <point x="560" y="547" type="qcurve"/>
    </contour>
    <contour>
      <point x="209" y="254" type="qcurve"/>
      <point x="337" y="398" type="line"/>
      <point x="209" y="544" type="line"/>
      <point x="175" y="480"/>
      <point x="175" y="400" type="qcurve" smooth="yes"/>
      <point x="175" y="319"/>
    </contour>
    <contour>
      <point x="383" y="66" type="qcurve"/>
      <point x="387" y="66" type="line"/>
      <point x="428" y="99"/>
      <point x="493" y="161"/>
      <point x="518" y="190" type="qcurve"/>
      <point x="383" y="345" type="line"/>
      <point x="250" y="193" type="line"/>
      <point x="275" y="162"/>
      <point x="341" y="99"/>
    </contour>
  </outline>
</glyph>
<glyph name="uni10C8D.ltr" format="2">
  <advance width="1596"/>
  <outline>
    <contour>
      <point x="1561" y="3" type="line"/>
      <point x="1362" y="3" type="line"/>
      <point x="963" y="891" type="line"/>
      <point x="876" y="1082" type="line"/>
      <point x="842" y="1166"/>
      <point x="809" y="1251" type="qcurve"/>
      <point x="790" y="1251" type="line"/>
      <point x="764" y="1205"/>
      <point x="722" y="1084" type="qcurve" smooth="yes"/>
      <point x="716" y="1067"/>
      <point x="653" y="903" type="qcurve"/>
      <point x="625" y="827" type="line"/>
      <point x="993" y="6" type="line"/>
      <point x="805" y="6" type="line"/>
      <point x="525" y="625" type="line"/>
      <point x="246" y="9" type="line"/>
      <point x="48" y="9" type="line"/>
      <point x="712" y="1461" type="line"/>
      <point x="885" y="1461" type="line"/>
    </contour>
  </outline>
</glyph>
<glyph name="uni10C8E.ltr" format="2">
  <advance width="624"/>
  <outline>
    <contour>
      <point x="359" y="0" type="line"/>
      <point x="263" y="0" type="line"/>
      <point x="263" y="251" type="line"/>
      <point x="55" y="357" type="line"/>
      <point x="94" y="427" type="line"/>
      <point x="263" y="341" type="line"/>
      <point x="263" y="494" type="line"/>
      <point x="55" y="600" type="line"/>
      <point x="94" y="670" type="line"/>
      <point x="263" y="584" type="line"/>
      <point x="263" y="802" type="line"/>
      <point x="359" y="802" type="line"/>
      <point x="359" y="535" type="line"/>
      <point x="567" y="428" type="line"/>
      <point x="528" y="360" type="line"/>
      <point x="359" y="446" type="line"/>
      <point x="359" y="292" type="line"/>
      <point x="567" y="185" type="line"/>
      <point x="528" y="117" type="line"/>
      <point x="359" y="203" type="line"/>
    </contour>
  </outline>
</glyph>
<glyph name="uni10C8F.ltr" format="2">
  <advance width="710"/>
  <outline>
    <contour>
      <point x="187" y="-2" type="line"/>
      <point x="65" y="-2" type="line"/>
      <point x="296" y="201" type="line"/>
      <point x="51" y="418" type="line"/>
      <point x="296" y="618" type="line"/>
      <point x="65" y="808" type="line"/>
      <point x="187" y="808" type="line"/>
      <point x="356" y="667" type="line"/>
      <point x="526" y="808" type="line"/>
      <point x="646" y="808" type="line"/>
      <point x="415" y="618" type="line"/>
      <point x="659" y="418" type="line"/>
      <point x="415" y="201" type="line"/>
      <point x="646" y="-2" type="line"/>
      <point x="524" y="-2" type="line"/>
      <point x="356" y="150" type="line"/>
    </contour>
    <contour>
      <point x="176" y="419" type="line"/>
      <point x="356" y="257" type="line"/>
      <point x="536" y="419" type="line"/>
      <point x="356" y="568" type="line"/>
    </contour>
  </outline>
</glyph>
<glyph name="uni10C90.ltr" format="2">
  <advance width="627"/>
  <outline>
    <contour>
      <point x="362" y="0" type="line"/>
      <point x="266" y="0" type="line"/>
      <point x="266" y="495" type="line"/>
      <point x="58" y="601" type="line"/>
      <point x="97" y="671" type="line"/>
      <point x="266" y="585" type="line"/>
      <point x="266" y="804" type="line"/>
      <point x="362" y="804" type="line"/>
      <point x="362" y="536" type="line"/>
      <point x="570" y="429" type="line"/>
      <point x="531" y="361" type="line"/>
      <point x="362" y="447" type="line"/>
    </contour>
  </outline>
</glyph>
<glyph name="uni10C91.ltr" format="2">
  <advance width="627"/>
  <outline>
    <contour>
      <point x="349" y="2" type="line"/>
      <point x="253" y="2" type="line"/>
      <point x="253" y="700" type="line"/>
      <point x="58" y="790" type="line"/>
      <point x="97" y="854" type="line"/>
      <point x="570" y="633" type="line"/>
      <point x="531" y="571" type="line"/>
      <point x="349" y="656" type="line"/>
    </contour>
  </outline>
</glyph>
<glyph name="uni10C92.ltr" format="2">
  <advance width="547"/>
  <outline>
    <contour>
      <point x="223" y="-2" type="line"/>
      <point x="134" y="-2" type="line"/>
      <point x="134" y="806" type="line"/>
      <point x="210" y="806" type="line"/>
      <point x="516" y="520" type="line"/>
      <point x="461" y="462" type="line"/>
      <point x="223" y="686" type="line"/>
    </contour>
  </outline>
</glyph>
<glyph name="uni10C93.ltr" format="2">
  <advance width="1363"/>
  <outline>
    <contour>
      <point x="774" y="0" type="line"/>
      <point x="591" y="0" type="line"/>
      <point x="112" y="731" type="line"/>
      <point x="591" y="1463" type="line"/>
      <point x="774" y="1463" type="line"/>
      <point x="1255" y="731" type="line"/>
    </contour>
    <contour>
      <point x="682" y="162" type="line"/>
      <point x="1056" y="731" type="line"/>
      <point x="682" y="1303" type="line"/>
      <point x="314" y="731" type="line"/>
    </contour>
  </outline>
</glyph>
<glyph name="uni10C94.ltr" format="2">
  <advance width="1221"/>
  <outline>
    <contour>
      <point x="708" y="4" type="line"/>
      <point x="544" y="4" type="line"/>
      <point x="48" y="425" type="line"/>
      <point x="166" y="546" type="line"/>
      <point x="528" y="236" type="line"/>
      <point x="528" y="1467" type="line"/>
      <point x="692" y="1467" type="line"/>
      <point x="1189" y="1046" type="line"/>
      <point x="1071" y="924" type="line"/>
      <point x="708" y="1233" type="line"/>
    </contour>
  </outline>
</glyph>
<glyph name="uni10C95.ltr" format="2">
  <advance width="907"/>
  <outline>
    <contour>
      <point x="454" y="325" type="line"/>
      <point x="240" y="-17" type="line"/>
      <point x="33" y="74" type="line"/>
      <point x="66" y="139" type="line"/>
      <point x="200" y="76" type="line"/>
      <point x="408" y="401" type="line"/>
      <point x="206" y="715" type="line"/>
      <point x="72" y="654" type="line"/>
      <point x="39" y="717" type="line"/>
      <point x="246" y="810" type="line"/>
      <point x="454" y="477" type="line"/>
      <point x="661" y="810" type="line"/>
      <point x="869" y="717" type="line"/>
      <point x="835" y="654" type="line"/>
      <point x="702" y="715" type="line"/>
      <point x="499" y="401" type="line"/>
      <point x="708" y="76" type="line"/>
      <point x="841" y="139" type="line"/>
      <point x="875" y="74" type="line"/>
      <point x="667" y="-17" type="line"/>
    </contour>
  </outline>
</glyph>
<glyph name="uni10C96.ltr" format="2">
  <advance width="1596"/>
  <outline>
    <contour>
      <point x="1563" y="3" type="line"/>
      <point x="1364" y="3" type="line"/>
      <point x="937" y="943" type="line" smooth="yes"/>
      <point x="889" y="1050"/>
      <point x="861" y="1119" type="qcurve" smooth="yes"/>
      <point x="819" y="1221"/>
      <point x="802" y="1270" type="qcurve"/>
      <point x="794" y="1270" type="line"/>
      <point x="772" y="1202"/>
      <point x="712" y="1058"/>
      <point x="676" y="972" type="qcurve"/>
      <point x="1113" y="-1" type="line"/>
      <point x="933" y="-1" type="line"/>
      <point x="584" y="772" type="line"/>
      <point x="465" y="508" type="line"/>
      <point x="696" y="2" type="line"/>
      <point x="520" y="2" type="line"/>
      <point x="377" y="317" type="line"/>
      <point x="234" y="-1" type="line"/>
      <point x="36" y="-1" type="line"/>
      <point x="710" y="1463" type="line"/>
      <point x="881" y="1463" type="line"/>
    </contour>
  </outline>
</glyph>
<glyph name="uni10C97.ltr" format="2">
  <advance width="768"/>
  <outline>
    <contour>
      <point x="430" y="0" type="qcurve"/>
      <point x="337" y="0" type="line"/>
      <point x="260" y="59"/>
      <point x="146" y="180"/>
      <point x="85" y="319"/>
      <point x="85" y="403" type="qcurve" smooth="yes"/>
      <point x="85" y="487"/>
      <point x="146" y="626"/>
      <point x="260" y="748"/>
      <point x="337" y="806" type="qcurve"/>
      <point x="431" y="806" type="line"/>
      <point x="509" y="748"/>
      <point x="622" y="626"/>
      <point x="683" y="487"/>
      <point x="683" y="403" type="qcurve" smooth="yes"/>
      <point x="683" y="319"/>
      <point x="622" y="180"/>
      <point x="508" y="59"/>
    </contour>
    <contour>
      <point x="249" y="609" type="qcurve"/>
      <point x="560" y="264" type="line"/>
      <point x="590" y="327"/>
      <point x="590" y="403" type="qcurve" smooth="yes"/>
      <point x="590" y="470"/>
      <point x="545" y="579"/>
      <point x="455" y="682"/>
      <point x="386" y="739" type="qcurve"/>
      <point x="382" y="739" type="line"/>
      <point x="340" y="703"/>
      <point x="274" y="640"/>
    </contour>
    <contour>
      <point x="382" y="68" type="qcurve"/>
      <point x="386" y="68" type="line"/>
      <point x="427" y="103"/>
      <point x="493" y="166"/>
      <point x="518" y="198" type="qcurve"/>
      <point x="210" y="545" type="line"/>
      <point x="178" y="483"/>
      <point x="178" y="403" type="qcurve" smooth="yes"/>
      <point x="178" y="336"/>
      <point x="223" y="227"/>
      <point x="313" y="125"/>
    </contour>
  </outline>
</glyph>
<glyph name="uni10C98.ltr" format="2">
  <advance width="627"/>
  <outline>
    <contour>
      <point x="225" y="-6" type="line"/>
      <point x="130" y="-6" type="line"/>
      <point x="130" y="808" type="line"/>
      <point x="225" y="808" type="line"/>
      <point x="555" y="627" type="line"/>
      <point x="555" y="542" type="line"/>
      <point x="339" y="404" type="line"/>
      <point x="555" y="267" type="line"/>
      <point x="555" y="184" type="line"/>
    </contour>
    <contour>
      <point x="220" y="720" type="line"/>
      <point x="220" y="421" type="line"/>
      <point x="471" y="583" type="line"/>
    </contour>
    <contour>
      <point x="220" y="389" type="line"/>
      <point x="220" y="90" type="line"/>
      <point x="471" y="230" type="line"/>
    </contour>
  </outline>
</glyph>
<glyph name="uni10C99.ltr" format="2">
  <advance width="1071"/>
  <outline>
    <contour>
      <point x="891" y="116" type="qcurve"/>
      <point x="789" y="0" type="line"/>
      <point x="541" y="130"/>
      <point x="252" y="354"/>
      <point x="124" y="588"/>
      <point x="124" y="729" type="qcurve" smooth="yes"/>
      <point x="124" y="869"/>
      <point x="250" y="1105"/>
      <point x="535" y="1333"/>
      <point x="779" y="1461" type="qcurve"/>
      <point x="901" y="1352" type="line"/>
      <point x="734" y="1262"/>
      <point x="507" y="1108"/>
      <point x="371" y="968"/>
      <point x="311" y="816"/>
      <point x="311" y="729" type="qcurve" smooth="yes"/>
      <point x="311" y="610"/>
      <point x="423" y="419"/>
      <point x="677" y="227"/>
    </contour>
  </outline>
</glyph>
<glyph name="uni10C9A.ltr" format="2">
  <advance width="633"/>
  <outline>
    <contour>
      <point x="511" y="-2" type="line"/>
      <point x="421" y="-2" type="line"/>
      <point x="297" y="61"/>
      <point x="145" y="184"/>
      <point x="76" y="319"/>
      <point x="76" y="398" type="qcurve" smooth="yes"/>
      <point x="76" y="476"/>
      <point x="146" y="610"/>
      <point x="298" y="736"/>
      <point x="421" y="799" type="qcurve"/>
      <point x="511" y="799" type="line"/>
    </contour>
    <contour>
      <point x="421" y="90" type="qcurve"/>
      <point x="421" y="708" type="line"/>
      <point x="330" y="657"/>
      <point x="219" y="562"/>
      <point x="170" y="460"/>
      <point x="170" y="398" type="qcurve" smooth="yes"/>
      <point x="170" y="336"/>
      <point x="221" y="232"/>
      <point x="332" y="139"/>
    </contour>
  </outline>
</glyph>
<glyph name="uni10C9B.ltr" format="2">
  <advance width="634"/>
  <outline>
    <contour>
      <point x="579" y="190" type="line"/>
      <point x="343" y="-15" type="line"/>
      <point x="253" y="50"/>
      <point x="134" y="172"/>
      <point x="75" y="310"/>
      <point x="75" y="397" type="qcurve" smooth="yes"/>
      <point x="75" y="478"/>
      <point x="127" y="612"/>
      <point x="245" y="744"/>
      <point x="343" y="819" type="qcurve"/>
      <point x="579" y="614" type="line"/>
      <point x="517" y="557" type="line"/>
      <point x="345" y="706" type="line"/>
      <point x="280" y="653"/>
      <point x="202" y="558"/>
      <point x="169" y="459"/>
      <point x="169" y="397" type="qcurve" smooth="yes"/>
      <point x="169" y="333"/>
      <point x="202" y="229"/>
      <point x="275" y="137"/>
      <point x="335" y="88" type="qcurve"/>
      <point x="517" y="247" type="line"/>
    </contour>
  </outline>
</glyph>
<glyph name="uni10C9C.ltr" format="2">
  <advance width="1311"/>
  <outline>
    <contour>
      <point x="1155" y="445" type="line"/>
      <point x="608" y="4" type="line"/>
      <point x="427" y="122"/>
      <point x="310" y="232" type="qcurve" smooth="yes"/>
      <point x="192" y="341"/>
      <point x="74" y="579"/>
      <point x="74" y="718" type="qcurve" smooth="yes"/>
      <point x="74" y="854"/>
      <point x="178" y="1092"/>
      <point x="296" y="1210" type="qcurve" smooth="yes"/>
      <point x="414" y="1329"/>
      <point x="608" y="1466" type="qcurve"/>
      <point x="728" y="1343" type="line"/>
      <point x="552" y="1221"/>
      <point x="354" y="1025"/>
      <point x="268" y="833"/>
      <point x="268" y="718" type="qcurve" smooth="yes"/>
      <point x="268" y="571"/>
      <point x="417" y="326"/>
      <point x="592" y="194" type="qcurve"/>
      <point x="912" y="457" type="line"/>
      <point x="628" y="712" type="line"/>
      <point x="748" y="815" type="line"/>
    </contour>
  </outline>
</glyph>
<glyph name="uni10C9D.ltr" format="2">
  <advance width="482"/>
  <outline>
    <contour>
      <point x="411" y="277" type="line"/>
      <point x="146" y="-6" type="line"/>
      <point x="83" y="56" type="line"/>
      <point x="292" y="281" type="line"/>
      <point x="71" y="524" type="line"/>
      <point x="342" y="804" type="line"/>
      <point x="406" y="742" type="line"/>
      <point x="189" y="520" type="line"/>
    </contour>
  </outline>
</glyph>
<glyph name="uni10C9E.ltr" format="2">
  <advance width="1243"/>
  <outline>
    <contour>
      <point x="1209" y="2" type="line"/>
      <point x="1030" y="2" type="line"/>
      <point x="1030" y="744" type="line"/>
      <point x="474" y="3" type="line"/>
      <point x="246" y="3" type="line"/>
      <point x="822" y="754" type="line"/>
      <point x="264" y="1464" type="line"/>
      <point x="482" y="1464" type="line"/>
      <point x="1030" y="748" type="line"/>
      <point x="1030" y="1463" type="line"/>
      <point x="1209" y="1463" type="line"/>
    </contour>
  </outline>
</glyph>
<glyph name="uni10C9F.ltr" format="2">
  <advance width="724"/>
  <outline>
    <contour>
      <point x="685" y="233" type="line"/>
      <point x="413" y="-6" type="line"/>
      <point x="358" y="34"/>
      <point x="270" y="109"/>
      <point x="238" y="148" type="qcurve"/>
      <point x="145" y="72" type="line"/>
      <point x="97" y="122" type="line"/>
      <point x="197" y="203" type="line"/>
      <point x="145" y="287"/>
      <point x="145" y="389" type="qcurve" smooth="yes"/>
      <point x="145" y="442"/>
      <point x="169" y="536"/>
      <point x="196" y="580" type="qcurve"/>
      <point x="100" y="658" type="line"/>
      <point x="148" y="710" type="line"/>
      <point x="236" y="638" type="line"/>
      <point x="268" y="677"/>
      <point x="355" y="757"/>
      <point x="413" y="802" type="qcurve"/>
      <point x="473" y="735" type="line"/>
      <point x="416" y="691"/>
      <point x="334" y="616"/>
      <point x="306" y="581" type="qcurve"/>
      <point x="360" y="538" type="line"/>
      <point x="312" y="487" type="line"/>
      <point x="268" y="522" type="line"/>
      <point x="239" y="461"/>
      <point x="239" y="389" type="qcurve" smooth="yes"/>
      <point x="239" y="320"/>
      <point x="266" y="260" type="qcurve"/>
      <point x="312" y="298" type="line"/>
      <point x="360" y="247" type="line"/>
      <point x="303" y="200" type="line"/>
      <point x="322" y="175"/>
      <point x="373" y="125"/>
      <point x="404" y="99" type="qcurve"/>
      <point x="561" y="241" type="line"/>
      <point x="419" y="381" type="line"/>
      <point x="483" y="439" type="line"/>
      <point x="687" y="237" type="line"/>
      <point x="682" y="234" type="line"/>
    </contour>
  </outline>
</glyph>
<glyph name="uni10CA0.ltr" format="2">
  <advance width="578"/>
  <outline>
    <contour>
      <point x="517" y="35" type="line"/>
      <point x="462" y="-17" type="line"/>
      <point x="217" y="205" type="line"/>
      <point x="217" y="3" type="line"/>
      <point x="127" y="3" type="line"/>
      <point x="127" y="799" type="line"/>
      <point x="208" y="799" type="line"/>
      <point x="517" y="520" type="line"/>
      <point x="462" y="469" type="line"/>
      <point x="217" y="692" type="line"/>
      <point x="217" y="548" type="line"/>
      <point x="517" y="277" type="line"/>
      <point x="462" y="225" type="line"/>
      <point x="217" y="448" type="line"/>
      <point x="217" y="304" type="line"/>
    </contour>
  </outline>
</glyph>
<glyph name="uni10CA1.ltr" format="2">
  <advance width="2048"/>
  <outline>
    <contour>
      <point x="1565" y="-48" type="line"/>
      <point x="1328" y="181" type="line"/>
      <point x="1261" y="123"/>
      <point x="1223" y="95" type="qcurve" smooth="yes"/>
      <point x="1139" y="31"/>
      <point x="1107" y="10" type="qcurve"/>
      <point x="911" y="10" type="line"/>
      <point x="855" y="51"/>
      <point x="803" y="95" type="qcurve" smooth="yes"/>
      <point x="753" y="138"/>
      <point x="704" y="181" type="qcurve"/>
      <point x="455" y="-48" type="line"/>
      <point x="327" y="56" type="line"/>
      <point x="598" y="288" type="line"/>
      <point x="468" y="437"/>
      <point x="431" y="600" type="qcurve"/>
      <point x="162" y="459" type="line"/>
      <point x="78" y="593" type="line"/>
      <point x="415" y="750" type="line"/>
      <point x="417" y="856"/>
      <point x="481" y="1070"/>
      <point x="574" y="1171" type="qcurve"/>
      <point x="568" y="1176" type="line"/>
      <point x="305" y="1059" type="line"/>
      <point x="228" y="1195" type="line"/>
      <point x="911" y="1472" type="line"/>
      <point x="1109" y="1472" type="line"/>
      <point x="1792" y="1195" type="line"/>
      <point x="1715" y="1059" type="line"/>
      <point x="1454" y="1176" type="line"/>
      <point x="1450" y="1171" type="line"/>
      <point x="1542" y="1069"/>
      <point x="1579" y="962" type="qcurve" smooth="yes"/>
      <point x="1617" y="856"/>
      <point x="1619" y="750" type="qcurve"/>
      <point x="1956" y="593" type="line"/>
      <point x="1874" y="459" type="line"/>
      <point x="1605" y="600" type="line"/>
      <point x="1583" y="514"/>
      <point x="1498" y="361"/>
      <point x="1436" y="288" type="qcurve"/>
      <point x="1695" y="56" type="line"/>
    </contour>
    <contour>
      <point x="1003" y="137" type="qcurve"/>
      <point x="1011" y="137" type="line"/>
      <point x="1207" y="270"/>
      <point x="1426" y="558"/>
      <point x="1426" y="751" type="qcurve" smooth="yes"/>
      <point x="1426" y="937"/>
      <point x="1223" y="1231"/>
      <point x="1011" y="1340" type="qcurve"/>
      <point x="1003" y="1340" type="line"/>
      <point x="789" y="1231"/>
      <point x="588" y="937"/>
      <point x="588" y="751" type="qcurve" smooth="yes"/>
      <point x="588" y="559"/>
      <point x="805" y="270"/>
    </contour>
  </outline>
</glyph>
<glyph name="uni10CA2.ltr" format="2">
  <advance width="832"/>
  <outline>
    <contour>
      <point x="219" y="0" type="line"/>
      <point x="129" y="0" type="line"/>
      <point x="129" y="802" type="line"/>
      <point x="219" y="802" type="line"/>
      <point x="219" y="572" type="line"/>
      <point x="612" y="324" type="line"/>
      <point x="612" y="802" type="line"/>
      <point x="702" y="802" type="line"/>
      <point x="702" y="0" type="line"/>
      <point x="612" y="0" type="line"/>
      <point x="612" y="235" type="line"/>
      <point x="219" y="479" type="line"/>
    </contour>
  </outline>
</glyph>
<glyph name="uni10CA3.ltr" format="2">
  <advance width="1221"/>
  <outline>
    <contour>
      <point x="1027" y="373" type="line"/>
      <point x="104" y="917" type="line"/>
      <point x="188" y="1065" type="line"/>
      <point x="1109" y="520" type="line"/>
    </contour>
  </outline>
</glyph>
<glyph name="uni10CA4.ltr" format="2">
  <advance width="1443"/>
  <outline>
    <contour>
      <point x="1420" y="1" type="line"/>
      <point x="1230" y="1" type="line"/>
      <point x="849" y="939" type="line" smooth="yes"/>
      <point x="783" y="1103"/>
      <point x="779" y="1113" type="qcurve" smooth="yes"/>
      <point x="755" y="1169"/>
      <point x="727" y="1264" type="qcurve"/>
      <point x="719" y="1264" type="line"/>
      <point x="699" y="1195"/>
      <point x="667" y="1113" type="qcurve"/>
      <point x="641" y="1043"/>
      <point x="600" y="943" type="qcurve" smooth="yes"/>
      <point x="215" y="1" type="line"/>
      <point x="26" y="1" type="line"/>
      <point x="626" y="1461" type="line"/>
      <point x="807" y="1461" type="line"/>
    </contour>
  </outline>
</glyph>
<glyph name="uni10CA5.ltr" format="2">
  <advance width="341"/>
  <outline>
    <contour>
      <point x="217" y="-4" type="line"/>
      <point x="127" y="-4" type="line"/>
      <point x="127" y="804" type="line"/>
      <point x="217" y="804" type="line"/>
    </contour>
  </outline>
</glyph>
<glyph name="uni10CA6.ltr" format="2">
  <advance width="567"/>
  <outline>
    <contour>
      <point x="211" y="0" type="line"/>
      <point x="121" y="0" type="line"/>
      <point x="121" y="802" type="line"/>
      <point x="211" y="802" type="line"/>
      <point x="211" y="464" type="line"/>
      <point x="485" y="827" type="line"/>
      <point x="557" y="781" type="line"/>
      <point x="211" y="332" type="line"/>
    </contour>
  </outline>
</glyph>
<glyph name="uni10CA7.ltr" format="2">
  <advance width="866"/>
  <outline>
    <contour>
      <point x="478" y="0" type="line"/>
      <point x="388" y="0" type="line"/>
      <point x="388" y="498" type="line"/>
      <point x="185" y="702" type="line"/>
      <point x="76" y="595" type="line"/>
      <point x="19" y="651" type="line"/>
      <point x="187" y="812" type="line"/>
      <point x="388" y="608" type="line"/>
      <point x="388" y="801" type="line"/>
      <point x="478" y="801" type="line"/>
      <point x="478" y="609" type="line"/>
      <point x="678" y="812" type="line"/>
      <point x="846" y="651" type="line"/>
      <point x="790" y="595" type="line"/>
      <point x="681" y="702" type="line"/>
      <point x="478" y="499" type="line"/>
    </contour>
  </outline>
</glyph>
<glyph name="uni10CA8.ltr" format="2">
  <advance width="1377"/>
  <outline>
    <contour>
      <point x="843" y="0" type="line"/>
      <point x="651" y="0" type="line"/>
      <point x="445" y="297" type="line"/>
      <point x="231" y="2" type="line"/>
      <point x="8" y="2" type="line"/>
      <point x="581" y="765" type="line"/>
      <point x="48" y="1461" type="line"/>
      <point x="255" y="1461" type="line"/>
      <point x="687" y="891" type="line"/>
      <point x="819" y="1074" type="line"/>
      <point x="554" y="1461" type="line"/>
      <point x="745" y="1461" type="line"/>
      <point x="925" y="1205" type="line"/>
      <point x="1115" y="1461" type="line"/>
      <point x="1334" y="1461" type="line"/>
      <point x="796" y="755" type="line"/>
      <point x="1370" y="2" type="line"/>
      <point x="1162" y="2" type="line"/>
      <point x="703" y="642" type="line"/>
      <point x="547" y="428" type="line"/>
    </contour>
  </outline>
</glyph>
<glyph name="uni10CA9.ltr" format="2">
  <advance width="1433"/>
  <outline>
    <contour>
      <point x="127" y="2" type="line"/>
      <point x="10" y="124" type="line"/>
      <point x="531" y="766" type="line"/>
      <point x="52" y="1377" type="line"/>
      <point x="163" y="1461" type="line"/>
      <point x="733" y="1322" type="line"/>
      <point x="691" y="1198" type="line"/>
      <point x="287" y="1301" type="line"/>
      <point x="627" y="881" type="line"/>
      <point x="1087" y="1461" type="line"/>
      <point x="1300" y="1461" type="line"/>
      <point x="734" y="750" type="line"/>
      <point x="1330" y="3" type="line"/>
      <point x="1130" y="3" type="line"/>
      <point x="635" y="640" type="line"/>
      <point x="249" y="161" type="line"/>
      <point x="649" y="261" type="line"/>
      <point x="699" y="135" type="line"/>
    </contour>
  </outline>
</glyph>
<glyph name="uni10CAA.ltr" format="2">
  <advance width="885"/>
  <outline>
    <contour>
      <point x="223" y="-2" type="line"/>
      <point x="135" y="-2" type="line"/>
      <point x="135" y="802" type="line"/>
      <point x="223" y="802" type="line"/>
      <point x="448" y="637" type="line"/>
      <point x="673" y="802" type="line"/>
      <point x="761" y="802" type="line"/>
      <point x="761" y="-2" type="line"/>
      <point x="673" y="-2" type="line"/>
      <point x="448" y="164" type="line"/>
    </contour>
    <contour>
      <point x="225" y="701" type="line"/>
      <point x="225" y="99" type="line"/>
      <point x="448" y="258" type="line"/>
      <point x="671" y="99" type="line"/>
      <point x="671" y="701" type="line"/>
      <point x="448" y="542" type="line"/>
    </contour>
  </outline>
</glyph>
<glyph name="uni10CAB.ltr" format="2">
  <advance width="1900"/>
  <outline>
    <contour>
      <point x="1669" y="0" type="line"/>
      <point x="1507" y="0" type="line"/>
      <point x="960" y="634" type="line"/>
      <point x="408" y="0" type="line"/>
      <point x="244" y="0" type="line"/>
      <point x="244" y="1461" type="line"/>
      <point x="408" y="1461" type="line"/>
      <point x="960" y="840" type="line"/>
      <point x="1507" y="1461" type="line"/>
      <point x="1669" y="1461" type="line"/>
    </contour>
    <contour>
      <point x="862" y="736" type="line"/>
      <point x="416" y="1246" type="line"/>
      <point x="419" y="235" type="line"/>
    </contour>
    <contour>
      <point x="1507" y="1221" type="line"/>
      <point x="1056" y="739" type="line"/>
      <point x="1515" y="230" type="line"/>
    </contour>
  </outline>
</glyph>
<glyph name="uni10CAC.ltr" format="2">
  <advance width="769"/>
  <outline>
    <contour>
      <point x="218" y="103" type="qcurve"/>
      <point x="106" y="-15" type="line"/>
      <point x="41" y="42" type="line"/>
      <point x="166" y="164" type="line"/>
      <point x="128" y="217"/>
      <point x="86" y="333"/>
      <point x="86" y="401" type="qcurve" smooth="yes"/>
      <point x="86" y="469"/>
      <point x="128" y="586"/>
      <point x="166" y="638" type="qcurve"/>
      <point x="42" y="759" type="line"/>
      <point x="106" y="817" type="line"/>
      <point x="218" y="699" type="line"/>
      <point x="244" y="725"/>
      <point x="304" y="776"/>
      <point x="338" y="802" type="qcurve"/>
      <point x="432" y="802" type="line"/>
      <point x="466" y="777"/>
      <point x="526" y="726"/>
      <point x="551" y="699" type="qcurve"/>
      <point x="663" y="817" type="line"/>
      <point x="728" y="759" type="line"/>
      <point x="604" y="639" type="line"/>
      <point x="642" y="587"/>
      <point x="684" y="469"/>
      <point x="684" y="401" type="qcurve" smooth="yes"/>
      <point x="684" y="333"/>
      <point x="642" y="216"/>
      <point x="604" y="164" type="qcurve"/>
      <point x="728" y="42" type="line"/>
      <point x="663" y="-15" type="line"/>
      <point x="551" y="103" type="line"/>
      <point x="526" y="77"/>
      <point x="465" y="26"/>
      <point x="431" y="0" type="qcurve"/>
      <point x="338" y="0" type="line"/>
      <point x="304" y="26"/>
      <point x="244" y="77"/>
    </contour>
    <contour>
      <point x="383" y="68" type="qcurve"/>
      <point x="387" y="68" type="line"/>
      <point x="456" y="125"/>
      <point x="546" y="226"/>
      <point x="591" y="334"/>
      <point x="591" y="401" type="qcurve" smooth="yes"/>
      <point x="591" y="468"/>
      <point x="546" y="576"/>
      <point x="456" y="678"/>
      <point x="387" y="735" type="qcurve"/>
      <point x="383" y="735" type="line"/>
      <point x="314" y="678"/>
      <point x="224" y="576"/>
      <point x="179" y="468"/>
      <point x="179" y="401" type="qcurve" smooth="yes"/>
      <point x="179" y="334"/>
      <point x="224" y="226"/>
      <point x="314" y="125"/>
    </contour>
  </outline>
</glyph>
<glyph name="uni10CAD.ltr" format="2">
  <advance width="788"/>
  <outline>
    <contour>
      <point x="221" y="-2" type="line"/>
      <point x="131" y="-2" type="line"/>
      <point x="131" y="593" type="line"/>
      <point x="221" y="593" type="line"/>
      <point x="568" y="345" type="line"/>
      <point x="568" y="804" type="line"/>
      <point x="658" y="804" type="line"/>
      <point x="658" y="247" type="line"/>
      <point x="568" y="247" type="line"/>
      <point x="221" y="490" type="line"/>
    </contour>
  </outline>
</glyph>
<glyph name="uni10CAE.ltr" format="2">
  <advance width="888"/>
  <outline>
    <contour>
      <point x="228" y="-2" type="line"/>
      <point x="138" y="-2" type="line"/>
      <point x="138" y="804" type="line"/>
      <point x="226" y="804" type="line"/>
      <point x="451" y="639" type="line"/>
      <point x="676" y="804" type="line"/>
      <point x="764" y="804" type="line"/>
      <point x="764" y="-2" type="line"/>
      <point x="674" y="-2" type="line"/>
      <point x="674" y="702" type="line"/>
      <point x="451" y="543" type="line"/>
      <point x="228" y="702" type="line"/>
    </contour>
  </outline>
</glyph>
<glyph name="uni10CAF.ltr" format="2">
  <advance width="820"/>
  <outline>
    <contour>
      <point x="205" y="0" type="line"/>
      <point x="115" y="0" type="line"/>
      <point x="115" y="802" type="line"/>
      <point x="202" y="802" type="line"/>
      <point x="609" y="559" type="line"/>
      <point x="609" y="802" type="line"/>
      <point x="699" y="802" type="line"/>
      <point x="699" y="0" type="line"/>
      <point x="612" y="0" type="line"/>
      <point x="205" y="244" type="line"/>
    </contour>
    <contour>
      <point x="205" y="564" type="line"/>
      <point x="609" y="323" type="line"/>
      <point x="609" y="475" type="line"/>
      <point x="205" y="716" type="line"/>
    </contour>
    <contour>
      <point x="205" y="329" type="line"/>
      <point x="609" y="88" type="line"/>
      <point x="609" y="239" type="line"/>
      <point x="205" y="480" type="line"/>
    </contour>
  </outline>
</glyph>
<glyph name="uni10CB0.ltr" format="2">
  <advance width="796"/>
  <outline>
    <contour>
      <point x="446" y="0" type="line"/>
      <point x="356" y="0" type="line"/>
      <point x="356" y="344" type="line"/>
      <point x="16" y="784" type="line"/>
      <point x="90" y="832" type="line"/>
      <point x="356" y="479" type="line"/>
      <point x="356" y="805" type="line"/>
      <point x="446" y="805" type="line"/>
      <point x="446" y="479" type="line"/>
      <point x="712" y="832" type="line"/>
      <point x="786" y="784" type="line"/>
      <point x="446" y="344" type="line"/>
    </contour>
  </outline>
</glyph>
<glyph name="uni10CB1.ltr" format="2">
  <advance width="866"/>
  <outline>
    <contour>
      <point x="479" y="-4" type="line"/>
      <point x="389" y="-4" type="line"/>
      <point x="187" y="197" type="line"/>
      <point x="78" y="89" type="line"/>
      <point x="21" y="146" type="line"/>
      <point x="189" y="305" type="line"/>
      <point x="389" y="102" type="line"/>
      <point x="389" y="248" type="line"/>
      <point x="187" y="449" type="line"/>
      <point x="78" y="341" type="line"/>
      <point x="21" y="397" type="line"/>
      <point x="189" y="557" type="line"/>
      <point x="389" y="354" type="line"/>
      <point x="389" y="500" type="line"/>
      <point x="187" y="701" type="line"/>
      <point x="78" y="594" type="line"/>
      <point x="21" y="650" type="line"/>
      <point x="189" y="810" type="line"/>
      <point x="389" y="607" type="line"/>
      <point x="389" y="801" type="line"/>
      <point x="479" y="801" type="line"/>
      <point x="479" y="607" type="line"/>
      <point x="678" y="810" type="line"/>
      <point x="846" y="650" type="line"/>
      <point x="790" y="594" type="line"/>
      <point x="681" y="701" type="line"/>
      <point x="479" y="500" type="line"/>
      <point x="479" y="354" type="line"/>
      <point x="678" y="557" type="line"/>
      <point x="846" y="397" type="line"/>
      <point x="790" y="341" type="line"/>
      <point x="681" y="449" type="line"/>
      <point x="479" y="248" type="line"/>
      <point x="479" y="102" type="line"/>
      <point x="678" y="305" type="line"/>
      <point x="846" y="146" type="line"/>
      <point x="790" y="89" type="line"/>
      <point x="681" y="197" type="line"/>
    </contour>
  </outline>
</glyph>
<glyph name="uni10CB2.ltr" format="2">
  <advance width="1533"/>
  <outline>
    <contour>
      <point x="865" y="4" type="qcurve"/>
      <point x="668" y="4" type="line"/>
      <point x="512" y="112"/>
      <point x="398" y="221" type="qcurve" smooth="yes"/>
      <point x="283" y="331"/>
      <point x="156" y="580"/>
      <point x="156" y="734" type="qcurve" smooth="yes"/>
      <point x="156" y="888"/>
      <point x="283" y="1139"/>
      <point x="398" y="1250" type="qcurve" smooth="yes"/>
      <point x="513" y="1360"/>
      <point x="668" y="1466" type="qcurve"/>
      <point x="865" y="1466" type="line"/>
      <point x="1019" y="1360"/>
      <point x="1135" y="1250" type="qcurve" smooth="yes"/>
      <point x="1251" y="1139"/>
      <point x="1378" y="888"/>
      <point x="1378" y="734" type="qcurve" smooth="yes"/>
      <point x="1378" y="581"/>
      <point x="1251" y="331"/>
      <point x="1135" y="221" type="qcurve" smooth="yes"/>
      <point x="1019" y="112"/>
    </contour>
    <contour>
      <point x="851" y="1293" type="qcurve"/>
      <point x="851" y="177" type="line"/>
      <point x="965" y="270"/>
      <point x="1115" y="440"/>
      <point x="1189" y="622"/>
      <point x="1189" y="734" type="qcurve" smooth="yes"/>
      <point x="1189" y="846"/>
      <point x="1115" y="1030"/>
      <point x="965" y="1202"/>
    </contour>
    <contour>
      <point x="682" y="178" type="qcurve"/>
      <point x="682" y="1293" type="line"/>
      <point x="568" y="1202"/>
      <point x="419" y="1030"/>
      <point x="347" y="846"/>
      <point x="347" y="734" type="qcurve" smooth="yes"/>
      <point x="347" y="623"/>
      <point x="419" y="440"/>
      <point x="494" y="355" type="qcurve" smooth="yes"/>
      <point x="566" y="274"/>
    </contour>
  </outline>
</glyph>
<glyph name="uni10CC0.ltr" format="2">
  <advance width="885"/>
  <outline>
    <contour>
      <point x="238" y="2" type="line"/>
      <point x="64" y="2" type="line"/>
      <point x="64" y="1100" type="line"/>
      <point x="301" y="1100" type="line"/>
      <point x="696" y="749" type="line"/>
      <point x="696" y="558" type="line"/>
      <point x="238" y="558" type="line"/>
    </contour>
    <contour>
      <point x="238" y="696" type="line"/>
      <point x="544" y="699" type="line"/>
      <point x="238" y="964" type="line"/>
    </contour>
  </outline>
</glyph>
<glyph name="uni10CC1.ltr" format="2">
  <advance width="433"/>
  <outline>
    <contour>
      <point x="182" y="0" type="line"/>
      <point x="95" y="0" type="line"/>
      <point x="95" y="600" type="line"/>
      <point x="180" y="600" type="line"/>
      <point x="391" y="414" type="line"/>
      <point x="391" y="334" type="line"/>
      <point x="182" y="164" type="line"/>
    </contour>
    <contour>
      <point x="182" y="495" type="line"/>
      <point x="182" y="268" type="line"/>
      <point x="315" y="375" type="line"/>
    </contour>
  </outline>
</glyph>
<glyph name="uni10CC2.ltr" format="2">
  <advance width="1071"/>
  <outline>
    <contour>
      <point x="1053" y="2" type="line"/>
      <point x="865" y="2" type="line"/>
      <point x="541" y="466" type="line"/>
      <point x="222" y="2" type="line"/>
      <point x="20" y="2" type="line"/>
      <point x="433" y="576" type="line"/>
      <point x="50" y="1100" type="line"/>
      <point x="238" y="1100" type="line"/>
      <point x="535" y="683" type="line"/>
      <point x="831" y="1100" type="line"/>
      <point x="1029" y="1100" type="line"/>
      <point x="640" y="572" type="line"/>
    </contour>
  </outline>
</glyph>
<glyph name="uni10CC3.ltr" format="2">
  <advance width="1497"/>
  <outline>
    <contour>
      <point x="1113" y="3" type="line"/>
      <point x="986" y="141" type="line"/>
      <point x="910" y="71"/>
      <point x="814" y="5" type="qcurve"/>
      <point x="677" y="5" type="line"/>
      <point x="631" y="38"/>
      <point x="545" y="104"/>
      <point x="507" y="139" type="qcurve"/>
      <point x="383" y="3" type="line"/>
      <point x="80" y="124" type="line"/>
      <point x="136" y="245" type="line"/>
      <point x="339" y="158" type="line"/>
      <point x="411" y="243" type="line"/>
      <point x="357" y="313"/>
      <point x="299" y="465"/>
      <point x="299" y="555" type="qcurve" smooth="yes"/>
      <point x="299" y="645"/>
      <point x="357" y="799"/>
      <point x="411" y="867" type="qcurve"/>
      <point x="339" y="950" type="line"/>
      <point x="136" y="861" type="line"/>
      <point x="80" y="986" type="line"/>
      <point x="383" y="1106" type="line"/>
      <point x="507" y="972" type="line"/>
      <point x="545" y="1007"/>
      <point x="631" y="1069"/>
      <point x="677" y="1102" type="qcurve"/>
      <point x="814" y="1102" type="line"/>
      <point x="862" y="1067"/>
      <point x="947" y="1005"/>
      <point x="987" y="968" type="qcurve"/>
      <point x="1113" y="1106" type="line"/>
      <point x="1418" y="986" type="line"/>
      <point x="1358" y="861" type="line"/>
      <point x="1159" y="950" type="line"/>
      <point x="1083" y="861" type="line"/>
      <point x="1133" y="793"/>
      <point x="1189" y="641"/>
      <point x="1189" y="555" type="qcurve" smooth="yes"/>
      <point x="1189" y="468"/>
      <point x="1133" y="315"/>
      <point x="1083" y="247" type="qcurve"/>
      <point x="1159" y="158" type="line"/>
      <point x="1358" y="245" type="line"/>
      <point x="1418" y="124" type="line"/>
    </contour>
    <contour>
      <point x="742" y="123" type="qcurve"/>
      <point x="746" y="123" type="line"/>
      <point x="842" y="198"/>
      <point x="964" y="328"/>
      <point x="1023" y="467"/>
      <point x="1023" y="555" type="qcurve" smooth="yes"/>
      <point x="1023" y="641"/>
      <point x="966" y="780"/>
      <point x="842" y="913"/>
      <point x="746" y="988" type="qcurve"/>
      <point x="742" y="988" type="line"/>
      <point x="601" y="876"/>
      <point x="465" y="684"/>
      <point x="465" y="555" type="qcurve" smooth="yes"/>
      <point x="465" y="427"/>
      <point x="598" y="235"/>
    </contour>
  </outline>
</glyph>
<glyph name="uni10CC4.ltr" format="2">
  <advance width="891"/>
  <outline>
    <contour>
      <point x="532" y="1" type="line"/>
      <point x="359" y="1" type="line"/>
      <point x="359" y="896" type="line"/>
      <point x="106" y="691" type="line"/>
      <point x="8" y="793" type="line"/>
      <point x="388" y="1098" type="line"/>
      <point x="502" y="1098" type="line"/>
      <point x="883" y="793" type="line"/>
      <point x="785" y="691" type="line"/>
      <point x="532" y="896" type="line"/>
    </contour>
  </outline>
</glyph>
<glyph name="uni10CC5.ltr" format="2">
  <advance width="447"/>
  <outline>
    <contour>
      <point x="252" y="0" type="line"/>
      <point x="195" y="0" type="line"/>
      <point x="4" y="166" type="line"/>
      <point x="53" y="224" type="line"/>
      <point x="180" y="112" type="line"/>
      <point x="180" y="488" type="line"/>
      <point x="53" y="376" type="line"/>
      <point x="4" y="434" type="line"/>
      <point x="195" y="600" type="line"/>
      <point x="252" y="600" type="line"/>
      <point x="443" y="434" type="line"/>
      <point x="394" y="376" type="line"/>
      <point x="267" y="488" type="line"/>
      <point x="267" y="112" type="line"/>
      <point x="394" y="224" type="line"/>
      <point x="443" y="166" type="line"/>
    </contour>
  </outline>
</glyph>
<glyph name="uni10CC6.ltr" format="2">
  <advance width="1225"/>
  <outline>
    <contour>
      <point x="1037" y="0" type="line"/>
      <point x="886" y="0" type="line"/>
      <point x="360" y="312" type="line"/>
      <point x="360" y="0" type="line"/>
      <point x="190" y="0" type="line"/>
      <point x="190" y="1098" type="line"/>
      <point x="342" y="1098" type="line"/>
      <point x="868" y="782" type="line"/>
      <point x="868" y="1098" type="line"/>
      <point x="1037" y="1098" type="line"/>
    </contour>
    <contour>
      <point x="868" y="167" type="line"/>
      <point x="868" y="626" type="line"/>
      <point x="360" y="933" type="line"/>
      <point x="360" y="468" type="line"/>
    </contour>
  </outline>
</glyph>
<glyph name="uni10CC7.ltr" format="2">
  <advance width="871"/>
  <outline>
    <contour>
      <point x="522" y="2" type="line"/>
      <point x="349" y="2" type="line"/>
      <point x="349" y="534" type="line"/>
      <point x="52" y="673" type="line"/>
      <point x="117" y="798" type="line"/>
      <point x="349" y="688" type="line"/>
      <point x="349" y="1100" type="line"/>
      <point x="522" y="1100" type="line"/>
      <point x="522" y="604" type="line"/>
      <point x="819" y="463" type="line"/>
      <point x="751" y="343" type="line"/>
      <point x="522" y="452" type="line"/>
    </contour>
  </outline>
</glyph>
<glyph name="uni10CC8.ltr" format="2">
  <advance width="538"/>
  <outline>
    <contour>
      <point x="111" y="0" type="line"/>
      <point x="10" y="0" type="line"/>
      <point x="206" y="296" type="line"/>
      <point x="42" y="343" type="line"/>
      <point x="57" y="407" type="line"/>
      <point x="177" y="372" type="line"/>
      <point x="25" y="600" type="line"/>
      <point x="119" y="600" type="line"/>
      <point x="268" y="371" type="line"/>
      <point x="417" y="600" type="line"/>
      <point x="516" y="600" type="line"/>
      <point x="332" y="328" type="line"/>
      <point x="505" y="278" type="line"/>
      <point x="482" y="217" type="line"/>
      <point x="360" y="252" type="line"/>
      <point x="528" y="0" type="line"/>
      <point x="434" y="0" type="line"/>
      <point x="271" y="253" type="line"/>
    </contour>
  </outline>
</glyph>
<glyph name="uni10CC9.ltr" format="2">
  <advance width="411"/>
  <outline>
    <contour>
      <point x="185" y="51" type="qcurve"/>
      <point x="100" y="-27" type="line"/>
      <point x="57" y="33" type="line"/>
      <point x="125" y="95" type="line"/>
      <point x="74" y="139"/>
      <point x="28" y="237"/>
      <point x="28" y="300" type="qcurve" smooth="yes"/>
      <point x="28" y="362"/>
      <point x="73" y="459"/>
      <point x="122" y="502" type="qcurve"/>
      <point x="57" y="561" type="line"/>
      <point x="100" y="621" type="line"/>
      <point x="182" y="546" type="line"/>
      <point x="236" y="581"/>
      <point x="316" y="618" type="qcurve"/>
      <point x="361" y="551" type="line"/>
      <point x="326" y="535"/>
      <point x="268" y="504"/>
      <point x="244" y="490" type="qcurve"/>
      <point x="321" y="420" type="line"/>
      <point x="273" y="365" type="line"/>
      <point x="184" y="446" type="line"/>
      <point x="147" y="414"/>
      <point x="117" y="344"/>
      <point x="117" y="300" type="qcurve" smooth="yes"/>
      <point x="117" y="254"/>
      <point x="147" y="181"/>
      <point x="184" y="148" type="qcurve"/>
      <point x="273" y="229" type="line"/>
      <point x="321" y="174" type="line"/>
      <point x="245" y="104" type="line"/>
      <point x="291" y="76"/>
      <point x="357" y="47" type="qcurve"/>
      <point x="320" y="-20" type="line"/>
      <point x="240" y="16"/>
    </contour>
  </outline>
</glyph>
<glyph name="uni10CCA.ltr" format="2">
  <advance width="853"/>
  <outline>
    <contour>
      <point x="785" y="120" type="qcurve"/>
      <point x="711" y="4" type="line"/>
      <point x="553" y="67"/>
      <point x="446" y="125" type="qcurve"/>
      <point x="339" y="67"/>
      <point x="181" y="4" type="qcurve"/>
      <point x="108" y="120" type="line"/>
      <point x="167" y="144"/>
      <point x="269" y="188"/>
      <point x="313" y="210" type="qcurve"/>
      <point x="215" y="284"/>
      <point x="129" y="450"/>
      <point x="129" y="556" type="qcurve" smooth="yes"/>
      <point x="129" y="658"/>
      <point x="213" y="822"/>
      <point x="307" y="895" type="qcurve"/>
      <point x="263" y="918"/>
      <point x="162" y="965"/>
      <point x="100" y="989" type="qcurve"/>
      <point x="189" y="1102" type="line"/>
      <point x="338" y="1044"/>
      <point x="446" y="983" type="qcurve"/>
      <point x="553" y="1043"/>
      <point x="703" y="1102" type="qcurve"/>
      <point x="793" y="989" type="line"/>
      <point x="731" y="964"/>
      <point x="630" y="917"/>
      <point x="586" y="895" type="qcurve"/>
      <point x="677" y="823"/>
      <point x="763" y="658"/>
      <point x="763" y="556" type="qcurve" smooth="yes"/>
      <point x="763" y="451"/>
      <point x="678" y="285"/>
      <point x="580" y="210" type="qcurve"/>
      <point x="624" y="187"/>
      <point x="725" y="144"/>
    </contour>
    <contour>
      <point x="446" y="319" type="qcurve"/>
      <point x="524" y="378"/>
      <point x="586" y="505"/>
      <point x="586" y="663"/>
      <point x="524" y="784"/>
      <point x="446" y="841" type="qcurve"/>
      <point x="369" y="784"/>
      <point x="307" y="662"/>
      <point x="307" y="584" type="qcurve" smooth="yes"/>
      <point x="307" y="505"/>
      <point x="368" y="378"/>
    </contour>
  </outline>
</glyph>
<glyph name="uni10CCB.ltr" format="2">
  <advance width="705"/>
  <outline>
    <contour>
      <point x="293" y="-123" type="line"/>
      <point x="191" y="-4" type="line"/>
      <point x="351" y="126" type="line"/>
      <point x="198" y="223"/>
      <point x="68" y="420"/>
      <point x="68" y="540" type="qcurve" smooth="yes"/>
      <point x="68" y="660"/>
      <point x="197" y="854"/>
      <point x="353" y="955" type="qcurve"/>
      <point x="191" y="1081" type="line"/>
      <point x="293" y="1195" type="line"/>
      <point x="616" y="931" type="line"/>
      <point x="504" y="871" type="line" smooth="yes"/>
      <point x="372" y="800"/>
      <point x="301" y="709" type="qcurve" smooth="yes"/>
      <point x="239" y="630"/>
      <point x="239" y="540" type="qcurve"/>
      <point x="240" y="454"/>
      <point x="294" y="379" type="qcurve" smooth="yes"/>
      <point x="357" y="290"/>
      <point x="476" y="224" type="qcurve" smooth="yes"/>
      <point x="616" y="146" type="line"/>
    </contour>
  </outline>
</glyph>
<glyph name="uni10CCC.ltr" format="2">
  <advance width="556"/>
  <outline>
    <contour>
      <point x="313" y="0" type="qcurve"/>
      <point x="244" y="0" type="line"/>
      <point x="159" y="64"/>
      <point x="55" y="206"/>
      <point x="55" y="300" type="qcurve" smooth="yes"/>
      <point x="55" y="394"/>
      <point x="159" y="536"/>
      <point x="244" y="600" type="qcurve"/>
      <point x="313" y="600" type="line"/>
      <point x="398" y="536"/>
      <point x="501" y="394"/>
      <point x="501" y="300" type="qcurve" smooth="yes"/>
      <point x="501" y="206"/>
      <point x="398" y="64"/>
    </contour>
    <contour>
      <point x="190" y="449" type="qcurve"/>
      <point x="278" y="349" type="line"/>
      <point x="366" y="450" type="line"/>
      <point x="350" y="470"/>
      <point x="306" y="513"/>
      <point x="279" y="536" type="qcurve"/>
      <point x="277" y="536" type="line"/>
      <point x="250" y="513"/>
      <point x="207" y="470"/>
    </contour>
    <contour>
      <point x="322" y="298" type="line"/>
      <point x="402" y="207" type="line"/>
      <point x="420" y="249"/>
      <point x="420" y="300" type="qcurve" smooth="yes"/>
      <point x="420" y="350"/>
      <point x="402" y="392" type="qcurve"/>
    </contour>
    <contour>
      <point x="154" y="208" type="qcurve"/>
      <point x="234" y="298" type="line"/>
      <point x="154" y="391" type="line"/>
      <point x="136" y="349"/>
      <point x="136" y="300" type="qcurve" smooth="yes"/>
      <point x="136" y="250"/>
    </contour>
    <contour>
      <point x="277" y="64" type="qcurve"/>
      <point x="279" y="64" type="line"/>
      <point x="332" y="108"/>
      <point x="364" y="147" type="qcurve"/>
      <point x="278" y="247" type="line"/>
      <point x="192" y="147" type="line"/>
      <point x="224" y="108"/>
    </contour>
  </outline>
</glyph>
<glyph name="uni10CCD.ltr" format="2">
  <advance width="565"/>
  <outline>
    <contour>
      <point x="93" y="0" type="line"/>
      <point x="4" y="0" type="line"/>
      <point x="247" y="600" type="line"/>
      <point x="318" y="600" type="line"/>
      <point x="560" y="0" type="line"/>
      <point x="473" y="0" type="line"/>
      <point x="326" y="371" type="line" smooth="yes"/>
      <point x="309" y="415"/>
      <point x="290" y="470"/>
      <point x="284" y="496" type="qcurve"/>
      <point x="280" y="496" type="line"/>
      <point x="274" y="471"/>
      <point x="254" y="408"/>
      <point x="240" y="371" type="qcurve" smooth="yes"/>
      <point x="224" y="330" type="line"/>
      <point x="352" y="0" type="line"/>
      <point x="265" y="0" type="line"/>
      <point x="182" y="225" type="line"/>
    </contour>
  </outline>
</glyph>
<glyph name="uni10CCE.ltr" format="2">
  <advance width="897"/>
  <outline>
    <contour>
      <point x="538" y="2" type="line"/>
      <point x="365" y="2" type="line"/>
      <point x="365" y="341" type="line"/>
      <point x="64" y="502" type="line"/>
      <point x="122" y="618" type="line"/>
      <point x="365" y="495" type="line"/>
      <point x="365" y="685" type="line"/>
      <point x="64" y="844" type="line"/>
      <point x="122" y="960" type="line"/>
      <point x="365" y="834" type="line"/>
      <point x="365" y="1100" type="line"/>
      <point x="538" y="1100" type="line"/>
      <point x="538" y="752" type="line"/>
      <point x="839" y="596" type="line"/>
      <point x="769" y="482" type="line"/>
      <point x="538" y="604" type="line"/>
      <point x="538" y="411" type="line"/>
      <point x="839" y="255" type="line"/>
      <point x="769" y="142" type="line"/>
      <point x="538" y="260" type="line"/>
    </contour>
  </outline>
</glyph>
<glyph name="uni10CCF.ltr" format="2">
  <advance width="1067"/>
  <outline>
    <contour>
      <point x="981" y="3" type="line"/>
      <point x="766" y="3" type="line"/>
      <point x="535" y="196" type="line"/>
      <point x="302" y="3" type="line"/>
      <point x="88" y="3" type="line"/>
      <point x="425" y="285" type="line"/>
      <point x="80" y="573" type="line"/>
      <point x="423" y="837" type="line"/>
      <point x="84" y="1101" type="line"/>
      <point x="300" y="1101" type="line"/>
      <point x="535" y="922" type="line"/>
      <point x="768" y="1101" type="line"/>
      <point x="985" y="1101" type="line"/>
      <point x="644" y="837" type="line"/>
      <point x="989" y="573" type="line"/>
      <point x="644" y="285" type="line"/>
    </contour>
    <contour>
      <point x="535" y="379" type="line"/>
      <point x="760" y="571" type="line"/>
      <point x="535" y="749" type="line"/>
      <point x="305" y="571" type="line"/>
    </contour>
  </outline>
</glyph>
<glyph name="uni10CD0.ltr" format="2">
  <advance width="901"/>
  <outline>
    <contour>
      <point x="538" y="0" type="line"/>
      <point x="365" y="0" type="line"/>
      <point x="365" y="752" type="line"/>
      <point x="64" y="906" type="line"/>
      <point x="122" y="1022" type="line"/>
      <point x="365" y="899" type="line"/>
      <point x="365" y="1098" type="line"/>
      <point x="538" y="1098" type="line"/>
      <point x="538" y="810" type="line"/>
      <point x="839" y="659" type="line"/>
      <point x="769" y="545" type="line"/>
      <point x="538" y="664" type="line"/>
    </contour>
  </outline>
</glyph>
<glyph name="uni10CD1.ltr" format="2">
  <advance width="421"/>
  <outline>
    <contour>
      <point x="235" y="0" type="line"/>
      <point x="148" y="0" type="line"/>
      <point x="148" y="558" type="line"/>
      <point x="0" y="640" type="line"/>
      <point x="29" y="703" type="line"/>
      <point x="413" y="492" type="line"/>
      <point x="378" y="430" type="line"/>
      <point x="235" y="509" type="line"/>
    </contour>
  </outline>
</glyph>
<glyph name="uni10CD2.ltr" format="2">
  <advance width="811"/>
  <outline>
    <contour>
      <point x="195" y="2" type="line"/>
      <point x="22" y="2" type="line"/>
      <point x="22" y="1100" type="line"/>
      <point x="175" y="1100" type="line"/>
      <point x="622" y="702" type="line"/>
      <point x="514" y="606" type="line"/>
      <point x="195" y="889" type="line"/>
    </contour>
  </outline>
</glyph>
<glyph name="uni10CD3.ltr" format="2">
  <advance width="493"/>
  <outline>
    <contour>
      <point x="284" y="0" type="line"/>
      <point x="208" y="0" type="line"/>
      <point x="33" y="304" type="line"/>
      <point x="208" y="600" type="line"/>
      <point x="284" y="600" type="line"/>
      <point x="460" y="304" type="line"/>
    </contour>
    <contour>
      <point x="123" y="303" type="line"/>
      <point x="246" y="83" type="line"/>
      <point x="370" y="303" type="line"/>
      <point x="246" y="517" type="line"/>
    </contour>
  </outline>
</glyph>
<glyph name="uni10CD4.ltr" format="2">
  <advance width="469"/>
  <outline>
    <contour>
      <point x="278" y="0" type="line"/>
      <point x="206" y="0" type="line"/>
      <point x="15" y="166" type="line"/>
      <point x="64" y="224" type="line"/>
      <point x="191" y="112" type="line"/>
      <point x="191" y="600" type="line"/>
      <point x="263" y="600" type="line"/>
      <point x="454" y="434" type="line"/>
      <point x="405" y="376" type="line"/>
      <point x="278" y="488" type="line"/>
    </contour>
  </outline>
</glyph>
<glyph name="uni10CD5.ltr" format="2">
  <advance width="1365"/>
  <outline>
    <contour>
      <point x="979" y="3" type="line"/>
      <point x="682" y="436" type="line"/>
      <point x="387" y="3" type="line"/>
      <point x="56" y="132" type="line"/>
      <point x="117" y="245" type="line"/>
      <point x="307" y="168" type="line"/>
      <point x="587" y="561" type="line"/>
      <point x="317" y="936" type="line"/>
      <point x="125" y="857" type="line"/>
      <point x="64" y="972" type="line"/>
      <point x="397" y="1101" type="line"/>
      <point x="682" y="683" type="line"/>
      <point x="971" y="1102" type="line"/>
      <point x="1300" y="971" type="line"/>
      <point x="1238" y="856" type="line"/>
      <point x="1049" y="936" type="line"/>
      <point x="778" y="561" type="line"/>
      <point x="1057" y="168" type="line"/>
      <point x="1248" y="245" type="line"/>
      <point x="1310" y="132" type="line"/>
    </contour>
  </outline>
</glyph>
<glyph name="uni10CD6.ltr" format="2">
  <advance width="612"/>
  <outline>
    <contour>
      <point x="93" y="0" type="line"/>
      <point x="5" y="0" type="line"/>
      <point x="271" y="600" type="line"/>
      <point x="342" y="600" type="line"/>
      <point x="607" y="0" type="line"/>
      <point x="522" y="0" type="line"/>
      <point x="357" y="371" type="line" smooth="yes"/>
      <point x="338" y="414"/>
      <point x="316" y="474"/>
      <point x="308" y="498" type="qcurve"/>
      <point x="304" y="498" type="line"/>
      <point x="298" y="479"/>
      <point x="279" y="428"/>
      <point x="268" y="399" type="qcurve"/>
      <point x="439" y="0" type="line"/>
      <point x="355" y="0" type="line"/>
      <point x="227" y="305" type="line"/>
      <point x="186" y="212" type="line"/>
      <point x="273" y="0" type="line"/>
      <point x="189" y="0" type="line"/>
      <point x="144" y="117" type="line"/>
    </contour>
  </outline>
</glyph>
<glyph name="uni10CD7.ltr" format="2">
  <advance width="1107"/>
  <outline>
    <contour>
      <point x="624" y="2" type="qcurve"/>
      <point x="487" y="2" type="line"/>
      <point x="317" y="120"/>
      <point x="110" y="379"/>
      <point x="110" y="552" type="qcurve" smooth="yes"/>
      <point x="110" y="724"/>
      <point x="317" y="982"/>
      <point x="487" y="1100" type="qcurve"/>
      <point x="624" y="1100" type="line"/>
      <point x="794" y="982"/>
      <point x="999" y="725"/>
      <point x="999" y="552" type="qcurve" smooth="yes"/>
      <point x="999" y="380"/>
      <point x="794" y="120"/>
    </contour>
    <contour>
      <point x="379" y="823" type="qcurve"/>
      <point x="800" y="384" type="line"/>
      <point x="834" y="463"/>
      <point x="834" y="552" type="qcurve" smooth="yes"/>
      <point x="834" y="639"/>
      <point x="776" y="777"/>
      <point x="653" y="907"/>
      <point x="557" y="982" type="qcurve"/>
      <point x="553" y="982" type="line"/>
      <point x="434" y="888"/>
    </contour>
    <contour>
      <point x="553" y="120" type="qcurve"/>
      <point x="557" y="120" type="line"/>
      <point x="609" y="160"/>
      <point x="692" y="234"/>
      <point x="724" y="271" type="qcurve"/>
      <point x="310" y="715" type="line"/>
      <point x="276" y="638"/>
      <point x="276" y="552" type="qcurve" smooth="yes"/>
      <point x="276" y="424"/>
      <point x="409" y="232"/>
    </contour>
  </outline>
</glyph>
<glyph name="uni10CD8.ltr" format="2">
  <advance width="481"/>
  <outline>
    <contour>
      <point x="174" y="0" type="line"/>
      <point x="95" y="0" type="line"/>
      <point x="95" y="600" type="line"/>
      <point x="178" y="600" type="line"/>
      <point x="433" y="479" type="line"/>
      <point x="433" y="380" type="line"/>
      <point x="291" y="303" type="line"/>
      <point x="433" y="231" type="line"/>
      <point x="433" y="132" type="line"/>
    </contour>
    <contour>
      <point x="175" y="514" type="line"/>
      <point x="175" y="320" type="line"/>
      <point x="360" y="426" type="line"/>
    </contour>
    <contour>
      <point x="175" y="284" type="line"/>
      <point x="175" y="93" type="line"/>
      <point x="360" y="185" type="line"/>
    </contour>
  </outline>
</glyph>
<glyph name="uni10CD9.ltr" format="2">
  <advance width="420"/>
  <outline>
    <contour>
      <point x="384" y="47" type="qcurve"/>
      <point x="347" y="-20" type="line"/>
      <point x="242" y="28"/>
      <point x="113" y="122"/>
      <point x="55" y="230"/>
      <point x="55" y="300" type="qcurve" smooth="yes"/>
      <point x="55" y="369"/>
      <point x="113" y="477"/>
      <point x="240" y="570"/>
      <point x="343" y="618" type="qcurve"/>
      <point x="388" y="551" type="line"/>
      <point x="293" y="506"/>
      <point x="186" y="431"/>
      <point x="144" y="352"/>
      <point x="144" y="300" type="qcurve" smooth="yes"/>
      <point x="144" y="246"/>
      <point x="186" y="164"/>
      <point x="291" y="89"/>
    </contour>
  </outline>
</glyph>
<glyph name="uni10CDA.ltr" format="2">
  <advance width="977"/>
  <outline>
    <contour>
      <point x="867" y="1" type="line"/>
      <point x="698" y="1" type="line"/>
      <point x="514" y="89"/>
      <point x="291" y="254"/>
      <point x="190" y="439"/>
      <point x="190" y="551" type="qcurve" smooth="yes"/>
      <point x="190" y="657"/>
      <point x="293" y="840"/>
      <point x="516" y="1011"/>
      <point x="698" y="1099" type="qcurve"/>
      <point x="867" y="1099" type="line"/>
    </contour>
    <contour>
      <point x="698" y="161" type="qcurve"/>
      <point x="698" y="937" type="line"/>
      <point x="564" y="867"/>
      <point x="421" y="744"/>
      <point x="363" y="622"/>
      <point x="363" y="551" type="qcurve" smooth="yes"/>
      <point x="363" y="432"/>
      <point x="514" y="253"/>
    </contour>
  </outline>
</glyph>
<glyph name="uni10CDB.ltr" format="2">
  <advance width="943"/>
  <outline>
    <contour>
      <point x="833" y="289" type="line"/>
      <point x="476" y="3" type="line"/>
      <point x="268" y="135"/>
      <point x="64" y="381"/>
      <point x="64" y="544" type="qcurve" smooth="yes"/>
      <point x="64" y="641"/>
      <point x="103" y="730" type="qcurve" smooth="yes"/>
      <point x="143" y="819"/>
      <point x="324" y="998"/>
      <point x="476" y="1101" type="qcurve"/>
      <point x="833" y="812" type="line"/>
      <point x="717" y="713" type="line"/>
      <point x="474" y="912" type="line"/>
      <point x="385" y="846"/>
      <point x="281" y="728"/>
      <point x="259" y="669" type="qcurve" smooth="yes"/>
      <point x="237" y="609"/>
      <point x="237" y="544" type="qcurve" smooth="yes"/>
      <point x="237" y="439"/>
      <point x="287" y="354" type="qcurve" smooth="yes"/>
      <point x="336" y="270"/>
      <point x="460" y="180" type="qcurve"/>
      <point x="717" y="388" type="line"/>
    </contour>
  </outline>
</glyph>
<glyph name="uni10CDC.ltr" format="2">
  <advance width="1011"/>
  <outline>
    <contour>
      <point x="901" y="353" type="line"/>
      <point x="476" y="3" type="line"/>
      <point x="262" y="135"/>
      <point x="56" y="383"/>
      <point x="56" y="545" type="qcurve" smooth="yes"/>
      <point x="56" y="643"/>
      <point x="97" y="732" type="qcurve" smooth="yes"/>
      <point x="138" y="820"/>
      <point x="320" y="999"/>
      <point x="476" y="1101" type="qcurve"/>
      <point x="584" y="990" type="line"/>
      <point x="447" y="901"/>
      <point x="291" y="757"/>
      <point x="227" y="621"/>
      <point x="227" y="545" type="qcurve" smooth="yes"/>
      <point x="227" y="440"/>
      <point x="278" y="354" type="qcurve" smooth="yes"/>
      <point x="328" y="270"/>
      <point x="458" y="178" type="qcurve"/>
      <point x="676" y="362" type="line"/>
      <point x="480" y="539" type="line"/>
      <point x="594" y="640" type="line"/>
    </contour>
  </outline>
</glyph>
<glyph name="uni10CDD.ltr" format="2">
  <advance width="370"/>
  <outline>
    <contour>
      <point x="337" y="207" type="line"/>
      <point x="107" y="-18" type="line"/>
      <point x="50" y="41" type="line"/>
      <point x="230" y="211" type="line"/>
      <point x="33" y="394" type="line"/>
      <point x="266" y="618" type="line"/>
      <point x="323" y="559" type="line"/>
      <point x="139" y="390" type="line"/>
    </contour>
  </outline>
</glyph>
<glyph name="uni10CDE.ltr" format="2">
  <advance width="492"/>
  <outline>
    <contour>
      <point x="120" y="0" type="line"/>
      <point x="18" y="0" type="line"/>
      <point x="223" y="307" type="line"/>
      <point x="25" y="600" type="line"/>
      <point x="122" y="600" type="line"/>
      <point x="310" y="308" type="line"/>
      <point x="310" y="600" type="line"/>
      <point x="397" y="600" type="line"/>
      <point x="397" y="0" type="line"/>
      <point x="310" y="0" type="line"/>
      <point x="310" y="300" type="line"/>
    </contour>
  </outline>
</glyph>
<glyph name="uni10CDF.ltr" format="2">
  <advance width="541"/>
  <outline>
    <contour>
      <point x="513" y="182" type="line"/>
      <point x="300" y="-21" type="line"/>
      <point x="257" y="9"/>
      <point x="190" y="67"/>
      <point x="165" y="96" type="qcurve"/>
      <point x="96" y="38" type="line"/>
      <point x="51" y="88" type="line"/>
      <point x="125" y="151" type="line"/>
      <point x="89" y="216"/>
      <point x="89" y="293" type="qcurve" smooth="yes"/>
      <point x="89" y="334"/>
      <point x="107" y="406"/>
      <point x="127" y="441" type="qcurve"/>
      <point x="54" y="503" type="line"/>
      <point x="99" y="552" type="line"/>
      <point x="166" y="496" type="line"/>
      <point x="190" y="525"/>
      <point x="257" y="585"/>
      <point x="300" y="618" type="qcurve"/>
      <point x="354" y="554" type="line"/>
      <point x="271" y="492"/>
      <point x="230" y="442" type="qcurve"/>
      <point x="273" y="406" type="line"/>
      <point x="227" y="356" type="line"/>
      <point x="193" y="385" type="line"/>
      <point x="183" y="363"/>
      <point x="175" y="318"/>
      <point x="175" y="293" type="qcurve" smooth="yes"/>
      <point x="175" y="247"/>
      <point x="190" y="206" type="qcurve"/>
      <point x="226" y="236" type="line"/>
      <point x="272" y="187" type="line"/>
      <point x="224" y="147" type="line"/>
      <point x="249" y="114"/>
      <point x="291" y="80" type="qcurve"/>
      <point x="400" y="187" type="line"/>
      <point x="302" y="290" type="line"/>
      <point x="359" y="348" type="line"/>
    </contour>
  </outline>
</glyph>
<glyph name="uni10CE0.ltr" format="2">
  <advance width="903"/>
  <outline>
    <contour>
      <point x="614" y="-14" type="line"/>
      <point x="254" y="263" type="line"/>
      <point x="254" y="2" type="line"/>
      <point x="84" y="2" type="line"/>
      <point x="84" y="1100" type="line"/>
      <point x="234" y="1100" type="line"/>
      <point x="714" y="737" type="line"/>
      <point x="614" y="641" type="line"/>
      <point x="254" y="918" type="line"/>
      <point x="254" y="753" type="line"/>
      <point x="714" y="412" type="line"/>
      <point x="614" y="314" type="line"/>
      <point x="254" y="590" type="line"/>
      <point x="254" y="425" type="line"/>
      <point x="714" y="85" type="line"/>
    </contour>
  </outline>
</glyph>
<glyph name="uni10CE1.ltr" format="2">
  <advance width="1487"/>
  <outline>
    <contour>
      <point x="1149" y="-33" type="line"/>
      <point x="979" y="129" type="line"/>
      <point x="943" y="94"/>
      <point x="860" y="30"/>
      <point x="814" y="-1" type="qcurve"/>
      <point x="677" y="-1" type="line"/>
      <point x="631" y="30"/>
      <point x="547" y="96"/>
      <point x="509" y="129" type="qcurve"/>
      <point x="339" y="-33" type="line"/>
      <point x="221" y="65" type="line"/>
      <point x="413" y="232" type="line"/>
      <point x="379" y="277"/>
      <point x="329" y="371"/>
      <point x="315" y="423" type="qcurve"/>
      <point x="104" y="318" type="line"/>
      <point x="28" y="441" type="line"/>
      <point x="299" y="569" type="line"/>
      <point x="301" y="652"/>
      <point x="359" y="787"/>
      <point x="411" y="850" type="qcurve"/>
      <point x="411" y="850"/>
      <point x="164" y="743" type="qcurve"/>
      <point x="94" y="867" type="line"/>
      <point x="673" y="1097" type="line"/>
      <point x="816" y="1097" type="line"/>
      <point x="1394" y="867" type="line"/>
      <point x="1324" y="743" type="line"/>
      <point x="1079" y="848" type="line"/>
      <point x="1129" y="785"/>
      <point x="1185" y="652"/>
      <point x="1189" y="569" type="qcurve"/>
      <point x="1460" y="441" type="line"/>
      <point x="1384" y="318" type="line"/>
      <point x="1173" y="423" type="line"/>
      <point x="1147" y="324"/>
      <point x="1075" y="232" type="qcurve"/>
      <point x="1266" y="65" type="line"/>
    </contour>
    <contour>
      <point x="742" y="127" type="qcurve"/>
      <point x="746" y="127" type="line"/>
      <point x="842" y="202"/>
      <point x="964" y="332"/>
      <point x="1023" y="472"/>
      <point x="1023" y="560" type="qcurve" smooth="yes"/>
      <point x="1023" y="692"/>
      <point x="892" y="889"/>
      <point x="746" y="990" type="qcurve"/>
      <point x="742" y="990" type="line"/>
      <point x="601" y="889"/>
      <point x="465" y="692"/>
      <point x="465" y="560" type="qcurve" smooth="yes"/>
      <point x="465" y="432"/>
      <point x="598" y="239"/>
    </contour>
  </outline>
</glyph>
<glyph name="uni10CE2.ltr" format="2">
  <advance width="627"/>
  <outline>
    <contour>
      <point x="182" y="0" type="line"/>
      <point x="95" y="0" type="line"/>
      <point x="95" y="600" type="line"/>
      <point x="182" y="600" type="line"/>
      <point x="182" y="434" type="line"/>
      <point x="445" y="264" type="line"/>
      <point x="445" y="600" type="line"/>
      <point x="532" y="600" type="line"/>
      <point x="532" y="0" type="line"/>
      <point x="445" y="0" type="line"/>
      <point x="445" y="175" type="line"/>
      <point x="182" y="345" type="line"/>
    </contour>
  </outline>
</glyph>
<glyph name="uni10CE3.ltr" format="2">
  <advance width="441"/>
  <outline>
    <contour>
      <point x="414" y="245" type="line"/>
      <point x="375" y="177" type="line"/>
      <point x="32" y="372" type="line"/>
      <point x="72" y="440" type="line"/>
    </contour>
  </outline>
</glyph>
<glyph name="uni10CE4.ltr" format="2">
  <advance width="566"/>
  <outline>
    <contour>
      <point x="94" y="0" type="line"/>
      <point x="5" y="0" type="line"/>
      <point x="248" y="600" type="line"/>
      <point x="319" y="600" type="line"/>
      <point x="561" y="0" type="line"/>
      <point x="474" y="0" type="line"/>
      <point x="327" y="371" type="line" smooth="yes"/>
      <point x="310" y="415"/>
      <point x="291" y="470"/>
      <point x="285" y="496" type="qcurve"/>
      <point x="281" y="496" type="line"/>
      <point x="275" y="471"/>
      <point x="255" y="408"/>
      <point x="241" y="371" type="qcurve" smooth="yes"/>
    </contour>
  </outline>
</glyph>
<glyph name="uni10CE5.ltr" format="2">
  <advance width="551"/>
  <outline>
    <contour>
      <point x="363" y="2" type="line"/>
      <point x="190" y="2" type="line"/>
      <point x="190" y="1100" type="line"/>
      <point x="363" y="1100" type="line"/>
    </contour>
  </outline>
</glyph>
<glyph name="uni10CE6.ltr" format="2">
  <advance width="931"/>
  <outline>
    <contour>
      <point x="250" y="1" type="line"/>
      <point x="76" y="1" type="line"/>
      <point x="76" y="1099" type="line"/>
      <point x="250" y="1099" type="line"/>
      <point x="250" y="679" type="line"/>
      <point x="612" y="1096" type="line"/>
      <point x="742" y="991" type="line"/>
      <point x="250" y="440" type="line"/>
    </contour>
  </outline>
</glyph>
<glyph name="uni10CE7.ltr" format="2">
  <advance width="661"/>
  <outline>
    <contour>
      <point x="373" y="0" type="line"/>
      <point x="288" y="0" type="line"/>
      <point x="288" y="351" type="line"/>
      <point x="143" y="508" type="line"/>
      <point x="66" y="430" type="line"/>
      <point x="14" y="482" type="line"/>
      <point x="146" y="611" type="line"/>
      <point x="288" y="456" type="line"/>
      <point x="288" y="600" type="line"/>
      <point x="373" y="600" type="line"/>
      <point x="373" y="455" type="line"/>
      <point x="514" y="611" type="line"/>
      <point x="647" y="482" type="line"/>
      <point x="594" y="430" type="line"/>
      <point x="518" y="508" type="line"/>
      <point x="373" y="350" type="line"/>
    </contour>
  </outline>
</glyph>
<glyph name="uni10CE8.ltr" format="2">
  <advance width="538"/>
  <outline>
    <contour>
      <point x="111" y="0" type="line"/>
      <point x="10" y="0" type="line"/>
      <point x="217" y="313" type="line"/>
      <point x="25" y="600" type="line"/>
      <point x="119" y="600" type="line"/>
      <point x="268" y="371" type="line"/>
      <point x="313" y="440" type="line"/>
      <point x="211" y="600" type="line"/>
      <point x="299" y="600" type="line"/>
      <point x="356" y="507" type="line"/>
      <point x="417" y="600" type="line"/>
      <point x="516" y="600" type="line"/>
      <point x="321" y="311" type="line"/>
      <point x="528" y="0" type="line"/>
      <point x="434" y="0" type="line"/>
      <point x="271" y="253" type="line"/>
      <point x="223" y="177" type="line"/>
      <point x="335" y="0" type="line"/>
      <point x="248" y="0" type="line"/>
      <point x="180" y="109" type="line"/>
    </contour>
  </outline>
</glyph>
<glyph name="uni10CE9.ltr" format="2">
  <advance width="1029"/>
  <outline>
    <contour>
      <point x="148" y="-5" type="line"/>
      <point x="20" y="89" type="line"/>
      <point x="394" y="577" type="line"/>
      <point x="81" y="1004" type="line"/>
      <point x="193" y="1098" type="line"/>
      <point x="587" y="991" type="line"/>
      <point x="547" y="866" type="line"/>
      <point x="314" y="932" type="line"/>
      <point x="482" y="696" type="line"/>
      <point x="781" y="1098" type="line"/>
      <point x="979" y="1098" type="line"/>
      <point x="590" y="573" type="line"/>
      <point x="1003" y="3" type="line"/>
      <point x="815" y="3" type="line"/>
      <point x="481" y="458" type="line"/>
      <point x="260" y="155" type="line"/>
      <point x="509" y="227" type="line"/>
      <point x="552" y="102" type="line"/>
    </contour>
  </outline>
</glyph>
<glyph name="uni10CEA.ltr" format="2">
  <advance width="662"/>
  <outline>
    <contour>
      <point x="174" y="0" type="line"/>
      <point x="95" y="0" type="line"/>
      <point x="95" y="600" type="line"/>
      <point x="174" y="600" type="line"/>
      <point x="331" y="486" type="line"/>
      <point x="490" y="600" type="line"/>
      <point x="567" y="600" type="line"/>
      <point x="567" y="0" type="line"/>
      <point x="490" y="0" type="line"/>
      <point x="331" y="114" type="line"/>
    </contour>
    <contour>
      <point x="180" y="499" type="line"/>
      <point x="180" y="100" type="line"/>
      <point x="331" y="206" type="line"/>
      <point x="482" y="100" type="line"/>
      <point x="482" y="499" type="line"/>
      <point x="331" y="394" type="line"/>
    </contour>
  </outline>
</glyph>
<glyph name="uni10CEB.ltr" format="2">
  <advance width="710"/>
  <outline>
    <contour>
      <point x="168" y="0" type="line"/>
      <point x="95" y="0" type="line"/>
      <point x="95" y="600" type="line"/>
      <point x="168" y="600" type="line"/>
      <point x="354" y="355" type="line"/>
      <point x="537" y="600" type="line"/>
      <point x="615" y="600" type="line"/>
      <point x="615" y="0" type="line"/>
      <point x="537" y="0" type="line"/>
      <point x="354" y="243" type="line"/>
    </contour>
    <contour>
      <point x="170" y="472" type="line"/>
      <point x="170" y="126" type="line"/>
      <point x="173" y="126" type="line"/>
      <point x="307" y="300" type="line"/>
      <point x="173" y="472" type="line"/>
    </contour>
    <contour>
      <point x="401" y="300" type="line"/>
      <point x="532" y="131" type="line"/>
      <point x="535" y="131" type="line"/>
      <point x="535" y="467" type="line"/>
      <point x="532" y="467" type="line"/>
    </contour>
  </outline>
</glyph>
